{
.appVersion = "3079";
classes = (
{
automatic = 1;

glyphs = (
{
color = 3;
glyphname = Aogonek;
layers = (
{
anchors = (
{
name = bottom;
position = "{320, 0}";
},
{
name = ogonek;
position = "{587, 10}";
},
{
name = top;
position = "{419, 705}";
}
);
color = 3;
components = (
{
name = ogonekcomb;
transform = "{1, 0, 0, 1, 315, 10}";
}
);
layerId = "B953D09C-6DD0-450A-A78C-8C2188DD4016";
paths = (
{
closed = 1;
nodes = (
"41 -3 OFFCURVE",
"103 0 OFFCURVE",
"124 0 CURVE SMOOTH",
"240 0 LINE",
"255 71 LINE",
"137 84 LINE",
"196 33 LINE",
"198 58 OFFCURVE",
"199 90 OFFCURVE",
"209 115 CURVE SMOOTH",
"427 608 LINE",
"366 590 LINE",
"423 129 LINE SMOOTH",
"426 105 OFFCURVE",
"421 77 OFFCURVE",
"402 -5 CURVE",
"503 0 LINE",
"639 0 LINE",
"653 71 LINE",
"537 82 LINE",
"611 46 LINE",
"604 61 OFFCURVE",
"593 98 OFFCURVE",
"587 128 CURVE SMOOTH",
"477 716 LINE",
"363 705 LINE",
"102 161 LINE SMOOTH",
"87 129 OFFCURVE",
"47 71 OFFCURVE",
"33 52 CURVE",
"110 85 LINE",
"5 65 LINE",
"0 -5 LINE"
);
},
{
closed = 1;
nodes = (
"445 179 LINE",
"432 263 LINE",
"249 261 LINE",
"214 179 LINE"
);
}
);
width = 703;
},
{
anchors = (
{
name = bottom;
position = "{313, 0}";
},
{
name = ogonek;
position = "{574, 10}";
},
{
name = top;
position = "{412, 705}";
}
);
components = (
{
alignment = -1;
name = ogonekcomb;
transform = "{1, 0, 0, 1, 344, 0}";
}
);
layerId = "3088057A-3552-44D5-8A67-1301E2609A93";
paths = (
{
closed = 1;
nodes = (
"45 -3 OFFCURVE",
"109 0 OFFCURVE",
"133 0 CURVE SMOOTH",
"215 0 LINE",
"226 52 LINE",
"126 68 LINE",
"155 43 LINE",
"158 68 OFFCURVE",
"175 120 OFFCURVE",
"184 139 CURVE SMOOTH",
"384 575 LINE",
"375 576 LINE",
"455 171 LINE SMOOTH",
"461 137 OFFCURVE",
"464 62 OFFCURVE",
"471 -5 CURVE",
"528 0 LINE",
"623 0 LINE",
"634 52 LINE",
"543 69 LINE",
"584 41 LINE",
"579 53 OFFCURVE",
"557 119 OFFCURVE",
"553 138 CURVE SMOOTH",
"429 715 LINE",
"374 705 LINE",
"128 168 LINE SMOOTH",
"111 131 OFFCURVE",
"67 55 OFFCURVE",
"59 44 CURVE",
"101 69 LINE",
"4 42 LINE",
"1 -5 LINE"
);
},
{
closed = 1;
nodes = (
"452 237 LINE",
"449 288 LINE",
"235 284 LINE",
"214 237 LINE"
);
}
);
width = 688.7;
}
);
leftKerningGroup = UC_A;
rightKerningGroup = UC_A;
unicode = 0104;
},
{
color = 6;
glyphname = AE;
layers = (
{
anchors = (
{
name = bottom;
position = "{605, 0}";
},
{
name = top;
position = "{706, 720}";
}
);
color = 6;
layerId = "B953D09C-6DD0-450A-A78C-8C2188DD4016";
paths = (
{
closed = 1;
nodes = (
"43 -3 OFFCURVE",
"105 0 OFFCURVE",
"127 0 CURVE SMOOTH",
"235 0 LINE",
"249 67 LINE",
"144 80 LINE",
"189 35 LINE",
"195 60 OFFCURVE",
"205 95 OFFCURVE",
"219 120 CURVE SMOOTH",
"510 601 LINE",
"459 587 LINE",
"449 138 LINE SMOOTH",
"448 109 OFFCURVE",
"435 67 OFFCURVE",
"429 44 CURVE",
"495 85 LINE",
"369 61 LINE",
"363 -5 LINE",
"412 -3 OFFCURVE",
"480 0 OFFCURVE",
"510 0 CURVE SMOOTH",
"636 0 LINE",
"608 45 LINE",
"604 57 OFFCURVE",
"598 101 OFFCURVE",
"597 130 CURVE SMOOTH",
"579 705 LINE",
"476 705 LINE",
"130 162 LINE SMOOTH",
"109 129 OFFCURVE",
"57 66 OFFCURVE",
"43 50 CURVE",
"117 81 LINE",
"5 60 LINE",
"1 -5 LINE"
);
},
{
closed = 1;
nodes = (
"479 192 LINE",
"486 269 LINE",
"281 266 LINE",
"247 192 LINE"
);
},
{
closed = 1;
nodes = (
"729 0 LINE SMOOTH",
"755 0 OFFCURVE",
"803 0 OFFCURVE",
"844 0 CURVE",
"860 14 LINE",
"899 184 LINE",
"835 189 LINE",
"830 172 OFFCURVE",
"819 140 OFFCURVE",
"814 129 CURVE SMOOTH",
"808 114 OFFCURVE",
"785 78 OFFCURVE",
"755 44 CURVE",
"812 93 LINE",
"796 89 OFFCURVE",
"753 80 OFFCURVE",
"711 80 CURVE SMOOTH",
"516 80 LINE",
"516 0 LINE"
);
},
{
closed = 1;
nodes = (
"796 257 LINE",
"802 323 OFFCURVE",
"813 392 OFFCURVE",
"825 463 CURVE",
"768 468 LINE",
"733 346 LINE",
"804 408 LINE",
"772 403 OFFCURVE",
"715 395 OFFCURVE",
"702 395 CURVE SMOOTH",
"504 395 LINE",
"504 319 LINE",
"672 319 LINE SMOOTH",
"691 319 OFFCURVE",
"748 313 OFFCURVE",
"793 308 CURVE",
"737 369 LINE",
"736 251 LINE"
);
},
{
closed = 1;
nodes = (
"901 546 LINE",
"916 692 LINE",
"900 710 LINE",
"861 708 OFFCURVE",
"814 705 OFFCURVE",
"788 705 CURVE SMOOTH",
"489 705 LINE",
"489 630 LINE",
"748 630 LINE SMOOTH",
"779 630 OFFCURVE",
"839 625 OFFCURVE",
"878 622 CURVE",
"809 679 LINE",
"818 652 OFFCURVE",
"832 601 OFFCURVE",
"832 590 CURVE SMOOTH",
"832 575 OFFCURVE",
"833 557 OFFCURVE",
"833 541 CURVE"
);
}
);
width = 951;
},
{
anchors = (
{
name = bottom;
position = "{578, 0}";
},
{
name = top;
position = "{679, 720}";
}
);
layerId = "3088057A-3552-44D5-8A67-1301E2609A93";
paths = (
{
closed = 1;
nodes = (
"45 -3 OFFCURVE",
"108 0 OFFCURVE",
"133 0 CURVE SMOOTH",
"215 0 LINE",
"227 53 LINE",
"135 68 LINE",
"160 43 LINE",
"168 68 OFFCURVE",
"193 119 OFFCURVE",
"206 139 CURVE SMOOTH",
"483 576 LINE",
"472 576 LINE",
"481 170 LINE SMOOTH",
"482 132 OFFCURVE",
"470 56 OFFCURVE",
"468 33 CURVE",
"506 73 LINE",
"390 42 LINE",
"386 -5 LINE",
"433 -3 OFFCURVE",
"501 0 OFFCURVE",
"528 0 CURVE SMOOTH",
"623 0 LINE",
"588 41 LINE",
"585 54 OFFCURVE",
"576 119 OFFCURVE",
"575 138 CURVE SMOOTH",
"552 705 LINE",
"494 705 LINE",
"154 168 LINE SMOOTH",
"128 126 OFFCURVE",
"74 57 OFFCURVE",
"63 45 CURVE",
"110 69 LINE",
"4 42 LINE",
"1 -5 LINE"
);
},
{
closed = 1;
nodes = (
"489 236 LINE",
"494 288 LINE",
"282 284 LINE",
"251 236 LINE"
);
},
{
closed = 1;
nodes = (
"704 0 LINE SMOOTH",
"731 0 OFFCURVE",
"781 0 OFFCURVE",
"818 0 CURVE",
"835 14 LINE",
"872 163 LINE",
"820 168 LINE",
"815 152 OFFCURVE",
"801 116 OFFCURVE",
"794 100 CURVE SMOOTH",
"788 87 OFFCURVE",
"767 62 OFFCURVE",
"753 44 CURVE",
"783 67 LINE",
"765 63 OFFCURVE",
"720 55 OFFCURVE",
"682 55 CURVE SMOOTH",
"527 55 LINE",
"527 0 LINE"
);
},
{
closed = 1;
nodes = (
"771 261 LINE",
"777 316 OFFCURVE",
"788 380 OFFCURVE",
"801 453 CURVE",
"757 458 LINE",
"725 356 LINE",
"770 393 LINE",
"739 389 OFFCURVE",
"688 383 OFFCURVE",
"677 383 CURVE SMOOTH",
"506 383 LINE",
"506 329 LINE",
"650 329 LINE SMOOTH",
"667 329 OFFCURVE",
"725 324 OFFCURVE",
"761 320 CURVE",
"729 357 LINE",
"724 255 LINE"
);
},
{
closed = 1;
nodes = (
"879 561 LINE",
"892 691 LINE",
"876 709 LINE",
"839 707 OFFCURVE",
"780 704 OFFCURVE",
"764 704 CURVE SMOOTH",
"508 705 LINE",
"508 651 LINE",
"727 650 LINE SMOOTH",
"741 650 OFFCURVE",
"814 644 OFFCURVE",
"830 643 CURVE",
"787 675 LINE",
"802 653 OFFCURVE",
"819 623 OFFCURVE",
"820 611 CURVE SMOOTH",
"821 603 OFFCURVE",
"822 572 OFFCURVE",
"823 556 CURVE"
);
}
);
width = 925.7;
}
);
leftKerningGroup = UC_A;
rightKerningGroup = UC_E;
unicode = 00C6;
},
{
color = 6;
glyphname = B;
layers = (
{
anchors = (
{
name = bottom;
position = "{286, 0}";
},
{
name = top;
position = "{385, 705}";
}
);
color = 6;
layerId = "B953D09C-6DD0-450A-A78C-8C2188DD4016";
paths = (
{
closed = 1;
nodes = (
"59 -3 OFFCURVE",
"127 0 OFFCURVE",
"156 0 CURVE SMOOTH",
"199 0 OFFCURVE",
"281 -5 OFFCURVE",
"323 -5 CURVE SMOOTH",
"460 -5 OFFCURVE",
"583 69 OFFCURVE",
"583 213 CURVE SMOOTH",
"583 313 OFFCURVE",
"503 366 OFFCURVE",
"393 367 CURVE",
"429 308 LINE",
"446 426 LINE",
"398 365 LINE",
"510 373 OFFCURVE",
"605 455 OFFCURVE",
"605 562 CURVE SMOOTH",
"605 657 OFFCURVE",
"515 710 OFFCURVE",
"409 710 CURVE SMOOTH",
"366 710 OFFCURVE",
"276 705 OFFCURVE",
"234 705 CURVE SMOOTH",
"215 705 OFFCURVE",
"155 708 OFFCURVE",
"115 710 CURVE",
"100 640 LINE",
"220 618 LINE",
"164 660 LINE",
"164 644 OFFCURVE",
"165 583 OFFCURVE",
"157 526 CURVE SMOOTH",
"103 156 LINE SMOOTH",
"98 124 OFFCURVE",
"81 66 OFFCURVE",
"73 41 CURVE",
"138 83 LINE",
"14 60 LINE",
"10 -5 LINE"
);
},
{
closed = 1;
nodes = (
"234 65 OFFCURVE",
"240 139 OFFCURVE",
"247 187 CURVE SMOOTH",
"298 541 LINE SMOOTH",
"303 574 OFFCURVE",
"320 636 OFFCURVE",
"326 659 CURVE",
"293 631 LINE",
"306 632 OFFCURVE",
"350 635 OFFCURVE",
"378 635 CURVE SMOOTH",
"434 635 OFFCURVE",
"470 596 OFFCURVE",
"470 546 CURVE SMOOTH",
"470 456 OFFCURVE",
"411 404 OFFCURVE",
"337 404 CURVE SMOOTH",
"331 404 LINE",
"313 324 LINE",
"323 324 LINE SMOOTH",
"387 324 OFFCURVE",
"443 296 OFFCURVE",
"443 220 CURVE SMOOTH",
"443 128 OFFCURVE",
"381 71 OFFCURVE",
"298 71 CURVE SMOOTH",
"271 71 OFFCURVE",
"224 74 OFFCURVE",
"212 76 CURVE",
"234 56 LINE"
);
}
);
width = 638;
},
{
anchors = (
{
name = bottom;
position = "{268, 0}";
},
{
name = top;
position = "{365, 705}";
}
);
layerId = "3088057A-3552-44D5-8A67-1301E2609A93";
paths = (
{
closed = 1;
nodes = (
"54 -3 OFFCURVE",
"118 0 OFFCURVE",
"143 0 CURVE SMOOTH",
"194 0 OFFCURVE",
"262 -5 OFFCURVE",
"313 -5 CURVE SMOOTH",
"437 -5 OFFCURVE",
"537 80 OFFCURVE",
"537 208 CURVE SMOOTH",
"537 304 OFFCURVE",
"466 361 OFFCURVE",
"366 366 CURVE",
"387 329 LINE",
"398 404 LINE",
"369 365 LINE",
"474 380 OFFCURVE",
"559 458 OFFCURVE",
"559 566 CURVE SMOOTH",
"559 656 OFFCURVE",
"477 710 OFFCURVE",
"384 710 CURVE SMOOTH",
"344 710 OFFCURVE",
"269 705 OFFCURVE",
"230 705 CURVE SMOOTH",
"212 705 OFFCURVE",
"153 708 OFFCURVE",
"115 710 CURVE",
"102 658 LINE",
"210 640 LINE",
"177 678 LINE",
"176 651 OFFCURVE",
"176 589 OFFCURVE",
"174 572 CURVE SMOOTH",
"110 135 LINE SMOOTH",
"107 116 OFFCURVE",
"89 55 OFFCURVE",
"82 31 CURVE",
"125 67 LINE",
"11 44 LINE",
"9 -5 LINE"
);
},
{
closed = 1;
nodes = (
"189 53 OFFCURVE",
"196 131 OFFCURVE",
"201 165 CURVE SMOOTH",
"255 538 LINE SMOOTH",
"261 577 OFFCURVE",
"278 647 OFFCURVE",
"282 667 CURVE",
"253 652 LINE",
"296 655 OFFCURVE",
"336 658 OFFCURVE",
"368 658 CURVE SMOOTH",
"430 658 OFFCURVE",
"469 616 OFFCURVE",
"469 554 CURVE SMOOTH",
"469 451 OFFCURVE",
"391 393 OFFCURVE",
"301 393 CURVE SMOOTH",
"294 393 LINE",
"279 338 LINE",
"290 338 LINE SMOOTH",
"373 338 OFFCURVE",
"440 298 OFFCURVE",
"440 211 CURVE SMOOTH",
"440 109 OFFCURVE",
"372 51 OFFCURVE",
"283 51 CURVE SMOOTH",
"238 51 OFFCURVE",
"200 56 OFFCURVE",
"174 60 CURVE",
"191 34 LINE"
);
}
);
width = 596.2;
}
);
leftKerningGroup = UC_Stem;
rightKerningGroup = UC_B;
unicode = 0042;
},
{
color = 6;
glyphname = C;
layers = (
{
anchors = (
{
name = bottom;
position = "{322, 0}";
},
{
name = top;
position = "{456, 720}";
}
);
color = 6;
layerId = "B953D09C-6DD0-450A-A78C-8C2188DD4016";
paths = (
{
closed = 1;
nodes = (
"434 -15 OFFCURVE",
"503 3 OFFCURVE",
"569 19 CURVE",
"585 186 LINE",
"515 184 LINE",
"513 173 OFFCURVE",
"510 155 OFFCURVE",
"505 135 CURVE SMOOTH",
"501 120 OFFCURVE",
"474 65 OFFCURVE",
"459 35 CURVE",
"539 94 LINE",
"479 81 OFFCURVE",
"414 69 OFFCURVE",
"360 69 CURVE SMOOTH",
"263 69 OFFCURVE",
"220 160 OFFCURVE",
"220 279 CURVE SMOOTH",
"220 451 OFFCURVE",
"285 636 OFFCURVE",
"441 636 CURVE SMOOTH",
"494 636 OFFCURVE",
"551 623 OFFCURVE",
"606 612 CURVE",
"543 675 LINE",
"548 642 OFFCURVE",
"557 589 OFFCURVE",
"556 576 CURVE SMOOTH",
"550 519 LINE",
"620 515 LINE",
"657 686 LINE",
"596 702 OFFCURVE",
"535 720 OFFCURVE",
"452 720 CURVE SMOOTH",
"197 720 OFFCURVE",
"60 532 OFFCURVE",
"60 286 CURVE SMOOTH",
"60 107 OFFCURVE",
"159 -15 OFFCURVE",
"352 -15 CURVE SMOOTH"
);
}
);
width = 660;
},
{
anchors = (
{
name = bottom;
position = "{307, 0}";
},
{
name = top;
position = "{448, 720}";
}
);
layerId = "3088057A-3552-44D5-8A67-1301E2609A93";
paths = (
{
closed = 1;
nodes = (
"413 -15 OFFCURVE",
"474 3 OFFCURVE",
"538 19 CURVE",
"554 168 LINE",
"497 166 LINE",
"495 153 OFFCURVE",
"492 135 OFFCURVE",
"489 120 CURVE SMOOTH",
"483 101 OFFCURVE",
"467 61 OFFCURVE",
"455 31 CURVE",
"501 69 LINE",
"447 55 OFFCURVE",
"396 40 OFFCURVE",
"341 40 CURVE SMOOTH",
"226 40 OFFCURVE",
"162 146 OFFCURVE",
"162 283 CURVE SMOOTH",
"162 483 OFFCURVE",
"255 665 OFFCURVE",
"423 665 CURVE SMOOTH",
"475 665 OFFCURVE",
"526 648 OFFCURVE",
"576 634 CURVE",
"540 675 LINE",
"543 646 OFFCURVE",
"548 600 OFFCURVE",
"546 590 CURVE SMOOTH",
"539 544 LINE",
"596 540 LINE",
"626 686 LINE",
"567 702 OFFCURVE",
"511 720 OFFCURVE",
"431 720 CURVE SMOOTH",
"194 720 OFFCURVE",
"64 529 OFFCURVE",
"64 281 CURVE SMOOTH",
"64 105 OFFCURVE",
"160 -15 OFFCURVE",
"334 -15 CURVE SMOOTH"
);
}
);
width = 629.2;
}
);
leftKerningGroup = UC_Round;
rightKerningGroup = UC_C;
unicode = 0043;
},
{
color = 6;
glyphname = D;
layers = (
{
anchors = (
{
name = bottom;
position = "{298, 0}";
},
{
name = center;
position = "{220, 353}";
},
{
name = top;
position = "{406, 720}";
}
);
color = 6;
layerId = "B953D09C-6DD0-450A-A78C-8C2188DD4016";
paths = (
{
closed = 1;
nodes = (
"52 -3 OFFCURVE",
"128 0 OFFCURVE",
"156 0 CURVE SMOOTH",
"215 0 OFFCURVE",
"253 -5 OFFCURVE",
"311 -5 CURVE SMOOTH",
"564 -5 OFFCURVE",
"704 175 OFFCURVE",
"704 416 CURVE SMOOTH",
"704 590 OFFCURVE",
"601 710 OFFCURVE",
"406 710 CURVE SMOOTH",
"363 710 OFFCURVE",
"279 705 OFFCURVE",
"234 705 CURVE SMOOTH",
"212 705 OFFCURVE",
"153 708 OFFCURVE",
"115 710 CURVE",
"100 640 LINE",
"220 618 LINE",
"168 684 LINE",
"165 639 OFFCURVE",
"162 559 OFFCURVE",
"157 526 CURVE SMOOTH",
"103 156 LINE SMOOTH",
"99 129 OFFCURVE",
"82 68 OFFCURVE",
"72 36 CURVE",
"138 83 LINE",
"14 60 LINE",
"10 -5 LINE"
);
},
{
closed = 1;
nodes = (
"234 82 OFFCURVE",
"240 136 OFFCURVE",
"247 186 CURVE SMOOTH",
"298 541 LINE SMOOTH",
"302 567 OFFCURVE",
"319 635 OFFCURVE",
"330 681 CURVE",
"264 629 LINE",
"301 631 OFFCURVE",
"349 633 OFFCURVE",
"390 633 CURVE SMOOTH",
"509 633 OFFCURVE",
"555 536 OFFCURVE",
"555 420 CURVE SMOOTH",
"555 255 OFFCURVE",
"497 72 OFFCURVE",
"308 72 CURVE SMOOTH",
"280 72 OFFCURVE",
"210 76 OFFCURVE",
"187 78 CURVE",
"234 55 LINE"
);
}
);
width = 738;
},
{
anchors = (
{
name = bottom;
position = "{295, 0}";
},
{
name = center;
position = "{193, 353}";
},
{
name = top;
position = "{384, 720}";
}
);
layerId = "3088057A-3552-44D5-8A67-1301E2609A93";
paths = (
{
closed = 1;
nodes = (
"45 -3 OFFCURVE",
"118 0 OFFCURVE",
"143 0 CURVE SMOOTH",
"191 0 OFFCURVE",
"246 -5 OFFCURVE",
"296 -5 CURVE SMOOTH",
"532 -5 OFFCURVE",
"678 171 OFFCURVE",
"678 418 CURVE SMOOTH",
"678 596 OFFCURVE",
"569 710 OFFCURVE",
"380 710 CURVE SMOOTH",
"340 710 OFFCURVE",
"269 705 OFFCURVE",
"230 705 CURVE SMOOTH",
"201 705 OFFCURVE",
"145 708 OFFCURVE",
"115 710 CURVE",
"102 658 LINE",
"210 640 LINE",
"176 675 LINE",
"176 663 OFFCURVE",
"176 591 OFFCURVE",
"174 572 CURVE SMOOTH",
"110 135 LINE SMOOTH",
"106 108 OFFCURVE",
"90 60 OFFCURVE",
"83 34 CURVE",
"125 67 LINE",
"11 44 LINE",
"9 -5 LINE"
);
},
{
closed = 1;
nodes = (
"189 42 OFFCURVE",
"196 129 OFFCURVE",
"201 165 CURVE SMOOTH",
"255 538 LINE SMOOTH",
"260 575 OFFCURVE",
"278 646 OFFCURVE",
"282 662 CURVE",
"253 648 LINE",
"301 652 OFFCURVE",
"359 652 OFFCURVE",
"383 652 CURVE SMOOTH",
"522 652 OFFCURVE",
"584 544 OFFCURVE",
"584 411 CURVE SMOOTH",
"584 223 OFFCURVE",
"495 52 OFFCURVE",
"306 52 CURVE SMOOTH",
"268 52 OFFCURVE",
"180 55 OFFCURVE",
"163 56 CURVE",
"190 29 LINE"
);
}
);
width = 714.9;
}
);
leftKerningGroup = UC_Stem;
rightKerningGroup = UC_Round;
unicode = 0044;
},
{
color = 6;
glyphname = E;
layers = (
{
anchors = (
{
name = bottom;
position = "{269, 0}";
},
{
name = ogonek;
position = "{492, 0}";
},
{
name = top;
position = "{370, 720}";
},
{
name = topleft;
position = "{97, 705}";
}
);
color = 6;
layerId = "B953D09C-6DD0-450A-A78C-8C2188DD4016";
paths = (
{
closed = 1;
nodes = (
"65 -2 OFFCURVE",
"127 0 OFFCURVE",
"156 0 CURVE SMOOTH",
"376 0 LINE SMOOTH",
"403 0 OFFCURVE",
"451 0 OFFCURVE",
"492 0 CURVE",
"507 14 LINE",
"547 184 LINE",
"482 189 LINE",
"478 173 OFFCURVE",
"467 141 OFFCURVE",
"462 130 CURVE SMOOTH",
"456 116 OFFCURVE",
"433 79 OFFCURVE",
"402 44 CURVE",
"460 93 LINE",
"443 89 OFFCURVE",
"402 80 OFFCURVE",
"359 80 CURVE SMOOTH",
"180 80 LINE",
"234 49 LINE",
"234 64 OFFCURVE",
"240 138 OFFCURVE",
"247 186 CURVE SMOOTH",
"275 377 LINE",
"211 322 LINE",
"333 322 LINE SMOOTH",
"352 322 OFFCURVE",
"413 315 OFFCURVE",
"453 310 CURVE",
"397 372 LINE",
"396 254 LINE",
"456 260 LINE",
"463 330 OFFCURVE",
"472 387 OFFCURVE",
"485 466 CURVE",
"428 471 LINE",
"393 349 LINE",
"464 411 LINE",
"417 403 OFFCURVE",
"374 397 OFFCURVE",
"363 397 CURVE SMOOTH",
"221 397 LINE",
"269 342 LINE",
"299 541 LINE SMOOTH",
"303 569 OFFCURVE",
"321 642 OFFCURVE",
"326 664 CURVE",
"261 630 LINE",
"426 630 LINE SMOOTH",
"457 630 OFFCURVE",
"520 625 OFFCURVE",
"556 623 CURVE",
"486 679 LINE",
"496 652 OFFCURVE",
"510 601 OFFCURVE",
"510 591 CURVE SMOOTH",
"510 576 OFFCURVE",
"511 557 OFFCURVE",
"511 541 CURVE",
"578 546 LINE",
"594 692 LINE",
"578 710 LINE",
"540 708 OFFCURVE",
"493 705 OFFCURVE",
"466 705 CURVE SMOOTH",
"234 705 LINE SMOOTH",
"203 705 OFFCURVE",
"155 708 OFFCURVE",
"115 710 CURVE",
"100 640 LINE",
"220 618 LINE",
"166 657 LINE",
"166 645 OFFCURVE",
"162 560 OFFCURVE",
"157 526 CURVE SMOOTH",
"103 156 LINE SMOOTH",
"99 129 OFFCURVE",
"80 62 OFFCURVE",
"71 39 CURVE",
"138 83 LINE",
"14 60 LINE",
"10 -5 LINE"
);
}
);
width = 607;
},
{
anchors = (
{
name = bottom;
position = "{259, 0}";
},
{
name = ogonek;
position = "{467, 0}";
},
{
name = top;
position = "{360, 720}";
},
{
name = topleft;
position = "{94, 705}";
}
);
layerId = "3088057A-3552-44D5-8A67-1301E2609A93";
paths = (
{
closed = 1;
nodes = (
"53 -3 OFFCURVE",
"111 0 OFFCURVE",
"143 0 CURVE SMOOTH",
"353 0 LINE SMOOTH",
"380 0 OFFCURVE",
"430 0 OFFCURVE",
"467 0 CURVE",
"484 14 LINE",
"521 163 LINE",
"469 168 LINE",
"464 152 OFFCURVE",
"451 116 OFFCURVE",
"443 100 CURVE SMOOTH",
"437 86 OFFCURVE",
"417 61 OFFCURVE",
"402 44 CURVE",
"433 67 LINE",
"414 63 OFFCURVE",
"369 55 OFFCURVE",
"332 55 CURVE SMOOTH",
"158 55 LINE",
"190 20 LINE",
"190 50 OFFCURVE",
"196 133 OFFCURVE",
"201 165 CURVE SMOOTH",
"231 374 LINE",
"192 340 LINE",
"320 340 LINE SMOOTH",
"337 340 OFFCURVE",
"394 335 OFFCURVE",
"431 331 CURVE",
"399 368 LINE",
"394 266 LINE",
"441 272 LINE",
"447 327 OFFCURVE",
"458 391 OFFCURVE",
"471 464 CURVE",
"427 469 LINE",
"395 367 LINE",
"440 403 LINE",
"410 400 OFFCURVE",
"358 394 OFFCURVE",
"347 394 CURVE SMOOTH",
"200 394 LINE",
"229 360 LINE",
"255 538 LINE SMOOTH",
"260 573 OFFCURVE",
"280 657 OFFCURVE",
"284 675 CURVE",
"245 651 LINE",
"406 651 LINE SMOOTH",
"420 651 OFFCURVE",
"491 646 OFFCURVE",
"509 644 CURVE",
"466 676 LINE",
"481 654 OFFCURVE",
"498 624 OFFCURVE",
"499 612 CURVE SMOOTH",
"500 604 OFFCURVE",
"501 574 OFFCURVE",
"502 558 CURVE",
"558 563 LINE",
"571 692 LINE",
"555 710 LINE",
"518 708 OFFCURVE",
"459 705 OFFCURVE",
"443 705 CURVE SMOOTH",
"230 705 LINE SMOOTH",
"213 705 OFFCURVE",
"153 708 OFFCURVE",
"115 710 CURVE",
"102 658 LINE",
"210 640 LINE",
"176 666 LINE",
"176 653 OFFCURVE",
"176 591 OFFCURVE",
"174 572 CURVE SMOOTH",
"110 135 LINE SMOOTH",
"107 116 OFFCURVE",
"87 46 OFFCURVE",
"81 23 CURVE",
"125 67 LINE",
"11 44 LINE",
"9 -5 LINE"
);
}
);
width = 583.9;
}
);
leftKerningGroup = UC_Stem;
rightKerningGroup = UC_E;
unicode = 0045;
},
{
color = 6;
glyphname = F;
layers = (
{
anchors = (
{
name = bottom;
position = "{251, 0}";
},
{
name = top;
position = "{352, 720}";
}
);
color = 6;
layerId = "B953D09C-6DD0-450A-A78C-8C2188DD4016";
paths = (
{
closed = 1;
nodes = (
"59 -3 OFFCURVE",
"127 0 OFFCURVE",
"156 0 CURVE SMOOTH",
"293 0 LINE",
"308 66 LINE",
"182 79 LINE",
"238 31 LINE",
"238 63 OFFCURVE",
"238 126 OFFCURVE",
"247 186 CURVE SMOOTH",
"275 377 LINE",
"209 312 LINE",
"331 312 LINE SMOOTH",
"351 312 OFFCURVE",
"411 305 OFFCURVE",
"451 300 CURVE",
"396 362 LINE",
"394 244 LINE",
"454 250 LINE",
"461 317 OFFCURVE",
"471 383 OFFCURVE",
"484 456 CURVE",
"427 461 LINE",
"392 339 LINE",
"463 401 LINE",
"427 395 OFFCURVE",
"374 387 OFFCURVE",
"361 387 CURVE SMOOTH",
"220 387 LINE",
"269 342 LINE",
"298 541 LINE SMOOTH",
"302 570 OFFCURVE",
"321 642 OFFCURVE",
"326 664 CURVE",
"261 630 LINE",
"426 630 LINE SMOOTH",
"457 630 OFFCURVE",
"520 625 OFFCURVE",
"556 623 CURVE",
"486 679 LINE",
"496 652 OFFCURVE",
"510 601 OFFCURVE",
"510 591 CURVE SMOOTH",
"510 576 OFFCURVE",
"511 557 OFFCURVE",
"511 541 CURVE",
"578 546 LINE",
"594 692 LINE",
"578 710 LINE",
"540 708 OFFCURVE",
"493 705 OFFCURVE",
"466 705 CURVE SMOOTH",
"234 705 LINE SMOOTH",
"203 705 OFFCURVE",
"155 708 OFFCURVE",
"115 710 CURVE",
"100 640 LINE",
"220 618 LINE",
"166 657 LINE",
"166 645 OFFCURVE",
"162 560 OFFCURVE",
"157 526 CURVE SMOOTH",
"103 156 LINE SMOOTH",
"99 130 OFFCURVE",
"84 75 OFFCURVE",
"72 42 CURVE",
"138 83 LINE",
"14 60 LINE",
"10 -5 LINE"
);
}
);
width = 579;
},
{
anchors = (
{
name = bottom;
position = "{241, 0}";
},
{
name = top;
position = "{342, 720}";
}
);
layerId = "3088057A-3552-44D5-8A67-1301E2609A93";
paths = (
{
closed = 1;
nodes = (
"54 -3 OFFCURVE",
"118 0 OFFCURVE",
"143 0 CURVE SMOOTH",
"275 0 LINE",
"289 53 LINE",
"158 63 LINE",
"191 31 LINE",
"191 54 OFFCURVE",
"196 134 OFFCURVE",
"201 165 CURVE SMOOTH",
"231 374 LINE",
"189 330 LINE",
"317 330 LINE SMOOTH",
"333 330 OFFCURVE",
"391 325 OFFCURVE",
"428 321 CURVE",
"396 358 LINE",
"391 256 LINE",
"438 262 LINE",
"443 317 OFFCURVE",
"455 381 OFFCURVE",
"468 454 CURVE",
"424 459 LINE",
"392 357 LINE",
"437 393 LINE",
"406 390 OFFCURVE",
"354 384 OFFCURVE",
"343 384 CURVE SMOOTH",
"197 384 LINE",
"229 360 LINE",
"255 538 LINE SMOOTH",
"260 573 OFFCURVE",
"280 657 OFFCURVE",
"284 675 CURVE",
"245 651 LINE",
"406 651 LINE SMOOTH",
"420 651 OFFCURVE",
"491 646 OFFCURVE",
"509 644 CURVE",
"466 676 LINE",
"481 654 OFFCURVE",
"498 624 OFFCURVE",
"499 612 CURVE SMOOTH",
"500 604 OFFCURVE",
"501 574 OFFCURVE",
"502 558 CURVE",
"558 563 LINE",
"571 692 LINE",
"555 710 LINE",
"518 708 OFFCURVE",
"459 705 OFFCURVE",
"443 705 CURVE SMOOTH",
"230 705 LINE SMOOTH",
"213 705 OFFCURVE",
"153 708 OFFCURVE",
"115 710 CURVE",
"102 658 LINE",
"210 640 LINE",
"176 666 LINE",
"176 653 OFFCURVE",
"176 591 OFFCURVE",
"174 572 CURVE SMOOTH",
"110 135 LINE SMOOTH",
"107 116 OFFCURVE",
"88 53 OFFCURVE",
"82 32 CURVE",
"125 67 LINE",
"11 44 LINE",
"9 -5 LINE"
);
}
);
width = 558.1;
}
);
leftKerningGroup = UC_Stem;
rightKerningGroup = UC_F;
unicode = 0046;
},
{
color = 6;
glyphname = Fhook;
layers = (
{
color = 6;
layerId = "B953D09C-6DD0-450A-A78C-8C2188DD4016";
paths = (
{
closed = 1;
nodes = (
"75 -202 OFFCURVE",
"187 -122 OFFCURVE",
"204 -3 CURVE SMOOTH",
"258 377 LINE",
"192 312 LINE",
"314 312 LINE SMOOTH",
"334 312 OFFCURVE",
"394 305 OFFCURVE",
"434 300 CURVE",
"379 362 LINE",
"377 244 LINE",
"437 250 LINE",
"444 317 OFFCURVE",
"454 383 OFFCURVE",
"467 456 CURVE",
"410 461 LINE",
"375 339 LINE",
"446 401 LINE",
"410 395 OFFCURVE",
"357 387 OFFCURVE",
"344 387 CURVE SMOOTH",
"203 387 LINE",
"252 342 LINE",
"281 541 LINE SMOOTH",
"285 570 OFFCURVE",
"304 642 OFFCURVE",
"309 664 CURVE",
"244 630 LINE",
"409 630 LINE SMOOTH",
"440 630 OFFCURVE",
"503 625 OFFCURVE",
"539 623 CURVE",
"469 679 LINE",
"479 652 OFFCURVE",
"493 601 OFFCURVE",
"493 591 CURVE SMOOTH",
"493 576 OFFCURVE",
"494 557 OFFCURVE",
"494 541 CURVE",
"561 546 LINE",
"577 692 LINE",
"561 710 LINE",
"523 708 OFFCURVE",
"476 705 OFFCURVE",
"449 705 CURVE SMOOTH",
"217 705 LINE SMOOTH",
"186 705 OFFCURVE",
"138 708 OFFCURVE",
"98 710 CURVE",
"83 640 LINE",
"203 618 LINE",
"149 657 LINE",
"149 645 OFFCURVE",
"145 560 OFFCURVE",
"140 526 CURVE SMOOTH",
"67 23 LINE SMOOTH",
"55 -58 OFFCURVE",
"26 -109 OFFCURVE",
"-22 -109 CURVE",
"-39 -189 LINE"
);
}
);
width = 557;
},
{
layerId = "3088057A-3552-44D5-8A67-1301E2609A93";
paths = (
{
closed = 1;
nodes = (
"61 -193 OFFCURVE",
"134 -133 OFFCURVE",
"155 6 CURVE SMOOTH",
"210 374 LINE",
"168 330 LINE",
"295 330 LINE SMOOTH",
"312 330 OFFCURVE",
"370 325 OFFCURVE",
"407 321 CURVE",
"375 358 LINE",
"369 256 LINE",
"416 262 LINE",
"422 317 OFFCURVE",
"433 381 OFFCURVE",
"446 454 CURVE",
"402 459 LINE",
"371 357 LINE",
"415 393 LINE",
"385 390 OFFCURVE",
"333 384 OFFCURVE",
"322 384 CURVE SMOOTH",
"176 384 LINE",
"208 360 LINE",
"234 538 LINE SMOOTH",
"239 573 OFFCURVE",
"259 657 OFFCURVE",
"263 675 CURVE",
"223 651 LINE",
"385 651 LINE SMOOTH",
"398 651 OFFCURVE",
"470 646 OFFCURVE",
"487 644 CURVE",
"445 676 LINE",
"459 654 OFFCURVE",
"477 624 OFFCURVE",
"478 612 CURVE SMOOTH",
"479 604 OFFCURVE",
"480 574 OFFCURVE",
"481 558 CURVE",
"537 563 LINE",
"550 692 LINE",
"534 710 LINE",
"497 708 OFFCURVE",
"438 705 OFFCURVE",
"422 705 CURVE SMOOTH",
"208 705 LINE SMOOTH",
"192 705 OFFCURVE",
"131 708 OFFCURVE",
"94 710 CURVE",
"81 658 LINE",
"189 640 LINE",
"155 666 LINE",
"155 653 OFFCURVE",
"155 591 OFFCURVE",
"152 572 CURVE SMOOTH",
"70 11 LINE SMOOTH",
"57 -81 OFFCURVE",
"23 -144 OFFCURVE",
"-62 -144 CURVE",
"-68 -195 LINE"
);
}
);
width = 531;
}
);
leftKerningGroup = UC_J;
rightKerningGroup = UC_F;
rightMetricsKey = F;
unicode = 0191;
},
{
color = 6;
glyphname = G;
layers = (
{
anchors = (
{
name = bottom;
position = "{383, 0}";
},
{
name = center;
position = "{533, 181}";
},
{
name = top;
position = "{459, 720}";
}
);
color = 6;
layerId = "B953D09C-6DD0-450A-A78C-8C2188DD4016";
paths = (
{
closed = 1;
nodes = (
"455 -15 OFFCURVE",
"530 2 OFFCURVE",
"597 19 CURVE",
"622 189 LINE SMOOTH",
"626 217 OFFCURVE",
"640 281 OFFCURVE",
"651 336 CURVE",
"629 359 LINE",
"591 357 OFFCURVE",
"540 356 OFFCURVE",
"525 356 CURVE SMOOTH",
"417 356 LINE",
"400 268 LINE",
"558 255 LINE",
"501 316 LINE",
"504 239 OFFCURVE",
"503 209 OFFCURVE",
"502 196 CURVE SMOOTH",
"477 26 LINE",
"519 88 LINE",
"478 79 OFFCURVE",
"424 69 OFFCURVE",
"376 69 CURVE SMOOTH",
"267 69 OFFCURVE",
"220 163 OFFCURVE",
"220 284 CURVE SMOOTH",
"220 460 OFFCURVE",
"291 636 OFFCURVE",
"457 636 CURVE SMOOTH",
"506 636 OFFCURVE",
"562 626 OFFCURVE",
"614 609 CURVE",
"572 648 LINE",
"576 630 OFFCURVE",
"584 588 OFFCURVE",
"583 576 CURVE SMOOTH",
"577 519 LINE",
"648 515 LINE",
"684 686 LINE",
"623 702 OFFCURVE",
"550 720 OFFCURVE",
"467 720 CURVE SMOOTH",
"202 720 OFFCURVE",
"60 534 OFFCURVE",
"60 289 CURVE SMOOTH",
"60 108 OFFCURVE",
"164 -15 OFFCURVE",
"367 -15 CURVE SMOOTH"
);
}
);
width = 706;
},
{
anchors = (
{
name = bottom;
position = "{351, 0}";
},
{
name = center;
position = "{511, 181}";
},
{
name = top;
position = "{444, 720}";
}
);
layerId = "3088057A-3552-44D5-8A67-1301E2609A93";
paths = (
{
closed = 1;
nodes = (
"433 -15 OFFCURVE",
"498 3 OFFCURVE",
"566 19 CURVE",
"587 164 LINE SMOOTH",
"590 184 OFFCURVE",
"608 267 OFFCURVE",
"618 317 CURVE",
"604 334 LINE",
"581 333 OFFCURVE",
"550 331 OFFCURVE",
"536 331 CURVE SMOOTH",
"428 331 LINE",
"415 276 LINE",
"550 265 LINE",
"516 302 LINE",
"517 281 OFFCURVE",
"518 207 OFFCURVE",
"516 196 CURVE SMOOTH",
"489 29 LINE",
"515 69 LINE",
"469 55 OFFCURVE",
"402 40 OFFCURVE",
"355 40 CURVE SMOOTH",
"227 40 OFFCURVE",
"160 148 OFFCURVE",
"160 287 CURVE SMOOTH",
"160 486 OFFCURVE",
"257 665 OFFCURVE",
"435 665 CURVE SMOOTH",
"484 665 OFFCURVE",
"547 649 OFFCURVE",
"590 633 CURVE",
"565 667 LINE",
"571 643 OFFCURVE",
"575 601 OFFCURVE",
"574 590 CURVE SMOOTH",
"568 547 LINE",
"623 540 LINE",
"654 686 LINE",
"592 702 OFFCURVE",
"531 720 OFFCURVE",
"446 720 CURVE SMOOTH",
"199 720 OFFCURVE",
"63 531 OFFCURVE",
"63 284 CURVE SMOOTH",
"63 106 OFFCURVE",
"164 -15 OFFCURVE",
"349 -15 CURVE SMOOTH"
);
}
);
width = 675.2;
}
);
leftKerningGroup = UC_Round;
rightKerningGroup = UP_G;
unicode = 0047;
},
{
color = 3;
glyphname = Gstroke;
layers = (
{
anchors = (
{
name = bottom;
position = "{383, 0}";
},
{
name = center;
position = "{533, 181}";
},
{
name = top;
position = "{459, 720}";
}
);
color = 3;
components = (
{
name = barcomp;
transform = "{1, 0, 0, 1, 175, -408}";
}
);
layerId = "B953D09C-6DD0-450A-A78C-8C2188DD4016";
paths = (
{
closed = 1;
nodes = (
"455 -15 OFFCURVE",
"530 2 OFFCURVE",
"597 19 CURVE",
"625 209 LINE SMOOTH",
"629 237 OFFCURVE",
"643 301 OFFCURVE",
"654 356 CURVE",
"632 379 LINE",
"594 377 OFFCURVE",
"543 376 OFFCURVE",
"528 376 CURVE SMOOTH",
"420 376 LINE",
"404 288 LINE",
"558 275 LINE",
"501 316 LINE",
"504 239 OFFCURVE",
"503 209 OFFCURVE",
"502 196 CURVE SMOOTH",
"477 26 LINE",
"519 88 LINE",
"478 79 OFFCURVE",
"424 69 OFFCURVE",
"376 69 CURVE SMOOTH",
"267 69 OFFCURVE",
"220 163 OFFCURVE",
"220 284 CURVE SMOOTH",
"220 460 OFFCURVE",
"291 636 OFFCURVE",
"457 636 CURVE SMOOTH",
"506 636 OFFCURVE",
"562 626 OFFCURVE",
"614 609 CURVE",
"572 648 LINE",
"576 630 OFFCURVE",
"584 588 OFFCURVE",
"583 576 CURVE SMOOTH",
"577 519 LINE",
"648 515 LINE",
"684 686 LINE",
"623 702 OFFCURVE",
"550 720 OFFCURVE",
"467 720 CURVE SMOOTH",
"202 720 OFFCURVE",
"60 534 OFFCURVE",
"60 289 CURVE SMOOTH",
"60 108 OFFCURVE",
"164 -15 OFFCURVE",
"367 -15 CURVE SMOOTH"
);
}
);
width = 734;
},
{
anchors = (
{
name = bottom;
position = "{351, 0}";
},
{
name = center;
position = "{511, 181}";
},
{
name = top;
position = "{444, 720}";
}
);
components = (
{
alignment = -1;
name = barcomp;
transform = "{1, 0, 0, 1, 243, -426}";
}
);
layerId = "3088057A-3552-44D5-8A67-1301E2609A93";
paths = (
{
closed = 1;
nodes = (
"433 -15 OFFCURVE",
"498 3 OFFCURVE",
"566 19 CURVE",
"587 162 LINE SMOOTH",
"589 182 OFFCURVE",
"608 265 OFFCURVE",
"618 315 CURVE",
"603 332 LINE",
"581 331 OFFCURVE",
"550 329 OFFCURVE",
"536 329 CURVE SMOOTH",
"428 329 LINE",
"415 274 LINE",
"550 263 LINE",
"516 302 LINE",
"517 281 OFFCURVE",
"518 207 OFFCURVE",
"516 196 CURVE SMOOTH",
"489 29 LINE",
"515 69 LINE",
"469 55 OFFCURVE",
"402 40 OFFCURVE",
"355 40 CURVE SMOOTH",
"227 40 OFFCURVE",
"160 148 OFFCURVE",
"160 287 CURVE SMOOTH",
"160 486 OFFCURVE",
"257 665 OFFCURVE",
"435 665 CURVE SMOOTH",
"484 665 OFFCURVE",
"547 649 OFFCURVE",
"590 633 CURVE",
"565 667 LINE",
"571 643 OFFCURVE",
"575 601 OFFCURVE",
"574 590 CURVE SMOOTH",
"568 547 LINE",
"623 540 LINE",
"654 686 LINE",
"592 702 OFFCURVE",
"531 720 OFFCURVE",
"446 720 CURVE SMOOTH",
"199 720 OFFCURVE",
"63 531 OFFCURVE",
"63 284 CURVE SMOOTH",
"63 106 OFFCURVE",
"164 -15 OFFCURVE",
"349 -15 CURVE SMOOTH"
);
}
);
width = 731.8;
}
);
leftKerningGroup = UC_Round;
rightKerningGroup = UC_G;
unicode = 01E4;
},
{
color = 6;
glyphname = H;
layers = (
{
anchors = (
{
name = bottom;
position = "{361, 0}";
},
{
name = center;
position = "{433, 520}";
},
{
name = top;
position = "{462, 720}";
},
{
name = topleft;
position = "{97, 705}";
}
);
color = 6;
layerId = "B953D09C-6DD0-450A-A78C-8C2188DD4016";
paths = (
{
closed = 1;
nodes = (
"476 -3 OFFCURVE",
"545 0 OFFCURVE",
"574 0 CURVE SMOOTH",
"708 0 LINE",
"723 66 LINE",
"599 79 LINE",
"656 39 LINE",
"655 62 OFFCURVE",
"656 132 OFFCURVE",
"664 186 CURVE SMOOTH",
"715 541 LINE SMOOTH",
"720 575 OFFCURVE",
"741 645 OFFCURVE",
"747 666 CURVE",
"681 623 LINE",
"804 635 LINE",
"810 710 LINE",
"757 708 OFFCURVE",
"695 705 OFFCURVE",
"651 705 CURVE SMOOTH",
"632 705 OFFCURVE",
"572 708 OFFCURVE",
"533 710 CURVE",
"517 640 LINE",
"637 618 LINE",
"581 666 LINE",
"581 640 OFFCURVE",
"582 575 OFFCURVE",
"575 526 CURVE SMOOTH",
"520 156 LINE SMOOTH",
"517 134 OFFCURVE",
"499 71 OFFCURVE",
"492 47 CURVE",
"556 83 LINE",
"432 60 LINE",
"427 -5 LINE"
);
},
{
closed = 1;
nodes = (
"59 -3 OFFCURVE",
"127 0 OFFCURVE",
"156 0 CURVE SMOOTH",
"291 0 LINE",
"305 66 LINE",
"182 79 LINE",
"238 39 LINE",
"238 59 OFFCURVE",
"239 130 OFFCURVE",
"247 186 CURVE SMOOTH",
"298 541 LINE SMOOTH",
"303 574 OFFCURVE",
"322 639 OFFCURVE",
"329 666 CURVE",
"263 623 LINE",
"387 635 LINE",
"393 710 LINE",
"340 708 OFFCURVE",
"277 705 OFFCURVE",
"234 705 CURVE SMOOTH",
"215 705 OFFCURVE",
"155 708 OFFCURVE",
"115 710 CURVE",
"100 640 LINE",
"220 618 LINE",
"164 666 LINE",
"164 641 OFFCURVE",
"164 573 OFFCURVE",
"157 526 CURVE SMOOTH",
"103 156 LINE SMOOTH",
"99 130 OFFCURVE",
"82 73 OFFCURVE",
"75 47 CURVE",
"138 83 LINE",
"14 60 LINE",
"10 -5 LINE"
);
},
{
closed = 1;
nodes = (
"568 308 LINE",
"580 391 LINE",
"251 386 LINE",
"240 308 LINE"
);
}
);
width = 796;
},
{
anchors = (
{
name = bottom;
position = "{340, 0}";
},
{
name = center;
position = "{413, 520}";
},
{
name = top;
position = "{441, 720}";
},
{
name = topleft;
position = "{94, 705}";
}
);
layerId = "3088057A-3552-44D5-8A67-1301E2609A93";
paths = (
{
closed = 1;
nodes = (
"462 -3 OFFCURVE",
"526 0 OFFCURVE",
"551 0 CURVE SMOOTH",
"673 0 LINE",
"687 53 LINE",
"566 63 LINE",
"600 27 LINE",
"598 59 OFFCURVE",
"604 130 OFFCURVE",
"609 165 CURVE SMOOTH",
"663 538 LINE SMOOTH",
"669 579 OFFCURVE",
"687 656 OFFCURVE",
"694 681 CURVE",
"651 643 LINE",
"762 653 LINE",
"767 710 LINE",
"724 708 OFFCURVE",
"671 705 OFFCURVE",
"638 705 CURVE SMOOTH",
"620 705 OFFCURVE",
"561 708 OFFCURVE",
"523 710 CURVE",
"510 658 LINE",
"618 640 LINE",
"584 681 LINE",
"585 658 OFFCURVE",
"584 589 OFFCURVE",
"582 572 CURVE SMOOTH",
"518 135 LINE SMOOTH",
"515 115 OFFCURVE",
"496 49 OFFCURVE",
"489 22 CURVE",
"533 67 LINE",
"419 44 LINE",
"417 -5 LINE"
);
},
{
closed = 1;
nodes = (
"54 -3 OFFCURVE",
"118 0 OFFCURVE",
"143 0 CURVE SMOOTH",
"265 0 LINE",
"279 53 LINE",
"158 63 LINE",
"192 27 LINE",
"190 59 OFFCURVE",
"196 130 OFFCURVE",
"201 165 CURVE SMOOTH",
"255 538 LINE SMOOTH",
"261 580 OFFCURVE",
"279 657 OFFCURVE",
"286 681 CURVE",
"243 643 LINE",
"354 653 LINE",
"359 710 LINE",
"316 708 OFFCURVE",
"263 705 OFFCURVE",
"230 705 CURVE SMOOTH",
"212 705 OFFCURVE",
"153 708 OFFCURVE",
"115 710 CURVE",
"102 658 LINE",
"210 640 LINE",
"176 681 LINE",
"177 658 OFFCURVE",
"176 590 OFFCURVE",
"174 572 CURVE SMOOTH",
"110 135 LINE SMOOTH",
"107 116 OFFCURVE",
"88 49 OFFCURVE",
"81 22 CURVE",
"125 67 LINE",
"11 44 LINE",
"9 -5 LINE"
);
},
{
closed = 1;
nodes = (
"571 329 LINE",
"579 382 LINE",
"206 377 LINE",
"198 329 LINE"
);
}
);
width = 753.1;
}
);
leftKerningGroup = UC_Stem;
rightKerningGroup = UC_Stem;
unicode = 0048;
},
{
color = 6;
glyphname = I;
layers = (
{
anchors = (
{
name = bottom;
position = "{153, 0}";
},
{
name = ogonek;
position = "{294, 10}";
},
{
name = top;
position = "{254, 720}";
},
{
name = topleft;
position = "{97, 705}";
}
);
color = 6;
layerId = "B953D09C-6DD0-450A-A78C-8C2188DD4016";
paths = (
{
closed = 1;
nodes = (
"59 -3 OFFCURVE",
"127 0 OFFCURVE",
"156 0 CURVE SMOOTH",
"291 0 LINE",
"305 66 LINE",
"182 79 LINE",
"238 39 LINE",
"238 59 OFFCURVE",
"239 130 OFFCURVE",
"247 186 CURVE SMOOTH",
"298 541 LINE SMOOTH",
"303 574 OFFCURVE",
"322 639 OFFCURVE",
"329 666 CURVE",
"263 623 LINE",
"387 635 LINE",
"393 710 LINE",
"340 708 OFFCURVE",
"277 705 OFFCURVE",
"234 705 CURVE SMOOTH",
"215 705 OFFCURVE",
"155 708 OFFCURVE",
"115 710 CURVE",
"100 640 LINE",
"220 618 LINE",
"164 666 LINE",
"164 641 OFFCURVE",
"164 573 OFFCURVE",
"157 526 CURVE SMOOTH",
"103 156 LINE SMOOTH",
"99 130 OFFCURVE",
"82 73 OFFCURVE",
"75 47 CURVE",
"138 83 LINE",
"14 60 LINE",
"10 -5 LINE"
);
}
);
width = 378;
},
{
anchors = (
{
name = bottom;
position = "{137, 0}";
},
{
name = ogonek;
position = "{268, 10}";
},
{
name = top;
position = "{238, 720}";
},
{
name = topleft;
position = "{94, 705}";
}
);
layerId = "3088057A-3552-44D5-8A67-1301E2609A93";
paths = (
{
closed = 1;
nodes = (
"54 -3 OFFCURVE",
"118 0 OFFCURVE",
"143 0 CURVE SMOOTH",
"265 0 LINE",
"279 53 LINE",
"158 63 LINE",
"192 27 LINE",
"190 59 OFFCURVE",
"196 130 OFFCURVE",
"201 165 CURVE SMOOTH",
"255 538 LINE SMOOTH",
"261 580 OFFCURVE",
"279 657 OFFCURVE",
"286 681 CURVE",
"243 643 LINE",
"354 653 LINE",
"359 710 LINE",
"316 708 OFFCURVE",
"263 705 OFFCURVE",
"230 705 CURVE SMOOTH",
"212 705 OFFCURVE",
"153 708 OFFCURVE",
"115 710 CURVE",
"102 658 LINE",
"210 640 LINE",
"176 681 LINE",
"177 658 OFFCURVE",
"176 590 OFFCURVE",
"174 572 CURVE SMOOTH",
"110 135 LINE SMOOTH",
"107 116 OFFCURVE",
"88 49 OFFCURVE",
"81 22 CURVE",
"125 67 LINE",
"11 44 LINE",
"9 -5 LINE"
);
}
);
width = 345;
}
);
leftKerningGroup = UC_Stem;
rightKerningGroup = UC_Stem;
unicode = 0049;
},
{
color = 3;
glyphname = Iogonek;
layers = (
{
color = 3;
components = (
{
name = ogonekcomb;
transform = "{1, 0, 0, 1, -28, 0}";
}
);
layerId = "B953D09C-6DD0-450A-A78C-8C2188DD4016";
paths = (
{
closed = 1;
nodes = (
"72 -55 OFFCURVE",
"119 0 OFFCURVE",
"149 0 CURVE SMOOTH",
"287 0 LINE",
"302 70 LINE",
"178 84 LINE",
"241 42 LINE",
"241 63 OFFCURVE",
"241 132 OFFCURVE",
"250 193 CURVE SMOOTH",
"300 542 LINE SMOOTH",
"304 572 OFFCURVE",
"325 639 OFFCURVE",
"331 661 CURVE",
"258 617 LINE",
"385 629 LINE",
"392 710 LINE",
"336 708 OFFCURVE",
"270 705 OFFCURVE",
"224 705 CURVE SMOOTH",
"204 705 OFFCURVE",
"144 708 OFFCURVE",
"104 710 CURVE",
"88 635 LINE",
"211 611 LINE",
"149 661 LINE",
"149 639 OFFCURVE",
"150 571 OFFCURVE",
"141 512 CURVE SMOOTH",
"90 163 LINE SMOOTH",
"82 112 OFFCURVE",
"70 74 OFFCURVE",
"22 -57 CURVE"
);
}
);
width = 376;
},
{
components = (
{
alignment = -1;
name = ogonekcomb;
transform = "{1, 0, 0, 1, -45, 1}";
}
);
layerId = "3088057A-3552-44D5-8A67-1301E2609A93";
paths = (
{
closed = 1;
nodes = (
"76 -6 OFFCURVE",
"98 0 OFFCURVE",
"123 0 CURVE SMOOTH",
"244 0 LINE",
"258 52 LINE",
"137 62 LINE",
"171 27 LINE",
"168 59 OFFCURVE",
"175 130 OFFCURVE",
"180 164 CURVE SMOOTH",
"234 538 LINE SMOOTH",
"239 575 OFFCURVE",
"257 653 OFFCURVE",
"265 682 CURVE",
"223 643 LINE",
"333 653 LINE",
"338 710 LINE",
"295 708 OFFCURVE",
"243 705 OFFCURVE",
"210 705 CURVE SMOOTH",
"192 705 OFFCURVE",
"133 708 OFFCURVE",
"95 710 CURVE",
"83 658 LINE",
"190 641 LINE",
"157 682 LINE",
"158 658 OFFCURVE",
"157 590 OFFCURVE",
"154 574 CURVE SMOOTH",
"90 134 LINE SMOOTH",
"88 119 OFFCURVE",
"81 93 OFFCURVE",
"48 -24 CURVE"
);
}
);
width = 324.3;
}
);
leftKerningGroup = UC_Stem;
rightKerningGroup = UC_Stem;
unicode = 012E;
},
{
color = 6;
glyphname = J;
layers = (
{
anchors = (
{
name = bottom;
position = "{142, 0}";
},
{
name = top;
position = "{228, 705}";
}
);
color = 6;
layerId = "B953D09C-6DD0-450A-A78C-8C2188DD4016";
paths = (
{
closed = 1;
nodes = (
"106 -119 OFFCURVE",
"199 -26 OFFCURVE",
"204 5 CURVE SMOOTH",
"282 541 LINE",
"287 574 OFFCURVE",
"306 639 OFFCURVE",
"313 666 CURVE",
"247 623 LINE",
"371 635 LINE",
"377 710 LINE",
"324 708 OFFCURVE",
"261 705 OFFCURVE",
"218 705 CURVE SMOOTH",
"199 705 OFFCURVE",
"139 708 OFFCURVE",
"99 710 CURVE",
"84 640 LINE",
"204 618 LINE",
"148 666 LINE",
"148 646 OFFCURVE",
"149 576 OFFCURVE",
"141 526 CURVE",
"66 11 LINE SMOOTH",
"63 -9 OFFCURVE",
"-35 -171 OFFCURVE",
"-35 -171 CURVE",
"10 -200 LINE"
);
}
);
width = 353;
},
{
anchors = (
{
name = bottom;
position = "{121, 0}";
},
{
name = top;
position = "{207, 705}";
}
);
layerId = "3088057A-3552-44D5-8A67-1301E2609A93";
paths = (
{
closed = 1;
nodes = (
"47 -147 OFFCURVE",
"151 -38 OFFCURVE",
"155 -12 CURVE SMOOTH",
"235 538 LINE SMOOTH",
"241 580 OFFCURVE",
"259 657 OFFCURVE",
"266 681 CURVE",
"223 643 LINE",
"334 653 LINE",
"339 710 LINE",
"295 708 OFFCURVE",
"242 705 OFFCURVE",
"209 705 CURVE SMOOTH",
"191 705 OFFCURVE",
"132 708 OFFCURVE",
"95 710 CURVE",
"82 658 LINE",
"190 640 LINE",
"156 681 LINE",
"157 657 OFFCURVE",
"156 589 OFFCURVE",
"153 572 CURVE SMOOTH",
"72 11 LINE SMOOTH",
"69 -9 OFFCURVE",
"-34 -179 OFFCURVE",
"-34 -179 CURVE",
"-4 -200 LINE"
);
}
);
width = 314.5;
}
);
leftKerningGroup = UP_J;
rightKerningGroup = UC_N;
unicode = 004A;
},
{
color = 6;
glyphname = K;
layers = (
{
anchors = (
{
name = bottom;
position = "{339, 0}";
},
{
name = top;
position = "{440, 720}";
}
);
color = 6;
layerId = "B953D09C-6DD0-450A-A78C-8C2188DD4016";
paths = (
{
closed = 1;
nodes = (
"444 -3 OFFCURVE",
"512 0 OFFCURVE",
"541 0 CURVE SMOOTH",
"678 0 LINE",
"693 67 LINE",
"588 81 LINE",
"663 54 LINE",
"652 62 OFFCURVE",
"610 108 OFFCURVE",
"595 129 CURVE SMOOTH",
"400 414 LINE",
"393 327 LINE",
"583 546 LINE SMOOTH",
"602 568 OFFCURVE",
"665 625 OFFCURVE",
"696 649 CURVE",
"616 622 LINE",
"732 635 LINE",
"738 710 LINE",
"693 708 OFFCURVE",
"639 705 OFFCURVE",
"604 705 CURVE SMOOTH",
"584 705 OFFCURVE",
"527 708 OFFCURVE",
"489 710 CURVE",
"473 640 LINE",
"562 621 LINE",
"528 663 LINE",
"500 619 OFFCURVE",
"484 596 OFFCURVE",
"469 577 CURVE SMOOTH",
"277 353 LINE",
"396 164 LINE SMOOTH",
"413 137 OFFCURVE",
"446 62 OFFCURVE",
"449 55 CURVE",
"498 81 LINE",
"399 60 LINE",
"395 -5 LINE"
);
},
{
closed = 1;
nodes = (
"59 -3 OFFCURVE",
"127 0 OFFCURVE",
"156 0 CURVE SMOOTH",
"291 0 LINE",
"305 66 LINE",
"182 79 LINE",
"238 39 LINE",
"238 59 OFFCURVE",
"239 130 OFFCURVE",
"247 186 CURVE SMOOTH",
"298 541 LINE SMOOTH",
"303 574 OFFCURVE",
"322 639 OFFCURVE",
"329 666 CURVE",
"263 623 LINE",
"387 635 LINE",
"393 710 LINE",
"340 708 OFFCURVE",
"277 705 OFFCURVE",
"234 705 CURVE SMOOTH",
"215 705 OFFCURVE",
"155 708 OFFCURVE",
"115 710 CURVE",
"100 640 LINE",
"220 618 LINE",
"164 666 LINE",
"164 641 OFFCURVE",
"164 573 OFFCURVE",
"157 526 CURVE SMOOTH",
"103 156 LINE SMOOTH",
"99 130 OFFCURVE",
"82 73 OFFCURVE",
"75 47 CURVE",
"138 83 LINE",
"14 60 LINE",
"10 -5 LINE"
);
}
);
width = 750;
},
{
anchors = (
{
name = bottom;
position = "{309, 0}";
},
{
name = top;
position = "{410, 720}";
}
);
layerId = "3088057A-3552-44D5-8A67-1301E2609A93";
paths = (
{
closed = 1;
nodes = (
"406 -3 OFFCURVE",
"470 0 OFFCURVE",
"495 0 CURVE SMOOTH",
"622 0 LINE",
"636 53 LINE",
"534 63 LINE",
"581 47 LINE",
"565 63 OFFCURVE",
"517 109 OFFCURVE",
"503 129 CURVE SMOOTH",
"321 388 LINE",
"309 345 LINE",
"494 546 LINE SMOOTH",
"511 564 OFFCURVE",
"585 633 OFFCURVE",
"614 655 CURVE",
"568 643 LINE",
"677 653 LINE",
"681 710 LINE",
"639 708 OFFCURVE",
"588 705 OFFCURVE",
"557 705 CURVE SMOOTH",
"537 705 OFFCURVE",
"490 708 OFFCURVE",
"456 710 CURVE",
"443 658 LINE",
"529 639 LINE",
"516 676 LINE",
"495 644 OFFCURVE",
"459 589 OFFCURVE",
"447 577 CURVE SMOOTH",
"237 353 LINE",
"370 164 LINE SMOOTH",
"388 138 OFFCURVE",
"422 60 OFFCURVE",
"428 46 CURVE",
"456 66 LINE",
"363 44 LINE",
"361 -5 LINE"
);
},
{
closed = 1;
nodes = (
"54 -3 OFFCURVE",
"118 0 OFFCURVE",
"143 0 CURVE SMOOTH",
"265 0 LINE",
"279 53 LINE",
"158 63 LINE",
"192 27 LINE",
"190 59 OFFCURVE",
"196 130 OFFCURVE",
"201 165 CURVE SMOOTH",
"255 538 LINE SMOOTH",
"261 580 OFFCURVE",
"279 657 OFFCURVE",
"286 681 CURVE",
"243 643 LINE",
"354 653 LINE",
"359 710 LINE",
"316 708 OFFCURVE",
"263 705 OFFCURVE",
"230 705 CURVE SMOOTH",
"212 705 OFFCURVE",
"153 708 OFFCURVE",
"115 710 CURVE",
"102 658 LINE",
"210 640 LINE",
"176 681 LINE",
"177 658 OFFCURVE",
"176 590 OFFCURVE",
"174 572 CURVE SMOOTH",
"110 135 LINE SMOOTH",
"107 116 OFFCURVE",
"88 49 OFFCURVE",
"81 22 CURVE",
"125 67 LINE",
"11 44 LINE",
"9 -5 LINE"
);
}
);
width = 693.9;
}
);
leftKerningGroup = UC_Stem;
rightKerningGroup = UC_K;
unicode = 004B;
},
{
color = 6;
glyphname = L;
layers = (
{
anchors = (
{
name = bottom;
position = "{275, 0}";
},
{
name = center;
position = "{207, 355}";
},
{
name = centerright;
position = "{478, 403}";
},
{
name = top;
position = "{294, 720}";
},
{
name = topright;
position = "{494, 494}";
}
);
color = 6;
layerId = "B953D09C-6DD0-450A-A78C-8C2188DD4016";
paths = (
{
closed = 1;
nodes = (
"59 -3 OFFCURVE",
"103 0 OFFCURVE",
"132 0 CURVE SMOOTH",
"352 0 LINE SMOOTH",
"377 0 OFFCURVE",
"425 -2 OFFCURVE",
"462 -4 CURVE",
"483 14 LINE",
"522 184 LINE",
"458 189 LINE",
"450 162 OFFCURVE",
"445 149 OFFCURVE",
"437 129 CURVE SMOOTH",
"429 110 OFFCURVE",
"409 79 OFFCURVE",
"378 44 CURVE",
"436 93 LINE",
"419 89 OFFCURVE",
"377 80 OFFCURVE",
"335 80 CURVE SMOOTH",
"162 80 LINE",
"238 39 LINE",
"238 59 OFFCURVE",
"239 130 OFFCURVE",
"247 186 CURVE SMOOTH",
"298 541 LINE SMOOTH",
"303 574 OFFCURVE",
"322 639 OFFCURVE",
"329 666 CURVE",
"263 623 LINE",
"387 635 LINE",
"393 710 LINE",
"340 708 OFFCURVE",
"277 705 OFFCURVE",
"234 705 CURVE SMOOTH",
"215 705 OFFCURVE",
"155 708 OFFCURVE",
"115 710 CURVE",
"100 640 LINE",
"220 618 LINE",
"164 666 LINE",
"164 641 OFFCURVE",
"164 573 OFFCURVE",
"157 526 CURVE SMOOTH",
"103 156 LINE SMOOTH",
"99 130 OFFCURVE",
"82 73 OFFCURVE",
"75 47 CURVE",
"138 83 LINE",
"14 60 LINE",
"10 -5 LINE"
);
}
);
width = 567;
},
{
anchors = (
{
name = bottom;
position = "{246, 0}";
},
{
name = center;
position = "{188, 355}";
},
{
name = centerright;
position = "{475, 403}";
},
{
name = top;
position = "{291, 720}";
},
{
name = topright;
position = "{465, 494}";
}
);
layerId = "3088057A-3552-44D5-8A67-1301E2609A93";
paths = (
{
closed = 1;
nodes = (
"54 -3 OFFCURVE",
"92 0 OFFCURVE",
"117 0 CURVE SMOOTH",
"327 0 LINE SMOOTH",
"354 0 OFFCURVE",
"400 -2 OFFCURVE",
"437 -4 CURVE",
"458 14 LINE",
"495 163 LINE",
"443 168 LINE",
"438 153 OFFCURVE",
"424 115 OFFCURVE",
"417 100 CURVE SMOOTH",
"411 87 OFFCURVE",
"390 61 OFFCURVE",
"376 44 CURVE",
"406 67 LINE",
"388 63 OFFCURVE",
"343 55 OFFCURVE",
"305 55 CURVE SMOOTH",
"160 55 LINE",
"192 27 LINE",
"190 59 OFFCURVE",
"196 130 OFFCURVE",
"201 165 CURVE SMOOTH",
"255 538 LINE SMOOTH",
"261 580 OFFCURVE",
"279 657 OFFCURVE",
"286 681 CURVE",
"243 643 LINE",
"354 653 LINE",
"359 710 LINE",
"316 708 OFFCURVE",
"263 705 OFFCURVE",
"230 705 CURVE SMOOTH",
"212 705 OFFCURVE",
"153 708 OFFCURVE",
"115 710 CURVE",
"102 658 LINE",
"210 640 LINE",
"176 681 LINE",
"177 658 OFFCURVE",
"176 590 OFFCURVE",
"174 572 CURVE SMOOTH",
"110 135 LINE SMOOTH",
"107 116 OFFCURVE",
"88 49 OFFCURVE",
"81 22 CURVE",
"125 67 LINE",
"11 44 LINE",
"9 -5 LINE"
);
}
);
width = 542.8;
}
);
leftKerningGroup = UC_Stem;
rightKerningGroup = UC_L;
unicode = 004C;
},
{
color = 6;
glyphname = M;
layers = (
{
anchors = (
{
name = bottom;
position = "{438.672, 0}";
},
{
name = top;
position = "{525.235, 705}";
}
);
color = 6;
layerId = "B953D09C-6DD0-450A-A78C-8C2188DD4016";
paths = (
{
closed = 1;
nodes = (
"46 -3 OFFCURVE",
"105 0 OFFCURVE",
"133 0 CURVE SMOOTH",
"246 0 LINE",
"260 66 LINE",
"138 79 LINE",
"195 39 LINE",
"195 62 OFFCURVE",
"197 134 OFFCURVE",
"205 187 CURVE",
"285 590 LINE",
"264 590 LINE",
"377 0 LINE",
"456 0 LINE",
"744 586 LINE",
"725 591 LINE",
"681 157 LINE SMOOTH",
"679 134 OFFCURVE",
"662 72 OFFCURVE",
"655 47 CURVE",
"711 83 LINE",
"594 60 LINE",
"590 -5 LINE",
"638 -3 OFFCURVE",
"701 0 OFFCURVE",
"729 0 CURVE SMOOTH",
"863 0 LINE",
"878 66 LINE",
"755 79 LINE",
"815 39 LINE",
"813 62 OFFCURVE",
"808 141 OFFCURVE",
"811 186 CURVE SMOOTH",
"837 541 LINE SMOOTH",
"840 575 OFFCURVE",
"856 643 OFFCURVE",
"865 672 CURVE",
"797 623 LINE",
"920 635 LINE",
"927 710 LINE",
"873 708 OFFCURVE",
"801 705 OFFCURVE",
"767 705 CURVE SMOOTH",
"709 705 LINE",
"687 685 LINE",
"625 546 LINE",
"438 159 LINE",
"472 154 LINE",
"405 533 LINE",
"383 685 LINE",
"368 705 LINE",
"255 705 LINE SMOOTH",
"235 705 OFFCURVE",
"176 708 OFFCURVE",
"136 710 CURVE",
"121 640 LINE",
"240 618 LINE",
"184 672 LINE",
"184 654 OFFCURVE",
"189 581 OFFCURVE",
"177 526 CURVE SMOOTH",
"100 157 LINE",
"96 133 OFFCURVE",
"77 73 OFFCURVE",
"69 47 CURVE",
"133 83 LINE",
"9 60 LINE",
"5 -5 LINE"
);
}
);
width = 935;
},
{
anchors = (
{
name = bottom;
position = "{431, 0}";
},
{
name = top;
position = "{517, 705}";
}
);
layerId = "3088057A-3552-44D5-8A67-1301E2609A93";
paths = (
{
closed = 1;
nodes = (
"49 -3 OFFCURVE",
"115 0 OFFCURVE",
"140 0 CURVE SMOOTH",
"233 0 LINE",
"247 53 LINE",
"130 63 LINE",
"169 27 LINE",
"168 59 OFFCURVE",
"176 142 OFFCURVE",
"181 165 CURVE SMOOTH",
"272 623 LINE",
"257 623 LINE",
"394 0 LINE",
"426 0 LINE",
"741 620 LINE",
"728 623 LINE",
"688 135 LINE SMOOTH",
"686 113 OFFCURVE",
"669 49 OFFCURVE",
"662 22 CURVE",
"707 67 LINE",
"592 44 LINE",
"590 -5 LINE",
"635 -3 OFFCURVE",
"700 0 OFFCURVE",
"725 0 CURVE SMOOTH",
"847 0 LINE",
"860 53 LINE",
"740 63 LINE",
"784 27 LINE",
"782 59 OFFCURVE",
"776 128 OFFCURVE",
"779 164 CURVE SMOOTH",
"806 538 LINE SMOOTH",
"809 582 OFFCURVE",
"826 663 OFFCURVE",
"830 682 CURVE",
"788 643 LINE",
"899 653 LINE",
"904 710 LINE",
"854 708 OFFCURVE",
"786 705 OFFCURVE",
"756 705 CURVE SMOOTH",
"731 705 LINE",
"709 685 LINE",
"635 536 LINE",
"435 140 LINE",
"458 138 LINE",
"372 529 LINE",
"343 685 LINE",
"328 705 LINE",
"264 705 LINE SMOOTH",
"245 705 OFFCURVE",
"187 708 OFFCURVE",
"148 710 CURVE",
"135 658 LINE",
"243 640 LINE",
"212 670 LINE",
"212 656 OFFCURVE",
"206 589 OFFCURVE",
"202 572 CURVE SMOOTH",
"112 135 LINE SMOOTH",
"108 117 OFFCURVE",
"80 49 OFFCURVE",
"69 22 CURVE",
"120 67 LINE",
"6 44 LINE",
"4 -5 LINE"
);
}
);
width = 918.5;
}
);
leftKerningGroup = UC_Stem;
rightKerningGroup = UC_Stem;
unicode = 004D;
},
{
color = 6;
glyphname = N;
layers = (
{
anchors = (
{
name = bottom;
position = "{357, 0}";
},
{
name = top;
position = "{458, 720}";
}
);
color = 6;
layerId = "B953D09C-6DD0-450A-A78C-8C2188DD4016";
paths = (
{
closed = 1;
nodes = (
"51 -3 OFFCURVE",
"109 0 OFFCURVE",
"138 0 CURVE SMOOTH",
"261 0 LINE",
"276 66 LINE",
"154 79 LINE",
"210 39 LINE",
"210 76 OFFCURVE",
"214 145 OFFCURVE",
"220 186 CURVE SMOOTH",
"270 532 LINE",
"236 526 LINE",
"519 0 LINE",
"638 0 LINE",
"717 541 LINE SMOOTH",
"722 574 OFFCURVE",
"740 627 OFFCURVE",
"752 660 CURVE",
"684 623 LINE",
"808 635 LINE",
"814 710 LINE",
"774 708 OFFCURVE",
"698 705 OFFCURVE",
"666 705 CURVE SMOOTH",
"652 705 OFFCURVE",
"595 708 OFFCURVE",
"560 710 CURVE",
"545 640 LINE",
"665 618 LINE",
"609 673 LINE",
"609 643 OFFCURVE",
"611 582 OFFCURVE",
"603 526 CURVE SMOOTH",
"549 158 LINE",
"584 164 LINE",
"383 535 LINE",
"318 685 LINE",
"302 705 LINE",
"234 705 LINE SMOOTH",
"215 705 OFFCURVE",
"154 708 OFFCURVE",
"115 710 CURVE",
"99 640 LINE",
"219 618 LINE",
"163 669 LINE",
"163 651 OFFCURVE",
"165 583 OFFCURVE",
"157 526 CURVE SMOOTH",
"103 157 LINE SMOOTH",
"100 137 OFFCURVE",
"82 73 OFFCURVE",
"75 48 CURVE",
"138 83 LINE",
"14 60 LINE",
"10 -5 LINE"
);
}
);
width = 790;
},
{
anchors = (
{
name = bottom;
position = "{341, 0}";
},
{
name = top;
position = "{442, 720}";
}
);
layerId = "3088057A-3552-44D5-8A67-1301E2609A93";
paths = (
{
closed = 1;
nodes = (
"54 -3 OFFCURVE",
"117 0 OFFCURVE",
"141 0 CURVE SMOOTH",
"234 0 LINE",
"247 53 LINE",
"131 63 LINE",
"167 27 LINE",
"168 61 OFFCURVE",
"174 136 OFFCURVE",
"178 165 CURVE SMOOTH",
"240 598 LINE",
"220 594 LINE",
"532 0 LINE",
"594 0 LINE",
"674 538 LINE SMOOTH",
"679 573 OFFCURVE",
"706 652 OFFCURVE",
"714 668 CURVE",
"671 643 LINE",
"782 653 LINE",
"787 710 LINE",
"754 708 OFFCURVE",
"696 705 OFFCURVE",
"665 705 CURVE SMOOTH",
"649 705 OFFCURVE",
"593 708 OFFCURVE",
"557 710 CURVE",
"544 658 LINE",
"652 640 LINE",
"618 675 LINE",
"619 654 OFFCURVE",
"619 589 OFFCURVE",
"616 572 CURVE SMOOTH",
"550 124 LINE",
"571 128 LINE",
"353 530 LINE",
"282 685 LINE",
"266 705 LINE",
"231 705 LINE SMOOTH",
"212 705 OFFCURVE",
"154 708 OFFCURVE",
"115 710 CURVE",
"102 658 LINE",
"210 640 LINE",
"176 680 LINE",
"176 665 OFFCURVE",
"177 589 OFFCURVE",
"175 572 CURVE SMOOTH",
"111 135 LINE SMOOTH",
"108 116 OFFCURVE",
"84 39 OFFCURVE",
"81 25 CURVE",
"122 67 LINE",
"11 44 LINE",
"9 -5 LINE"
);
}
);
width = 762.5;
}
);
leftKerningGroup = UC_Stem;
rightKerningGroup = UC_N;
unicode = 004E;
},
{
color = 6;
glyphname = Eng;
layers = (
{
color = 6;
layerId = "B953D09C-6DD0-450A-A78C-8C2188DD4016";
paths = (
{
closed = 1;
nodes = (
"561 -115 OFFCURVE",
"646 -31 OFFCURVE",
"651 0 CURVE SMOOTH",
"730 542 LINE SMOOTH",
"734 571 OFFCURVE",
"749 617 OFFCURVE",
"763 657 CURVE",
"688 617 LINE",
"815 629 LINE",
"822 710 LINE",
"780 708 OFFCURVE",
"698 705 OFFCURVE",
"666 705 CURVE SMOOTH",
"651 705 OFFCURVE",
"596 708 OFFCURVE",
"561 710 CURVE",
"545 635 LINE",
"668 611 LINE",
"606 672 LINE",
"606 644 OFFCURVE",
"608 581 OFFCURVE",
"598 512 CURVE SMOOTH",
"548 168 LINE",
"587 175 LINE",
"391 537 LINE",
"328 685 LINE",
"313 705 LINE",
"234 705 LINE SMOOTH",
"214 705 OFFCURVE",
"154 708 OFFCURVE",
"114 710 CURVE",
"98 635 LINE",
"221 611 LINE",
"159 666 LINE",
"159 644 OFFCURVE",
"161 581 OFFCURVE",
"151 512 CURVE SMOOTH",
"100 163 LINE SMOOTH",
"97 143 OFFCURVE",
"80 80 OFFCURVE",
"73 55 CURVE",
"142 88 LINE",
"15 65 LINE",
"10 -5 LINE",
"50 -3 OFFCURVE",
"106 0 OFFCURVE",
"136 0 CURVE SMOOTH",
"269 0 LINE",
"284 70 LINE",
"160 84 LINE",
"223 42 LINE",
"222 77 OFFCURVE",
"225 143 OFFCURVE",
"232 193 CURVE SMOOTH",
"279 512 LINE",
"240 505 LINE",
"514 0 LINE",
"512 -19 OFFCURVE",
"453 -113 OFFCURVE",
"418 -169 CURVE",
"466 -200 LINE"
);
}
);
width = 798;
},
{
layerId = "3088057A-3552-44D5-8A67-1301E2609A93";
paths = (
{
closed = 1;
nodes = (
"502 -146 OFFCURVE",
"586 -40 OFFCURVE",
"593 0 CURVE SMOOTH",
"673 538 LINE SMOOTH",
"679 575 OFFCURVE",
"705 654 OFFCURVE",
"712 668 CURVE",
"670 643 LINE",
"781 653 LINE",
"786 710 LINE",
"754 708 OFFCURVE",
"696 705 OFFCURVE",
"665 705 CURVE SMOOTH",
"649 705 OFFCURVE",
"593 708 OFFCURVE",
"557 710 CURVE",
"544 658 LINE",
"652 641 LINE",
"618 675 LINE",
"619 654 OFFCURVE",
"619 589 OFFCURVE",
"617 574 CURVE SMOOTH",
"550 123 LINE",
"571 127 LINE",
"353 529 LINE",
"281 685 LINE",
"265 705 LINE",
"231 705 LINE SMOOTH",
"212 705 OFFCURVE",
"154 708 OFFCURVE",
"115 710 CURVE",
"102 658 LINE",
"210 641 LINE",
"177 680 LINE",
"177 664 OFFCURVE",
"178 589 OFFCURVE",
"175 574 CURVE SMOOTH",
"111 134 LINE SMOOTH",
"109 120 OFFCURVE",
"84 36 OFFCURVE",
"81 24 CURVE",
"121 66 LINE",
"11 43 LINE",
"9 -5 LINE",
"54 -3 OFFCURVE",
"117 0 OFFCURVE",
"142 0 CURVE SMOOTH",
"233 0 LINE",
"247 52 LINE",
"130 62 LINE",
"166 27 LINE",
"167 61 OFFCURVE",
"173 136 OFFCURVE",
"177 164 CURVE SMOOTH",
"239 600 LINE",
"219 596 LINE",
"533 0 LINE",
"533 -17 OFFCURVE",
"468 -120 OFFCURVE",
"431 -179 CURVE",
"459 -200 LINE"
);
}
);
width = 761.7;
}
);
leftKerningGroup = UC_Stem;
rightKerningGroup = UC_J;
unicode = 014A;
},
{
color = 6;
glyphname = O;
layers = (
{
anchors = (
{
name = bottom;
position = "{356, 0}";
},
{
name = center;
position = "{406, 353}";
},
{
name = ogonek;
position = "{486, 0}";
},
{
name = top;
position = "{457, 720}";
},
{
name = topleft;
position = "{91, 705}";
},
{
name = topright;
position = "{629, 620}";
}
);
color = 6;
layerId = "B953D09C-6DD0-450A-A78C-8C2188DD4016";
paths = (
{
closed = 1;
nodes = (
"594 -15 OFFCURVE",
"753 164 OFFCURVE",
"753 414 CURVE SMOOTH",
"753 598 OFFCURVE",
"643 720 OFFCURVE",
"457 720 CURVE SMOOTH",
"218 720 OFFCURVE",
"59 541 OFFCURVE",
"59 290 CURVE SMOOTH",
"59 107 OFFCURVE",
"169 -15 OFFCURVE",
"355 -15 CURVE SMOOTH"
);
},
{
closed = 1;
nodes = (
"266 71 OFFCURVE",
"219 146 OFFCURVE",
"219 274 CURVE SMOOTH",
"219 479 OFFCURVE",
"288 634 OFFCURVE",
"448 634 CURVE SMOOTH",
"546 634 OFFCURVE",
"593 559 OFFCURVE",
"593 430 CURVE SMOOTH",
"593 225 OFFCURVE",
"523 71 OFFCURVE",
"365 71 CURVE SMOOTH"
);
}
);
width = 787;
},
{
anchors = (
{
name = bottom;
position = "{337, 0}";
},
{
name = center;
position = "{387, 353}";
},
{
name = ogonek;
position = "{474, 0}";
},
{
name = top;
position = "{438, 720}";
},
{
name = topleft;
position = "{83, 705}";
},
{
name = topright;
position = "{621, 620}";
}
);
layerId = "3088057A-3552-44D5-8A67-1301E2609A93";
paths = (
{
closed = 1;
nodes = (
"581 -15 OFFCURVE",
"711 175 OFFCURVE",
"711 421 CURVE SMOOTH",
"711 598 OFFCURVE",
"620 720 OFFCURVE",
"438 720 CURVE SMOOTH",
"194 720 OFFCURVE",
"63 530 OFFCURVE",
"63 283 CURVE SMOOTH",
"63 107 OFFCURVE",
"155 -15 OFFCURVE",
"336 -15 CURVE SMOOTH"
);
},
{
closed = 1;
nodes = (
"220 35 OFFCURVE",
"165 145 OFFCURVE",
"165 284 CURVE SMOOTH",
"165 481 OFFCURVE",
"261 670 OFFCURVE",
"434 670 CURVE SMOOTH",
"555 670 OFFCURVE",
"610 560 OFFCURVE",
"610 420 CURVE SMOOTH",
"610 223 OFFCURVE",
"513 35 OFFCURVE",
"341 35 CURVE SMOOTH"
);
}
);
width = 749.6;
}
);
leftKerningGroup = UC_Round;
rightKerningGroup = UC_Round;
unicode = 004F;
},
{
color = 3;
glyphname = Oslash;
layers = (
{
anchors = (
{
name = bottom;
position = "{364.672, 0}";
},
{
name = top;
position = "{451.235, 705}";
}
);
color = 3;
components = (
{
name = O;
}
);
layerId = "B953D09C-6DD0-450A-A78C-8C2188DD4016";
paths = (
{
closed = 1;
nodes = (
"710 794 LINE",
"652 826 LINE",
"106 -93 LINE",
"162 -125 LINE"
);
}
);
width = 787;
},
{
anchors = (
{
name = bottom;
position = "{342, 0}";
},
{
name = top;
position = "{428, 705}";
}
);
components = (
{
alignment = -1;
name = O;
transform = "{1, 0, 0, 1, -4, 0}";
}
);
layerId = "3088057A-3552-44D5-8A67-1301E2609A93";
paths = (
{
closed = 1;
nodes = (
"669 801 LINE",
"630 825 LINE",
"81 -99 LINE",
"118 -123 LINE"
);
}
);
width = 745.2;
}
);
leftKerningGroup = UC_Round;
rightKerningGroup = UC_Round;
unicode = 00D8;
},
{
color = 6;
glyphname = OE;
layers = (
{
anchors = (
{
name = bottom;
position = "{667, 0}";
},
{
name = top;
position = "{768, 720}";
}
);
color = 6;
layerId = "B953D09C-6DD0-450A-A78C-8C2188DD4016";
paths = (
{
closed = 1;
nodes = (
"440 -15 OFFCURVE",
"502 0 OFFCURVE",
"587 0 CURVE SMOOTH",
"747 0 LINE SMOOTH",
"773 0 OFFCURVE",
"821 0 OFFCURVE",
"862 0 CURVE",
"878 14 LINE",
"917 184 LINE",
"853 189 LINE",
"848 172 OFFCURVE",
"837 140 OFFCURVE",
"832 129 CURVE SMOOTH",
"826 114 OFFCURVE",
"803 78 OFFCURVE",
"773 44 CURVE",
"830 93 LINE",
"814 89 OFFCURVE",
"771 80 OFFCURVE",
"729 80 CURVE SMOOTH",
"550 80 LINE",
"604 49 LINE",
"604 64 OFFCURVE",
"610 138 OFFCURVE",
"617 186 CURVE SMOOTH",
"645 377 LINE",
"581 322 LINE",
"703 322 LINE SMOOTH",
"722 322 OFFCURVE",
"783 315 OFFCURVE",
"823 310 CURVE",
"767 372 LINE",
"766 254 LINE",
"826 260 LINE",
"833 328 OFFCURVE",
"842 385 OFFCURVE",
"855 466 CURVE",
"798 471 LINE",
"763 349 LINE",
"834 411 LINE",
"800 405 OFFCURVE",
"744 397 OFFCURVE",
"733 397 CURVE SMOOTH",
"591 397 LINE",
"640 342 LINE",
"669 541 LINE SMOOTH",
"673 569 OFFCURVE",
"690 636 OFFCURVE",
"696 664 CURVE",
"632 630 LINE",
"796 630 LINE SMOOTH",
"828 630 OFFCURVE",
"890 625 OFFCURVE",
"926 623 CURVE",
"857 679 LINE",
"866 653 OFFCURVE",
"880 601 OFFCURVE",
"880 591 CURVE SMOOTH",
"880 576 OFFCURVE",
"881 557 OFFCURVE",
"881 541 CURVE",
"949 546 LINE",
"964 692 LINE",
"948 710 LINE",
"911 708 OFFCURVE",
"862 705 OFFCURVE",
"836 705 CURVE SMOOTH",
"683 705 LINE SMOOTH",
"599 705 OFFCURVE",
"543 720 OFFCURVE",
"457 720 CURVE SMOOTH",
"218 720 OFFCURVE",
"59 541 OFFCURVE",
"59 290 CURVE SMOOTH",
"59 107 OFFCURVE",
"169 -15 OFFCURVE",
"355 -15 CURVE SMOOTH"
);
},
{
closed = 1;
nodes = (
"509 81 LINE",
"460 76 OFFCURVE",
"416 71 OFFCURVE",
"365 71 CURVE SMOOTH",
"266 71 OFFCURVE",
"219 146 OFFCURVE",
"219 274 CURVE SMOOTH",
"219 479 OFFCURVE",
"288 634 OFFCURVE",
"448 634 CURVE SMOOTH",
"498 634 OFFCURVE",
"549 626 OFFCURVE",
"596 620 CURVE",
"546 657 LINE",
"545 645 OFFCURVE",
"533 560 OFFCURVE",
"528 526 CURVE SMOOTH",
"474 156 LINE SMOOTH",
"470 127 OFFCURVE",
"458 65 OFFCURVE",
"452 39 CURVE"
);
}
);
width = 978;
},
{
anchors = (
{
name = bottom;
position = "{631, 0}";
},
{
name = top;
position = "{732, 720}";
}
);
layerId = "3088057A-3552-44D5-8A67-1301E2609A93";
paths = (
{
closed = 1;
nodes = (
"408 -15 OFFCURVE",
"477 0 OFFCURVE",
"549 0 CURVE SMOOTH",
"699 0 LINE SMOOTH",
"726 0 OFFCURVE",
"776 0 OFFCURVE",
"813 0 CURVE",
"830 14 LINE",
"866 163 LINE",
"815 168 LINE",
"810 152 OFFCURVE",
"796 116 OFFCURVE",
"789 100 CURVE SMOOTH",
"783 87 OFFCURVE",
"762 62 OFFCURVE",
"748 44 CURVE",
"778 67 LINE",
"760 63 OFFCURVE",
"715 55 OFFCURVE",
"677 55 CURVE SMOOTH",
"504 55 LINE",
"536 20 LINE",
"536 50 OFFCURVE",
"542 133 OFFCURVE",
"547 165 CURVE SMOOTH",
"577 374 LINE",
"538 340 LINE",
"666 340 LINE SMOOTH",
"682 340 OFFCURVE",
"740 335 OFFCURVE",
"777 331 CURVE",
"745 368 LINE",
"740 266 LINE",
"786 272 LINE",
"792 327 OFFCURVE",
"804 392 OFFCURVE",
"817 464 CURVE",
"773 469 LINE",
"741 367 LINE",
"786 403 LINE",
"755 400 OFFCURVE",
"703 394 OFFCURVE",
"692 394 CURVE SMOOTH",
"546 394 LINE",
"575 360 LINE",
"601 538 LINE SMOOTH",
"606 573 OFFCURVE",
"626 658 OFFCURVE",
"630 675 CURVE",
"590 651 LINE",
"752 651 LINE SMOOTH",
"765 651 OFFCURVE",
"837 646 OFFCURVE",
"855 644 CURVE",
"812 676 LINE",
"826 654 OFFCURVE",
"844 624 OFFCURVE",
"845 612 CURVE SMOOTH",
"846 604 OFFCURVE",
"847 574 OFFCURVE",
"848 558 CURVE",
"904 563 LINE",
"917 692 LINE",
"901 710 LINE",
"864 708 OFFCURVE",
"805 705 OFFCURVE",
"789 705 CURVE SMOOTH",
"678 705 LINE SMOOTH",
"606 705 OFFCURVE",
"510 720 OFFCURVE",
"438 720 CURVE SMOOTH",
"194 720 OFFCURVE",
"63 530 OFFCURVE",
"63 283 CURVE SMOOTH",
"63 107 OFFCURVE",
"154 -15 OFFCURVE",
"336 -15 CURVE SMOOTH"
);
},
{
closed = 1;
nodes = (
"471 56 LINE",
"428 42 OFFCURVE",
"384 35 OFFCURVE",
"341 35 CURVE SMOOTH",
"220 35 OFFCURVE",
"165 145 OFFCURVE",
"165 284 CURVE SMOOTH",
"165 481 OFFCURVE",
"261 670 OFFCURVE",
"434 670 CURVE SMOOTH",
"475 670 OFFCURVE",
"541 660 OFFCURVE",
"582 650 CURVE",
"530 666 LINE",
"530 653 OFFCURVE",
"522 591 OFFCURVE",
"519 572 CURVE SMOOTH",
"455 135 LINE SMOOTH",
"452 116 OFFCURVE",
"440 45 OFFCURVE",
"434 23 CURVE"
);
}
);
width = 929.6;
}
);
leftKerningGroup = UC_Round;
rightKerningGroup = UC_E;
unicode = 0152;
},
{
color = 6;
glyphname = P;
layers = (
{
anchors = (
{
name = bottom;
position = "{278.672, 0}";
},
{
name = top;
position = "{365.235, 705}";
}
);
color = 6;
layerId = "B953D09C-6DD0-450A-A78C-8C2188DD4016";
paths = (
{
closed = 1;
nodes = (
"59 -3 OFFCURVE",
"127 0 OFFCURVE",
"156 0 CURVE SMOOTH",
"301 0 LINE",
"315 66 LINE",
"182 79 LINE",
"238 39 LINE",
"238 59 OFFCURVE",
"239 130 OFFCURVE",
"247 186 CURVE SMOOTH",
"298 541 LINE SMOOTH",
"303 573 OFFCURVE",
"319 639 OFFCURVE",
"326 666 CURVE",
"253 631 LINE",
"293 634 OFFCURVE",
"336 636 OFFCURVE",
"351 636 CURVE SMOOTH",
"430 636 OFFCURVE",
"469 599 OFFCURVE",
"469 526 CURVE SMOOTH",
"469 410 OFFCURVE",
"399 346 OFFCURVE",
"297 346 CURVE SMOOTH",
"260 346 OFFCURVE",
"207 346 OFFCURVE",
"175 346 CURVE",
"164 274 LINE",
"217 273 OFFCURVE",
"269 272 OFFCURVE",
"322 272 CURVE SMOOTH",
"470 272 OFFCURVE",
"614 365 OFFCURVE",
"614 528 CURVE SMOOTH",
"614 645 OFFCURVE",
"534 710 OFFCURVE",
"413 710 CURVE SMOOTH",
"366 710 OFFCURVE",
"282 705 OFFCURVE",
"234 705 CURVE SMOOTH",
"215 705 OFFCURVE",
"155 708 OFFCURVE",
"115 710 CURVE",
"100 640 LINE",
"220 618 LINE",
"164 666 LINE",
"164 641 OFFCURVE",
"164 573 OFFCURVE",
"157 526 CURVE SMOOTH",
"103 156 LINE SMOOTH",
"99 130 OFFCURVE",
"82 73 OFFCURVE",
"75 47 CURVE",
"138 83 LINE",
"14 60 LINE",
"10 -5 LINE"
);
}
);
width = 621;
},
{
anchors = (
{
name = bottom;
position = "{261, 0}";
},
{
name = top;
position = "{348, 705}";
}
);
layerId = "3088057A-3552-44D5-8A67-1301E2609A93";
paths = (
{
closed = 1;
nodes = (
"54 -3 OFFCURVE",
"118 0 OFFCURVE",
"143 0 CURVE SMOOTH",
"275 0 LINE",
"289 53 LINE",
"158 63 LINE",
"192 27 LINE",
"190 59 OFFCURVE",
"196 130 OFFCURVE",
"201 165 CURVE SMOOTH",
"255 538 LINE SMOOTH",
"261 580 OFFCURVE",
"279 657 OFFCURVE",
"286 681 CURVE",
"235 655 LINE SMOOTH",
"274 658 OFFCURVE",
"323 662 OFFCURVE",
"342 662 CURVE SMOOTH",
"432 662 OFFCURVE",
"488 616 OFFCURVE",
"488 530 CURVE SMOOTH",
"488 405 OFFCURVE",
"409 341 OFFCURVE",
"294 341 CURVE SMOOTH",
"253 341 OFFCURVE",
"199 349 OFFCURVE",
"159 355 CURVE",
"151 298 LINE",
"206 295 OFFCURVE",
"261 293 OFFCURVE",
"317 293 CURVE SMOOTH",
"459 293 OFFCURVE",
"578 379 OFFCURVE",
"578 540 CURVE SMOOTH",
"578 652 OFFCURVE",
"497 710 OFFCURVE",
"379 710 CURVE SMOOTH",
"340 710 OFFCURVE",
"269 705 OFFCURVE",
"230 705 CURVE SMOOTH",
"212 705 OFFCURVE",
"153 708 OFFCURVE",
"115 710 CURVE",
"102 658 LINE",
"210 640 LINE",
"176 681 LINE",
"177 658 OFFCURVE",
"176 590 OFFCURVE",
"174 572 CURVE SMOOTH",
"110 135 LINE SMOOTH",
"107 116 OFFCURVE",
"88 49 OFFCURVE",
"81 22 CURVE",
"125 67 LINE",
"11 44 LINE",
"9 -5 LINE"
);
}
);
width = 586.9;
}
);
leftKerningGroup = UC_Stem;
rightKerningGroup = UC_F;
unicode = 0050;
},
{
color = 6;
glyphname = Thorn;
layers = (
{
anchors = (
{
name = bottom;
position = "{264.672, 0}";
},
{
name = top;
position = "{351.235, 705}";
}
);
color = 6;
layerId = "B953D09C-6DD0-450A-A78C-8C2188DD4016";
paths = (
{
closed = 1;
nodes = (
"59 -3 OFFCURVE",
"127 0 OFFCURVE",
"156 0 CURVE SMOOTH",
"291 0 LINE",
"305 66 LINE",
"182 79 LINE",
"238 39 LINE",
"238 59 OFFCURVE",
"239 130 OFFCURVE",
"247 186 CURVE SMOOTH",
"298 541 LINE SMOOTH",
"303 574 OFFCURVE",
"322 639 OFFCURVE",
"329 666 CURVE",
"263 623 LINE",
"387 635 LINE",
"393 710 LINE",
"340 708 OFFCURVE",
"277 705 OFFCURVE",
"234 705 CURVE SMOOTH",
"215 705 OFFCURVE",
"155 708 OFFCURVE",
"115 710 CURVE",
"100 640 LINE",
"220 618 LINE",
"164 666 LINE",
"164 641 OFFCURVE",
"164 573 OFFCURVE",
"157 526 CURVE SMOOTH",
"103 156 LINE SMOOTH",
"99 130 OFFCURVE",
"82 73 OFFCURVE",
"75 47 CURVE",
"138 83 LINE",
"14 60 LINE",
"10 -5 LINE"
);
},
{
closed = 1;
nodes = (
"440 162 OFFCURVE",
"568 241 OFFCURVE",
"568 382 CURVE SMOOTH",
"568 488 OFFCURVE",
"491 552 OFFCURVE",
"365 552 CURVE SMOOTH",
"335 552 OFFCURVE",
"283 549 OFFCURVE",
"270 548 CURVE",
"260 477 LINE",
"272 477 OFFCURVE",
"289 477 OFFCURVE",
"298 477 CURVE SMOOTH",
"386 477 OFFCURVE",
"428 447 OFFCURVE",
"428 381 CURVE SMOOTH",
"428 287 OFFCURVE",
"360 238 OFFCURVE",
"259 238 CURVE SMOOTH",
"226 238 OFFCURVE",
"229 237 OFFCURVE",
"224 238 CURVE",
"214 163 LINE",
"286 163 OFFCURVE",
"269 162 OFFCURVE",
"297 162 CURVE SMOOTH"
);
}
);
width = 590;
},
{
anchors = (
{
name = bottom;
position = "{242, 0}";
},
{
name = top;
position = "{328, 705}";
}
);
layerId = "3088057A-3552-44D5-8A67-1301E2609A93";
paths = (
{
closed = 1;
nodes = (
"54 -3 OFFCURVE",
"118 0 OFFCURVE",
"143 0 CURVE SMOOTH",
"265 0 LINE",
"279 53 LINE",
"158 63 LINE",
"192 27 LINE",
"190 59 OFFCURVE",
"196 130 OFFCURVE",
"201 165 CURVE SMOOTH",
"255 538 LINE SMOOTH",
"261 580 OFFCURVE",
"279 657 OFFCURVE",
"286 681 CURVE",
"243 643 LINE",
"354 653 LINE",
"359 710 LINE",
"316 708 OFFCURVE",
"263 705 OFFCURVE",
"230 705 CURVE SMOOTH",
"212 705 OFFCURVE",
"153 708 OFFCURVE",
"115 710 CURVE",
"102 658 LINE",
"210 640 LINE",
"176 681 LINE",
"177 658 OFFCURVE",
"176 590 OFFCURVE",
"174 572 CURVE SMOOTH",
"110 135 LINE SMOOTH",
"107 116 OFFCURVE",
"88 49 OFFCURVE",
"81 22 CURVE",
"125 67 LINE",
"11 44 LINE",
"9 -5 LINE"
);
},
{
closed = 1;
nodes = (
"392 166 OFFCURVE",
"520 245 OFFCURVE",
"520 390 CURVE SMOOTH",
"520 497 OFFCURVE",
"453 555 OFFCURVE",
"327 555 CURVE SMOOTH",
"301 555 OFFCURVE",
"259 553 OFFCURVE",
"222 551 CURVE",
"215 503 LINE",
"245 506 OFFCURVE",
"270 508 OFFCURVE",
"284 508 CURVE SMOOTH",
"376 508 OFFCURVE",
"432 462 OFFCURVE",
"432 382 CURVE SMOOTH",
"432 272 OFFCURVE",
"353 214 OFFCURVE",
"240 214 CURVE SMOOTH",
"221 214 OFFCURVE",
"189 217 OFFCURVE",
"169 219 CURVE",
"161 169 LINE",
"184 167 OFFCURVE",
"229 166 OFFCURVE",
"251 166 CURVE SMOOTH"
);
}
);
width = 544.9;
}
);
leftKerningGroup = UC_Stem;
rightKerningGroup = UC_Thorn;
unicode = 00DE;
},
{
color = 6;
glyphname = Q;
layers = (
{
anchors = (
{
name = bottom;
position = "{361, 0}";
},
{
name = top;
position = "{447, 705}";
}
);
color = 6;
layerId = "B953D09C-6DD0-450A-A78C-8C2188DD4016";
paths = (
{
closed = 1;
nodes = (
"594 -15 OFFCURVE",
"753 164 OFFCURVE",
"753 414 CURVE SMOOTH",
"753 598 OFFCURVE",
"643 720 OFFCURVE",
"457 720 CURVE SMOOTH",
"218 720 OFFCURVE",
"59 541 OFFCURVE",
"59 290 CURVE SMOOTH",
"59 107 OFFCURVE",
"169 -15 OFFCURVE",
"355 -15 CURVE SMOOTH"
);
},
{
closed = 1;
nodes = (
"713 -108 LINE",
"665 -86 OFFCURVE",
"583 -49 OFFCURVE",
"570 -39 CURVE SMOOTH",
"500 17 LINE",
"365 -7 LINE",
"615 -224 LINE"
);
},
{
closed = 1;
nodes = (
"266 71 OFFCURVE",
"219 146 OFFCURVE",
"219 274 CURVE SMOOTH",
"219 479 OFFCURVE",
"288 634 OFFCURVE",
"448 634 CURVE SMOOTH",
"546 634 OFFCURVE",
"593 559 OFFCURVE",
"593 430 CURVE SMOOTH",
"593 225 OFFCURVE",
"523 71 OFFCURVE",
"365 71 CURVE SMOOTH"
);
}
);
width = 787;
},
{
anchors = (
{
name = bottom;
position = "{343, 0}";
},
{
name = top;
position = "{429, 705}";
}
);
layerId = "3088057A-3552-44D5-8A67-1301E2609A93";
paths = (
{
closed = 1;
nodes = (
"581 -15 OFFCURVE",
"711 175 OFFCURVE",
"711 421 CURVE SMOOTH",
"711 598 OFFCURVE",
"620 720 OFFCURVE",
"438 720 CURVE SMOOTH",
"194 720 OFFCURVE",
"63 530 OFFCURVE",
"63 283 CURVE SMOOTH",
"63 107 OFFCURVE",
"155 -15 OFFCURVE",
"336 -15 CURVE SMOOTH"
);
},
{
closed = 1;
nodes = (
"665 -134 LINE",
"617 -111 OFFCURVE",
"536 -74 OFFCURVE",
"522 -62 CURVE SMOOTH",
"446 -1 LINE",
"374 -14 LINE",
"595 -224 LINE"
);
},
{
closed = 1;
nodes = (
"220 35 OFFCURVE",
"165 145 OFFCURVE",
"165 284 CURVE SMOOTH",
"165 481 OFFCURVE",
"261 670 OFFCURVE",
"434 670 CURVE SMOOTH",
"555 670 OFFCURVE",
"610 560 OFFCURVE",
"610 420 CURVE SMOOTH",
"610 223 OFFCURVE",
"513 35 OFFCURVE",
"341 35 CURVE SMOOTH"
);
}
);
width = 750.7;
}
);
leftKerningGroup = UC_Round;
rightKerningGroup = UC_Q;
unicode = 0051;
},
{
color = 6;
glyphname = R;
layers = (
{
anchors = (
{
name = bottom;
position = "{321, 0}";
},
{
name = top;
position = "{372, 720}";
}
);
color = 6;
layerId = "B953D09C-6DD0-450A-A78C-8C2188DD4016";
paths = (
{
closed = 1;
nodes = (
"59 -3 OFFCURVE",
"127 0 OFFCURVE",
"156 0 CURVE SMOOTH",
"291 0 LINE",
"305 66 LINE",
"182 79 LINE",
"238 39 LINE",
"238 59 OFFCURVE",
"239 130 OFFCURVE",
"247 186 CURVE SMOOTH",
"298 541 LINE SMOOTH",
"303 574 OFFCURVE",
"322 639 OFFCURVE",
"329 666 CURVE",
"212 628 LINE",
"249 630 OFFCURVE",
"330 636 OFFCURVE",
"352 636 CURVE SMOOTH",
"431 636 OFFCURVE",
"474 601 OFFCURVE",
"474 530 CURVE SMOOTH",
"474 427 OFFCURVE",
"427 359 OFFCURVE",
"310 359 CURVE SMOOTH",
"269 359 OFFCURVE",
"225 360 OFFCURVE",
"170 362 CURVE",
"167 292 LINE",
"218 289 OFFCURVE",
"284 283 OFFCURVE",
"320 283 CURVE SMOOTH",
"471 283 OFFCURVE",
"618 380 OFFCURVE",
"618 536 CURVE SMOOTH",
"618 646 OFFCURVE",
"537 710 OFFCURVE",
"415 710 CURVE SMOOTH",
"367 710 OFFCURVE",
"282 705 OFFCURVE",
"234 705 CURVE SMOOTH",
"215 705 OFFCURVE",
"155 708 OFFCURVE",
"115 710 CURVE",
"100 640 LINE",
"220 618 LINE",
"164 666 LINE",
"164 641 OFFCURVE",
"164 573 OFFCURVE",
"157 526 CURVE SMOOTH",
"103 156 LINE SMOOTH",
"99 130 OFFCURVE",
"82 73 OFFCURVE",
"75 47 CURVE",
"138 83 LINE",
"14 60 LINE",
"10 -5 LINE"
);
},
{
closed = 1;
nodes = (
"606 0 LINE",
"620 67 LINE",
"511 76 LINE",
"584 41 LINE",
"573 60 OFFCURVE",
"546 114 OFFCURVE",
"539 129 CURVE SMOOTH",
"533 143 OFFCURVE",
"483 243 OFFCURVE",
"449 349 CURVE",
"307 345 LINE",
"390 116 LINE SMOOTH",
"401 85 OFFCURVE",
"414 34 OFFCURVE",
"423 0 CURVE"
);
}
);
width = 673;
},
{
anchors = (
{
name = bottom;
position = "{305, 0}";
},
{
name = top;
position = "{337, 720}";
}
);
layerId = "3088057A-3552-44D5-8A67-1301E2609A93";
paths = (
{
closed = 1;
nodes = (
"54 -3 OFFCURVE",
"118 0 OFFCURVE",
"143 0 CURVE SMOOTH",
"265 0 LINE",
"279 53 LINE",
"158 63 LINE",
"192 27 LINE",
"190 59 OFFCURVE",
"196 130 OFFCURVE",
"201 165 CURVE SMOOTH",
"255 538 LINE SMOOTH",
"261 580 OFFCURVE",
"279 657 OFFCURVE",
"286 681 CURVE",
"251 657 LINE",
"280 659 OFFCURVE",
"325 662 OFFCURVE",
"342 662 CURVE SMOOTH",
"432 662 OFFCURVE",
"488 616 OFFCURVE",
"488 534 CURVE SMOOTH",
"488 412 OFFCURVE",
"419 350 OFFCURVE",
"306 350 CURVE SMOOTH",
"256 350 OFFCURVE",
"207 358 OFFCURVE",
"159 364 CURVE",
"151 307 LINE",
"206 306 OFFCURVE",
"261 303 OFFCURVE",
"318 303 CURVE SMOOTH",
"459 303 OFFCURVE",
"578 388 OFFCURVE",
"578 545 CURVE SMOOTH",
"578 653 OFFCURVE",
"497 710 OFFCURVE",
"379 710 CURVE SMOOTH",
"340 710 OFFCURVE",
"269 705 OFFCURVE",
"230 705 CURVE SMOOTH",
"212 705 OFFCURVE",
"153 708 OFFCURVE",
"115 710 CURVE",
"102 658 LINE",
"210 640 LINE",
"176 681 LINE",
"177 658 OFFCURVE",
"176 590 OFFCURVE",
"174 572 CURVE SMOOTH",
"110 135 LINE SMOOTH",
"107 116 OFFCURVE",
"88 49 OFFCURVE",
"81 22 CURVE",
"125 67 LINE",
"11 44 LINE",
"9 -5 LINE"
);
},
{
closed = 1;
nodes = (
"573 0 LINE",
"587 53 LINE",
"482 64 LINE",
"525 45 LINE",
"516 61 OFFCURVE",
"488 111 OFFCURVE",
"479 131 CURVE SMOOTH",
"475 141 OFFCURVE",
"434 245 OFFCURVE",
"392 349 CURVE",
"298 345 LINE",
"383 116 LINE SMOOTH",
"397 81 OFFCURVE",
"407 44 OFFCURVE",
"420 0 CURVE"
);
}
);
width = 642.2;
}
);
leftKerningGroup = UC_Stem;
rightKerningGroup = UC_R;
unicode = 0052;
},
{
color = 6;
glyphname = S;
layers = (
{
anchors = (
{
name = bottom;
position = "{244, 0}";
},
{
name = top;
position = "{359, 720}";
}
);
color = 6;
layerId = "B953D09C-6DD0-450A-A78C-8C2188DD4016";
paths = (
{
closed = 1;
nodes = (
"400 -15 OFFCURVE",
"526 74 OFFCURVE",
"526 226 CURVE SMOOTH",
"526 420 OFFCURVE",
"250 415 OFFCURVE",
"250 538 CURVE SMOOTH",
"250 599 OFFCURVE",
"298 637 OFFCURVE",
"363 637 CURVE SMOOTH",
"417 637 OFFCURVE",
"451 610 OFFCURVE",
"478 592 CURVE",
"432 674 LINE",
"439 642 OFFCURVE",
"451 589 OFFCURVE",
"451 576 CURVE SMOOTH",
"451 569 OFFCURVE",
"445 532 OFFCURVE",
"441 508 CURVE",
"517 503 LINE",
"557 685 LINE",
"493 705 OFFCURVE",
"414 720 OFFCURVE",
"349 720 CURVE SMOOTH",
"206 720 OFFCURVE",
"96 635 OFFCURVE",
"96 497 CURVE SMOOTH",
"96 301 OFFCURVE",
"371 310 OFFCURVE",
"371 180 CURVE SMOOTH",
"371 110 OFFCURVE",
"316 73 OFFCURVE",
"251 73 CURVE SMOOTH",
"187 73 OFFCURVE",
"145 101 OFFCURVE",
"130 109 CURVE",
"152 83 LINE",
"148 94 OFFCURVE",
"139 130 OFFCURVE",
"139 143 CURVE SMOOTH",
"139 148 OFFCURVE",
"148 212 OFFCURVE",
"148 212 CURVE",
"72 218 LINE",
"30 34 LINE",
"92 3 OFFCURVE",
"171 -15 OFFCURVE",
"250 -15 CURVE SMOOTH"
);
}
);
width = 581;
},
{
anchors = (
{
name = bottom;
position = "{240, 0}";
},
{
name = top;
position = "{350, 720}";
}
);
layerId = "3088057A-3552-44D5-8A67-1301E2609A93";
paths = (
{
closed = 1;
nodes = (
"375 -15 OFFCURVE",
"494 58 OFFCURVE",
"494 205 CURVE SMOOTH",
"494 399 OFFCURVE",
"198 403 OFFCURVE",
"198 542 CURVE SMOOTH",
"198 623 OFFCURVE",
"260 668 OFFCURVE",
"327 668 CURVE SMOOTH",
"380 668 OFFCURVE",
"416 663 OFFCURVE",
"468 633 CURVE",
"440 665 LINE",
"441 648 OFFCURVE",
"446 609 OFFCURVE",
"446 593 CURVE SMOOTH",
"446 584 OFFCURVE",
"441 562 OFFCURVE",
"439 547 CURVE",
"494 540 LINE",
"530 688 LINE",
"470 704 OFFCURVE",
"399 720 OFFCURVE",
"336 720 CURVE SMOOTH",
"204 720 OFFCURVE",
"100 645 OFFCURVE",
"100 514 CURVE SMOOTH",
"100 330 OFFCURVE",
"391 328 OFFCURVE",
"391 184 CURVE SMOOTH",
"391 97 OFFCURVE",
"331 42 OFFCURVE",
"242 42 CURVE SMOOTH",
"187 42 OFFCURVE",
"135 60 OFFCURVE",
"103 77 CURVE",
"120 59 LINE",
"119 68 OFFCURVE",
"118 101 OFFCURVE",
"118 121 CURVE SMOOTH",
"118 135 OFFCURVE",
"126 183 OFFCURVE",
"126 183 CURVE",
"63 189 LINE",
"27 38 LINE",
"90 1 OFFCURVE",
"163 -15 OFFCURVE",
"235 -15 CURVE SMOOTH"
);
}
);
width = 551.3;
}
);
leftKerningGroup = UC_S;
rightKerningGroup = UC_S;
unicode = 0053;
},
{
color = 6;
glyphname = T;
layers = (
{
anchors = (
{
name = bottom;
position = "{291, 0}";
},
{
name = center;
position = "{341, 353}";
},
{
name = top;
position = "{392, 720}";
}
);
color = 6;
layerId = "B953D09C-6DD0-450A-A78C-8C2188DD4016";
paths = (
{
closed = 1;
nodes = (
"186 -3 OFFCURVE",
"266 0 OFFCURVE",
"294 0 CURVE SMOOTH",
"438 0 LINE",
"453 66 LINE",
"320 79 LINE",
"376 39 LINE",
"375 62 OFFCURVE",
"378 134 OFFCURVE",
"385 186 CURVE SMOOTH",
"436 541 LINE SMOOTH",
"442 582 OFFCURVE",
"462 645 OFFCURVE",
"467 666 CURVE",
"302 666 LINE",
"302 640 OFFCURVE",
"302 574 OFFCURVE",
"295 526 CURVE SMOOTH",
"241 156 LINE SMOOTH",
"237 131 OFFCURVE",
"219 71 OFFCURVE",
"213 47 CURVE",
"276 83 LINE",
"142 60 LINE",
"138 -5 LINE"
);
},
{
closed = 1;
nodes = (
"142 530 OFFCURVE",
"156 580 OFFCURVE",
"160 590 CURVE SMOOTH",
"163 596 OFFCURVE",
"188 649 OFFCURVE",
"201 677 CURVE",
"129 623 LINE",
"159 625 OFFCURVE",
"223 630 OFFCURVE",
"257 630 CURVE SMOOTH",
"504 630 LINE SMOOTH",
"534 630 OFFCURVE",
"579 626 OFFCURVE",
"607 623 CURVE",
"565 678 LINE",
"574 651 OFFCURVE",
"588 599 OFFCURVE",
"589 589 CURVE SMOOTH",
"590 577 OFFCURVE",
"588 530 OFFCURVE",
"588 511 CURVE",
"655 516 LINE",
"672 692 LINE",
"656 710 LINE",
"617 708 OFFCURVE",
"559 705 OFFCURVE",
"541 705 CURVE SMOOTH",
"238 705 LINE SMOOTH",
"221 705 OFFCURVE",
"163 708 OFFCURVE",
"126 710 CURVE",
"103 692 LINE",
"71 516 LINE",
"138 511 LINE"
);
}
);
width = 661;
},
{
anchors = (
{
name = bottom;
position = "{279, 0}";
},
{
name = center;
position = "{329, 353}";
},
{
name = top;
position = "{391, 720}";
}
);
layerId = "3088057A-3552-44D5-8A67-1301E2609A93";
paths = (
{
closed = 1;
nodes = (
"187 -3 OFFCURVE",
"262 0 OFFCURVE",
"286 0 CURVE SMOOTH",
"418 0 LINE",
"432 53 LINE",
"301 63 LINE",
"335 27 LINE",
"333 59 OFFCURVE",
"340 130 OFFCURVE",
"344 165 CURVE SMOOTH",
"399 538 LINE",
"405 579 OFFCURVE",
"422 656 OFFCURVE",
"430 681 CURVE",
"320 681 LINE",
"321 658 OFFCURVE",
"320 589 OFFCURVE",
"317 572 CURVE SMOOTH",
"253 135 LINE SMOOTH",
"250 116 OFFCURVE",
"231 49 OFFCURVE",
"224 22 CURVE",
"268 67 LINE",
"144 44 LINE",
"142 -5 LINE"
);
},
{
closed = 1;
nodes = (
"135 551 OFFCURVE",
"147 594 OFFCURVE",
"155 609 CURVE SMOOTH",
"160 620 OFFCURVE",
"191 660 OFFCURVE",
"205 678 CURVE",
"143 645 LINE",
"166 647 OFFCURVE",
"223 651 OFFCURVE",
"258 651 CURVE SMOOTH",
"482 651 LINE SMOOTH",
"507 651 OFFCURVE",
"558 647 OFFCURVE",
"576 645 CURVE",
"544 671 LINE",
"561 653 OFFCURVE",
"575 616 OFFCURVE",
"575 609 CURVE SMOOTH",
"575 594 OFFCURVE",
"576 551 OFFCURVE",
"575 524 CURVE",
"631 529 LINE",
"647 692 LINE",
"631 710 LINE",
"594 708 OFFCURVE",
"536 705 OFFCURVE",
"519 705 CURVE SMOOTH",
"237 705 LINE SMOOTH",
"220 705 OFFCURVE",
"164 708 OFFCURVE",
"127 710 CURVE",
"106 692 LINE",
"74 529 LINE",
"129 524 LINE"
);
}
);
width = 637.9;
}
);
leftKerningGroup = UC_T;
rightKerningGroup = UC_T;
unicode = 0054;
},
{
color = 6;
glyphname = U;
layers = (
{
anchors = (
{
name = bottom;
position = "{338, 0}";
},
{
name = horn;
position = "{628, 460}";
},
{
name = ogonek;
position = "{453, 0}";
},
{
name = top;
position = "{439, 720}";
},
{
name = topright;
position = "{782, 705}";
}
);
color = 6;
layerId = "B953D09C-6DD0-450A-A78C-8C2188DD4016";
paths = (
{
closed = 1;
nodes = (
"512 -15 OFFCURVE",
"624 93 OFFCURVE",
"650 268 CURVE SMOOTH",
"690 541 LINE SMOOTH",
"695 574 OFFCURVE",
"712 634 OFFCURVE",
"721 664 CURVE",
"655 623 LINE",
"778 635 LINE",
"785 710 LINE",
"735 708 OFFCURVE",
"672 705 OFFCURVE",
"636 705 CURVE SMOOTH",
"617 705 OFFCURVE",
"563 708 OFFCURVE",
"527 710 CURVE",
"512 640 LINE",
"632 618 LINE",
"576 668 LINE",
"576 651 OFFCURVE",
"578 583 OFFCURVE",
"570 526 CURVE SMOOTH",
"531 261 LINE SMOOTH",
"515 155 OFFCURVE",
"467 87 OFFCURVE",
"363 87 CURVE SMOOTH",
"268 87 OFFCURVE",
"226 162 OFFCURVE",
"241 261 CURVE SMOOTH",
"283 541 LINE SMOOTH",
"288 575 OFFCURVE",
"307 637 OFFCURVE",
"314 665 CURVE",
"248 623 LINE",
"371 635 LINE",
"378 710 LINE",
"324 708 OFFCURVE",
"252 705 OFFCURVE",
"216 705 CURVE SMOOTH",
"198 705 OFFCURVE",
"135 708 OFFCURVE",
"95 710 CURVE",
"80 640 LINE",
"200 618 LINE",
"144 664 LINE",
"144 650 OFFCURVE",
"145 583 OFFCURVE",
"137 526 CURVE SMOOTH",
"100 267 LINE SMOOTH",
"76 99 OFFCURVE",
"150 -15 OFFCURVE",
"334 -15 CURVE SMOOTH"
);
}
);
width = 760;
},
{
anchors = (
{
name = bottom;
position = "{317, 0}";
},
{
name = horn;
position = "{606, 460}";
},
{
name = ogonek;
position = "{430, 0}";
},
{
name = top;
position = "{436, 720}";
},
{
name = topright;
position = "{746, 705}";
}
);
layerId = "3088057A-3552-44D5-8A67-1301E2609A93";
paths = (
{
closed = 1;
nodes = (
"479 -15 OFFCURVE",
"576 95 OFFCURVE",
"601 266 CURVE SMOOTH",
"641 538 LINE SMOOTH",
"646 575 OFFCURVE",
"667 659 OFFCURVE",
"670 675 CURVE",
"630 643 LINE",
"742 653 LINE",
"745 710 LINE",
"705 708 OFFCURVE",
"648 705 OFFCURVE",
"625 705 CURVE SMOOTH",
"607 705 OFFCURVE",
"553 708 OFFCURVE",
"517 710 CURVE",
"504 658 LINE",
"613 640 LINE",
"579 671 LINE",
"579 653 OFFCURVE",
"581 589 OFFCURVE",
"579 572 CURVE SMOOTH",
"533 267 LINE SMOOTH",
"514 139 OFFCURVE",
"444 45 OFFCURVE",
"327 45 CURVE SMOOTH",
"216 45 OFFCURVE",
"172 137 OFFCURVE",
"192 267 CURVE SMOOTH",
"231 538 LINE SMOOTH",
"236 575 OFFCURVE",
"256 658 OFFCURVE",
"260 676 CURVE",
"219 643 LINE",
"330 653 LINE",
"335 710 LINE",
"292 708 OFFCURVE",
"229 705 OFFCURVE",
"206 705 CURVE SMOOTH",
"188 705 OFFCURVE",
"130 708 OFFCURVE",
"92 710 CURVE",
"79 658 LINE",
"187 640 LINE",
"153 675 LINE",
"153 664 OFFCURVE",
"153 589 OFFCURVE",
"150 572 CURVE SMOOTH",
"104 266 LINE SMOOTH",
"79 99 OFFCURVE",
"149 -15 OFFCURVE",
"314 -15 CURVE SMOOTH"
);
}
);
width = 722.6;
}
);
leftKerningGroup = UC_U;
rightKerningGroup = UC_U;
unicode = 0055;
},
{
color = 6;
glyphname = V;
layers = (
{
anchors = (
{
name = bottom;
position = "{297, 0}";
},
{
name = top;
position = "{398, 720}";
}
);
color = 6;
layerId = "B953D09C-6DD0-450A-A78C-8C2188DD4016";
paths = (
{
closed = 1;
nodes = (
"357 0 LINE",
"626 541 LINE SMOOTH",
"646 581 OFFCURVE",
"691 642 OFFCURVE",
"701 656 CURVE",
"626 620 LINE",
"706 635 LINE",
"713 710 LINE",
"666 708 OFFCURVE",
"610 705 OFFCURVE",
"584 705 CURVE SMOOTH",
"569 705 OFFCURVE",
"503 708 OFFCURVE",
"468 710 CURVE",
"452 640 LINE",
"598 617 LINE",
"554 660 LINE",
"548 639 OFFCURVE",
"515 553 OFFCURVE",
"503 527 CURVE SMOOTH",
"323 141 LINE",
"356 137 LINE",
"286 541 LINE SMOOTH",
"281 569 OFFCURVE",
"278 644 OFFCURVE",
"278 670 CURVE",
"223 623 LINE",
"359 635 LINE",
"365 710 LINE",
"311 708 OFFCURVE",
"227 705 OFFCURVE",
"192 705 CURVE SMOOTH",
"173 705 OFFCURVE",
"132 708 OFFCURVE",
"92 710 CURVE",
"77 640 LINE",
"171 618 LINE",
"109 652 LINE",
"114 634 OFFCURVE",
"135 560 OFFCURVE",
"142 526 CURVE SMOOTH",
"255 0 LINE"
);
}
);
width = 689;
},
{
anchors = (
{
name = bottom;
position = "{287, 0}";
},
{
name = top;
position = "{388, 720}";
}
);
layerId = "3088057A-3552-44D5-8A67-1301E2609A93";
paths = (
{
closed = 1;
nodes = (
"328 0 LINE",
"585 538 LINE SMOOTH",
"602 573 OFFCURVE",
"650 651 OFFCURVE",
"665 667 CURVE",
"615 641 LINE",
"675 653 LINE",
"680 710 LINE",
"643 708 OFFCURVE",
"606 705 OFFCURVE",
"588 705 CURVE SMOOTH",
"571 705 OFFCURVE",
"493 708 OFFCURVE",
"456 710 CURVE",
"442 657 LINE",
"589 640 LINE",
"561 664 LINE",
"557 649 OFFCURVE",
"541 593 OFFCURVE",
"532 572 CURVE SMOOTH",
"311 112 LINE",
"334 110 LINE",
"238 539 LINE SMOOTH",
"229 575 OFFCURVE",
"224 656 OFFCURVE",
"223 680 CURVE",
"191 643 LINE",
"337 653 LINE",
"341 710 LINE",
"296 708 OFFCURVE",
"208 705 OFFCURVE",
"183 705 CURVE SMOOTH",
"166 705 OFFCURVE",
"130 708 OFFCURVE",
"93 710 CURVE",
"80 658 LINE",
"144 641 LINE",
"99 676 LINE",
"106 657 OFFCURVE",
"133 590 OFFCURVE",
"137 572 CURVE SMOOTH",
"270 0 LINE"
);
}
);
width = 657.1;
}
);
leftKerningGroup = UC_V;
rightKerningGroup = UC_V;
unicode = 0056;
},
{
color = 6;
glyphname = W;
layers = (
{
anchors = (
{
name = bottom;
position = "{458, 0}";
},
{
name = top;
position = "{544, 705}";
}
);
color = 6;
layerId = "B953D09C-6DD0-450A-A78C-8C2188DD4016";
paths = (
{
closed = 1;
nodes = (
"328 0 LINE",
"545 496 LINE",
"514 499 LINE",
"592 0 LINE",
"694 0 LINE",
"936 541 LINE SMOOTH",
"951 575 OFFCURVE",
"993 638 OFFCURVE",
"1007 656 CURVE",
"936 620 LINE",
"1006 635 LINE",
"1013 710 LINE",
"966 708 OFFCURVE",
"920 705 OFFCURVE",
"894 705 CURVE SMOOTH",
"879 705 OFFCURVE",
"813 708 OFFCURVE",
"778 710 CURVE",
"762 640 LINE",
"908 617 LINE",
"864 660 LINE",
"858 638 OFFCURVE",
"826 549 OFFCURVE",
"817 526 CURVE SMOOTH",
"661 140 LINE",
"688 136 LINE",
"619 678 LINE",
"520 678 LINE",
"294 141 LINE",
"321 136 LINE",
"280 541 LINE SMOOTH",
"277 571 OFFCURVE",
"278 642 OFFCURVE",
"278 670 CURVE",
"223 623 LINE",
"359 635 LINE",
"365 710 LINE",
"311 708 OFFCURVE",
"227 705 OFFCURVE",
"192 705 CURVE SMOOTH",
"173 705 OFFCURVE",
"132 708 OFFCURVE",
"92 710 CURVE",
"77 640 LINE",
"171 618 LINE",
"109 652 LINE",
"115 631 OFFCURVE",
"130 559 OFFCURVE",
"136 526 CURVE SMOOTH",
"225 0 LINE"
);
}
);
width = 990;
},
{
anchors = (
{
name = bottom;
position = "{458, 0}";
},
{
name = top;
position = "{544, 705}";
}
);
layerId = "3088057A-3552-44D5-8A67-1301E2609A93";
paths = (
{
closed = 1;
nodes = (
"306 0 LINE",
"540 543 LINE",
"521 546 LINE",
"617 0 LINE",
"675 0 LINE",
"910 538 LINE SMOOTH",
"926 574 OFFCURVE",
"972 645 OFFCURVE",
"988 667 CURVE",
"938 641 LINE",
"1010 653 LINE",
"1015 710 LINE",
"978 708 OFFCURVE",
"929 705 OFFCURVE",
"912 705 CURVE SMOOTH",
"894 705 OFFCURVE",
"827 708 OFFCURVE",
"790 710 CURVE",
"776 657 LINE",
"912 640 LINE",
"884 664 LINE",
"880 649 OFFCURVE",
"863 593 OFFCURVE",
"854 572 CURVE SMOOTH",
"660 111 LINE",
"679 110 LINE",
"587 686 LINE",
"538 686 LINE",
"291 112 LINE",
"309 110 LINE",
"247 539 LINE SMOOTH",
"242 573 OFFCURVE",
"234 657 OFFCURVE",
"233 680 CURVE",
"201 643 LINE",
"336 653 LINE",
"340 710 LINE",
"295 708 OFFCURVE",
"218 705 OFFCURVE",
"193 705 CURVE SMOOTH",
"176 705 OFFCURVE",
"129 708 OFFCURVE",
"92 710 CURVE",
"79 658 LINE",
"153 641 LINE",
"109 676 LINE",
"116 657 OFFCURVE",
"143 590 OFFCURVE",
"146 572 CURVE SMOOTH",
"248 0 LINE"
);
}
);
width = 991.1;
}
);
leftKerningGroup = UC_V;
rightKerningGroup = UC_V;
unicode = 0057;
},
{
color = 6;
glyphname = X;
layers = (
{
anchors = (
{
name = bottom;
position = "{343.672, 0}";
},
{
name = top;
position = "{430.235, 705}";
}
);
color = 6;
layerId = "B953D09C-6DD0-450A-A78C-8C2188DD4016";
paths = (
{
closed = 1;
nodes = (
"53 -3 OFFCURVE",
"116 0 OFFCURVE",
"139 0 CURVE SMOOTH",
"250 0 LINE",
"265 67 LINE",
"157 80 LINE",
"193 42 LINE",
"208 67 OFFCURVE",
"237 113 OFFCURVE",
"253 134 CURVE SMOOTH",
"392 310 LINE",
"331 315 LINE",
"418 148 LINE SMOOTH",
"432 121 OFFCURVE",
"452 65 OFFCURVE",
"459 40 CURVE",
"504 83 LINE",
"399 61 LINE",
"394 -5 LINE",
"444 -3 OFFCURVE",
"515 0 OFFCURVE",
"545 0 CURVE SMOOTH",
"671 0 LINE",
"685 67 LINE",
"579 80 LINE",
"645 57 LINE",
"609 108 OFFCURVE",
"599 124 OFFCURVE",
"589 141 CURVE SMOOTH",
"435 425 LINE",
"427 331 LINE",
"603 558 LINE SMOOTH",
"623 584 OFFCURVE",
"683 633 OFFCURVE",
"701 648 CURVE",
"619 621 LINE",
"746 635 LINE",
"752 710 LINE",
"708 708 OFFCURVE",
"646 705 OFFCURVE",
"620 705 CURVE SMOOTH",
"600 705 OFFCURVE",
"547 708 OFFCURVE",
"510 710 CURVE",
"495 639 LINE",
"595 620 LINE",
"560 664 LINE",
"547 640 OFFCURVE",
"509 585 OFFCURVE",
"494 564 CURVE SMOOTH",
"383 412 LINE",
"441 407 LINE",
"375 541 LINE SMOOTH",
"357 578 OFFCURVE",
"338 634 OFFCURVE",
"334 655 CURVE",
"285 623 LINE",
"390 634 LINE",
"396 710 LINE",
"344 708 OFFCURVE",
"274 705 OFFCURVE",
"240 705 CURVE SMOOTH",
"216 705 OFFCURVE",
"158 708 OFFCURVE",
"117 710 CURVE",
"101 640 LINE",
"213 620 LINE",
"141 656 LINE",
"164 621 OFFCURVE",
"188 577 OFFCURVE",
"204 549 CURVE SMOOTH",
"339 296 LINE",
"348 390 LINE",
"164 165 LINE SMOOTH",
"138 133 OFFCURVE",
"72 74 OFFCURVE",
"49 52 CURVE",
"124 82 LINE",
"14 60 LINE",
"10 -5 LINE"
);
}
);
width = 746;
},
{
anchors = (
{
name = bottom;
position = "{339, 0}";
},
{
name = top;
position = "{424, 705}";
}
);
layerId = "3088057A-3552-44D5-8A67-1301E2609A93";
paths = (
{
closed = 1;
nodes = (
"56 -3 OFFCURVE",
"126 0 OFFCURVE",
"154 0 CURVE SMOOTH",
"249 0 LINE",
"261 53 LINE",
"149 68 LINE",
"175 49 LINE",
"184 66 OFFCURVE",
"217 119 OFFCURVE",
"232 137 CURVE SMOOTH",
"387 332 LINE",
"349 335 LINE",
"438 169 LINE SMOOTH",
"457 132 OFFCURVE",
"485 71 OFFCURVE",
"484 50 CURVE",
"516 72 LINE",
"406 42 LINE",
"404 -5 LINE",
"458 -3 OFFCURVE",
"533 0 OFFCURVE",
"567 0 CURVE SMOOTH",
"659 0 LINE",
"671 53 LINE",
"575 69 LINE",
"620 49 LINE",
"609 61 OFFCURVE",
"566 117 OFFCURVE",
"556 137 CURVE SMOOTH",
"414 398 LINE",
"409 340 LINE",
"559 536 LINE SMOOTH",
"587 572 OFFCURVE",
"663 640 OFFCURVE",
"678 651 CURVE",
"637 642 LINE",
"739 653 LINE",
"744 710 LINE",
"703 708 OFFCURVE",
"652 705 OFFCURVE",
"619 705 CURVE SMOOTH",
"588 705 OFFCURVE",
"539 708 OFFCURVE",
"499 710 CURVE",
"485 657 LINE",
"595 639 LINE",
"569 656 LINE",
"559 643 OFFCURVE",
"527 588 OFFCURVE",
"512 568 CURVE SMOOTH",
"380 391 LINE",
"417 388 LINE",
"337 538 LINE SMOOTH",
"317 574 OFFCURVE",
"298 644 OFFCURVE",
"297 655 CURVE",
"264 643 LINE",
"379 653 LINE",
"383 710 LINE",
"335 708 OFFCURVE",
"280 705 OFFCURVE",
"241 705 CURVE SMOOTH",
"208 705 OFFCURVE",
"158 708 OFFCURVE",
"116 710 CURVE",
"103 658 LINE",
"212 643 LINE",
"170 660 LINE",
"178 649 OFFCURVE",
"208 594 OFFCURVE",
"221 570 CURVE SMOOTH",
"352 326 LINE",
"358 382 LINE",
"183 167 LINE SMOOTH",
"153 131 OFFCURVE",
"85 71 OFFCURVE",
"63 51 CURVE",
"106 70 LINE",
"11 42 LINE",
"8 -5 LINE"
);
}
);
width = 733.9;
}
);
leftKerningGroup = UC_X;
rightKerningGroup = UC_K;
unicode = 0058;
},
{
color = 6;
glyphname = Y;
layers = (
{
anchors = (
{
name = bottom;
position = "{300, 0}";
},
{
name = top;
position = "{401, 720}";
},
{
name = topleft;
position = "{87, 705}";
}
);
color = 6;
layerId = "B953D09C-6DD0-450A-A78C-8C2188DD4016";
paths = (
{
closed = 1;
nodes = (
"397 218 LINE",
"605 541 LINE SMOOTH",
"627 575 OFFCURVE",
"684 640 OFFCURVE",
"696 656 CURVE",
"621 620 LINE",
"701 635 LINE",
"708 710 LINE",
"662 708 OFFCURVE",
"604 705 OFFCURVE",
"579 705 CURVE SMOOTH",
"564 705 OFFCURVE",
"508 708 OFFCURVE",
"473 710 CURVE",
"458 640 LINE",
"594 617 LINE",
"549 660 LINE",
"543 638 OFFCURVE",
"496 548 OFFCURVE",
"483 527 CURVE SMOOTH",
"349 315 LINE",
"398 310 LINE",
"309 556 LINE SMOOTH",
"302 575 OFFCURVE",
"292 647 OFFCURVE",
"292 670 CURVE",
"232 623 LINE",
"358 635 LINE",
"364 710 LINE",
"310 708 OFFCURVE",
"234 705 OFFCURVE",
"201 705 CURVE SMOOTH",
"181 705 OFFCURVE",
"132 708 OFFCURVE",
"92 710 CURVE",
"77 640 LINE",
"179 618 LINE",
"113 652 LINE",
"121 635 OFFCURVE",
"163 556 OFFCURVE",
"174 528 CURVE SMOOTH",
"295 218 LINE"
);
},
{
closed = 1;
nodes = (
"211 -3 OFFCURVE",
"290 0 OFFCURVE",
"318 0 CURVE SMOOTH",
"463 0 LINE",
"477 66 LINE",
"344 79 LINE",
"400 39 LINE",
"400 62 OFFCURVE",
"401 132 OFFCURVE",
"409 186 CURVE SMOOTH",
"430 328 LINE",
"291 328 LINE",
"265 156 LINE SMOOTH",
"261 130 OFFCURVE",
"244 73 OFFCURVE",
"237 47 CURVE",
"300 83 LINE",
"166 60 LINE",
"162 -5 LINE"
);
}
);
width = 683;
},
{
anchors = (
{
name = bottom;
position = "{273, 0}";
},
{
name = top;
position = "{374, 720}";
},
{
name = topleft;
position = "{87, 705}";
}
);
layerId = "3088057A-3552-44D5-8A67-1301E2609A93";
paths = (
{
closed = 1;
nodes = (
"332 238 LINE",
"527 538 LINE SMOOTH",
"551 575 OFFCURVE",
"613 650 OFFCURVE",
"626 667 CURVE",
"577 641 LINE",
"648 653 LINE",
"653 710 LINE",
"616 708 OFFCURVE",
"568 705 OFFCURVE",
"550 705 CURVE SMOOTH",
"533 705 OFFCURVE",
"476 708 OFFCURVE",
"439 710 CURVE",
"425 657 LINE",
"551 640 LINE",
"520 664 LINE",
"517 649 OFFCURVE",
"485 592 OFFCURVE",
"473 572 CURVE SMOOTH",
"313 313 LINE",
"343 310 LINE",
"256 537 LINE SMOOTH",
"246 564 OFFCURVE",
"229 654 OFFCURVE",
"229 680 CURVE",
"200 643 LINE",
"325 653 LINE",
"329 710 LINE",
"284 708 OFFCURVE",
"218 705 OFFCURVE",
"192 705 CURVE SMOOTH",
"176 705 OFFCURVE",
"129 708 OFFCURVE",
"92 710 CURVE",
"79 658 LINE",
"153 641 LINE",
"106 676 LINE",
"116 657 OFFCURVE",
"149 590 OFFCURVE",
"155 572 CURVE SMOOTH",
"275 238 LINE"
);
},
{
closed = 1;
nodes = (
"182 -3 OFFCURVE",
"257 0 OFFCURVE",
"282 0 CURVE SMOOTH",
"414 0 LINE",
"428 53 LINE",
"297 63 LINE",
"331 27 LINE",
"329 59 OFFCURVE",
"335 130 OFFCURVE",
"340 165 CURVE SMOOTH",
"361 310 LINE",
"275 310 LINE",
"249 135 LINE SMOOTH",
"246 116 OFFCURVE",
"226 49 OFFCURVE",
"219 22 CURVE",
"264 67 LINE",
"140 44 LINE",
"138 -5 LINE"
);
}
);
width = 629.1;
}
);
leftKerningGroup = UC_V;
rightKerningGroup = UC_V;
unicode = 0059;
},
{
color = 6;
glyphname = Z;
layers = (
{
anchors = (
{
name = bottom;
position = "{276, 0}";
},
{
name = center;
position = "{326, 353}";
},
{
name = top;
position = "{367, 720}";
}
);
color = 6;
layerId = "B953D09C-6DD0-450A-A78C-8C2188DD4016";
paths = (
{
closed = 1;
nodes = (
"529 14 LINE",
"567 192 LINE",
"504 197 LINE",
"500 181 OFFCURVE",
"489 148 OFFCURVE",
"483 134 CURVE SMOOTH",
"478 121 OFFCURVE",
"451 79 OFFCURVE",
"429 48 CURVE",
"508 98 LINE",
"485 93 OFFCURVE",
"415 81 OFFCURVE",
"374 81 CURVE SMOOTH",
"157 81 LINE",
"194 50 LINE",
"224 98 OFFCURVE",
"267 171 OFFCURVE",
"289 201 CURVE SMOOTH",
"487 471 LINE SMOOTH",
"520 516 OFFCURVE",
"564 572 OFFCURVE",
"611 631 CURVE",
"612 705 LINE",
"253 705 LINE SMOOTH",
"237 705 OFFCURVE",
"182 710 OFFCURVE",
"143 714 CURVE",
"121 696 LINE",
"90 516 LINE",
"157 511 LINE",
"162 532 OFFCURVE",
"173 571 OFFCURVE",
"177 580 CURVE SMOOTH",
"183 593 OFFCURVE",
"208 635 OFFCURVE",
"227 666 CURVE",
"173 618 LINE",
"184 618 OFFCURVE",
"236 624 OFFCURVE",
"279 624 CURVE SMOOTH",
"491 624 LINE",
"454 657 LINE",
"429 613 OFFCURVE",
"395 553 OFFCURVE",
"372 522 CURVE SMOOTH",
"158 232 LINE SMOOTH",
"131 195 OFFCURVE",
"81 136 OFFCURVE",
"29 74 CURVE",
"28 0 LINE",
"396 0 LINE SMOOTH",
"415 0 OFFCURVE",
"469 -2 OFFCURVE",
"506 -4 CURVE"
);
}
);
width = 623;
},
{
anchors = (
{
name = bottom;
position = "{245, 0}";
},
{
name = center;
position = "{306, 353}";
},
{
name = top;
position = "{347, 720}";
}
);
layerId = "3088057A-3552-44D5-8A67-1301E2609A93";
paths = (
{
closed = 1;
nodes = (
"488 14 LINE",
"524 173 LINE",
"472 178 LINE",
"467 161 OFFCURVE",
"455 115 OFFCURVE",
"448 100 CURVE SMOOTH",
"442 86 OFFCURVE",
"421 61 OFFCURVE",
"406 44 CURVE",
"466 72 LINE",
"449 68 OFFCURVE",
"374 55 OFFCURVE",
"337 55 CURVE SMOOTH",
"103 55 LINE",
"125 36 LINE",
"153 78 OFFCURVE",
"192 141 OFFCURVE",
"209 164 CURVE SMOOTH",
"451 496 LINE SMOOTH",
"479 536 OFFCURVE",
"540 606 OFFCURVE",
"577 651 CURVE",
"577 705 LINE",
"259 705 LINE SMOOTH",
"241 705 OFFCURVE",
"185 708 OFFCURVE",
"149 710 CURVE",
"128 692 LINE",
"96 529 LINE",
"153 524 LINE",
"159 547 OFFCURVE",
"171 594 OFFCURVE",
"178 610 CURVE SMOOTH",
"182 618 OFFCURVE",
"204 649 OFFCURVE",
"215 664 CURVE",
"185 646 LINE",
"196 647 OFFCURVE",
"246 652 OFFCURVE",
"279 652 CURVE SMOOTH",
"497 652 LINE",
"475 671 LINE",
"449 628 OFFCURVE",
"414 572 OFFCURVE",
"390 540 CURVE SMOOTH",
"151 218 LINE SMOOTH",
"132 192 OFFCURVE",
"66 106 OFFCURVE",
"22 55 CURVE",
"21 0 LINE",
"358 0 LINE SMOOTH",
"385 0 OFFCURVE",
"431 -2 OFFCURVE",
"468 -4 CURVE"
);
}
);
width = 582.3;
}
);
leftKerningGroup = UC_Z;
rightKerningGroup = UC_Z;
unicode = 005A;
},
{
color = 6;
glyphname = saltillo.case;
layers = (
{
color = 6;
layerId = "B953D09C-6DD0-450A-A78C-8C2188DD4016";
paths = (
{
closed = 1;
nodes = (
"192 638 LINE",
"176 655 LINE",
"77 655 LINE",
"77 655 OFFCURVE",
"73 458 OFFCURVE",
"71 443 CURVE",
"37 260 LINE",
"113 253 LINE"
);
}
);
width = 167;
},
{
layerId = "3088057A-3552-44D5-8A67-1301E2609A93";
paths = (
{
closed = 1;
nodes = (
"167 638 LINE",
"151 655 LINE",
"83 655 LINE",
"83 655 OFFCURVE",
"74 459 OFFCURVE",
"72 444 CURVE",
"39 269 LINE",
"88 265 LINE"
);
}
);
width = 141.7;
}
);
leftKerningGroup = saltillo;
rightKerningGroup = saltillo;
userData = {
RMXScaler = {
source = saltillo;
};
};
},
{
color = 6;
glyphname = C.ss02;
layers = (
{
anchors = (
{
name = bottom;
position = "{405, 34}";
},
{
name = top;
position = "{484, 669}";
}
);
color = 6;
layerId = "B953D09C-6DD0-450A-A78C-8C2188DD4016";
paths = (
{
closed = 1;
nodes = (
"470 20 OFFCURVE",
"546 36 OFFCURVE",
"607 50 CURVE",
"620 212 LINE",
"546 210 LINE",
"546 210 OFFCURVE",
"539 178 OFFCURVE",
"537 168 CURVE",
"536 155 OFFCURVE",
"504 104 OFFCURVE",
"491 83 CURVE",
"570 139 LINE",
"493 122 OFFCURVE",
"456 115 OFFCURVE",
"402 115 CURVE SMOOTH",
"312 115 OFFCURVE",
"279 186 OFFCURVE",
"279 282 CURVE SMOOTH",
"279 464 OFFCURVE",
"352 585 OFFCURVE",
"462 585 CURVE SMOOTH",
"518 585 OFFCURVE",
"552 577 OFFCURVE",
"614 563 CURVE",
"552 618 LINE",
"559 589 OFFCURVE",
"571 552 OFFCURVE",
"570 542 CURVE SMOOTH",
"565 482 LINE",
"640 478 LINE",
"674 650 LINE",
"615 667 OFFCURVE",
"556 681 OFFCURVE",
"474 681 CURVE SMOOTH",
"245 681 OFFCURVE",
"94 526 OFFCURVE",
"94 292 CURVE SMOOTH",
"94 129 OFFCURVE",
"192 20 OFFCURVE",
"391 20 CURVE SMOOTH"
);
},
{
closed = 1;
nodes = (
"683 0 LINE",
"695 60 LINE",
"34 60 LINE",
"31 0 LINE"
);
},
{
closed = 1;
nodes = (
"776 645 LINE",
"779 705 LINE",
"119 705 LINE",
"114 645 LINE"
);
}
);
userData = {
RMXScaler = {
height = 90;
verticalShift = 34;
width = 95;
};
};
width = 761;
},
{
anchors = (
{
name = bottom;
position = "{378, 34}";
},
{
name = top;
position = "{463, 669}";
}
);
layerId = "3088057A-3552-44D5-8A67-1301E2609A93";
paths = (
{
closed = 1;
nodes = (
"449 21 OFFCURVE",
"517 37 OFFCURVE",
"577 51 CURVE",
"590 190 LINE",
"535 188 LINE",
"535 188 OFFCURVE",
"529 155 OFFCURVE",
"527 146 CURVE",
"525 134 OFFCURVE",
"508 99 OFFCURVE",
"493 70 CURVE",
"529 104 LINE",
"486 89 OFFCURVE",
"425 78 OFFCURVE",
"379 78 CURVE SMOOTH",
"269 78 OFFCURVE",
"219 167 OFFCURVE",
"219 289 CURVE SMOOTH",
"219 483 OFFCURVE",
"318 625 OFFCURVE",
"453 625 CURVE SMOOTH",
"497 625 OFFCURVE",
"551 612 OFFCURVE",
"588 597 CURVE",
"562 631 LINE",
"566 609 OFFCURVE",
"574 574 OFFCURVE",
"572 562 CURVE SMOOTH",
"566 517 LINE",
"621 513 LINE",
"650 651 LINE",
"590 667 OFFCURVE",
"538 682 OFFCURVE",
"462 682 CURVE SMOOTH",
"256 682 OFFCURVE",
"117 522 OFFCURVE",
"117 285 CURVE SMOOTH",
"117 126 OFFCURVE",
"201 21 OFFCURVE",
"372 21 CURVE SMOOTH"
);
},
{
closed = 1;
nodes = (
"629 0 LINE",
"640 42 LINE",
"14 42 LINE",
"13 0 LINE"
);
},
{
closed = 1;
nodes = (
"723 659 LINE",
"724 705 LINE",
"109 705 LINE",
"98 659 LINE"
);
}
);
userData = {
RMXScaler = {
height = 90;
verticalShift = 34;
width = 95;
};
};
width = 708.2;
}
);
leftKerningGroup = C.ss02;
rightKerningGroup = C.ss02;
script = latin;
category = Letter;
subCategory = Other;
userData = {
RMXScaler = {
source = C;
};
};
},
{
color = 6;
glyphname = D.ss02;
layers = (
{
color = 6;
layerId = "B953D09C-6DD0-450A-A78C-8C2188DD4016";
paths = (
{
closed = 1;
nodes = (
"613 26 OFFCURVE",
"758 183 OFFCURVE",
"758 405 CURVE SMOOTH",
"758 562 OFFCURVE",
"661 673 OFFCURVE",
"464 673 CURVE SMOOTH",
"212 673 LINE",
"216 610 OFFCURVE",
"216 550 OFFCURVE",
"212 513 CURVE SMOOTH",
"172 190 LINE SMOOTH",
"170 178 OFFCURVE",
"169 163 OFFCURVE",
"134 37 CURVE",
"384 31 LINE SMOOTH"
);
},
{
closed = 1;
nodes = (
"734 0 LINE",
"747 60 LINE",
"18 60 LINE",
"15 0 LINE"
);
},
{
closed = 1;
nodes = (
"321 80 OFFCURVE",
"330 180 OFFCURVE",
"334 217 CURVE SMOOTH",
"368 486 LINE SMOOTH",
"373 524 OFFCURVE",
"391 619 OFFCURVE",
"392 633 CURVE",
"351 585 LINE",
"368 587 OFFCURVE",
"423 590 OFFCURVE",
"437 590 CURVE SMOOTH",
"548 590 OFFCURVE",
"586 513 OFFCURVE",
"586 413 CURVE SMOOTH",
"586 227 OFFCURVE",
"506 112 OFFCURVE",
"375 112 CURVE SMOOTH",
"345 112 OFFCURVE",
"303 114 OFFCURVE",
"288 115 CURVE",
"323 64 LINE"
);
},
{
closed = 1;
nodes = (
"820 645 LINE",
"823 705 LINE",
"103 705 LINE",
"98 645 LINE"
);
}
);
userData = {
RMXScaler = {
height = 90;
verticalShift = 34;
width = 95;
};
};
width = 824;
},
{
layerId = "3088057A-3552-44D5-8A67-1301E2609A93";
paths = (
{
closed = 1;
nodes = (
"515 30 OFFCURVE",
"667 185 OFFCURVE",
"667 409 CURVE SMOOTH",
"667 571 OFFCURVE",
"570 673 OFFCURVE",
"387 673 CURVE SMOOTH",
"181 673 LINE",
"179 632 OFFCURVE",
"179 549 OFFCURVE",
"178 542 CURVE SMOOTH",
"126 161 LINE SMOOTH",
"124 146 OFFCURVE",
"104 76 OFFCURVE",
"91 29 CURVE",
"299 30 LINE"
);
},
{
closed = 1;
nodes = (
"659 0 LINE",
"670 42 LINE",
"14 42 LINE",
"13 0 LINE"
);
},
{
closed = 1;
nodes = (
"214 86 OFFCURVE",
"213 131 OFFCURVE",
"222 188 CURVE SMOOTH",
"266 515 LINE SMOOTH",
"271 552 OFFCURVE",
"288 629 OFFCURVE",
"293 642 CURVE",
"270 615 LINE",
"291 615 OFFCURVE",
"332 615 OFFCURVE",
"380 615 CURVE SMOOTH",
"512 615 OFFCURVE",
"570 522 OFFCURVE",
"570 402 CURVE SMOOTH",
"570 218 OFFCURVE",
"461 87 OFFCURVE",
"309 87 CURVE SMOOTH",
"260 87 OFFCURVE",
"222 90 OFFCURVE",
"198 90 CURVE",
"213 66 LINE"
);
},
{
closed = 1;
nodes = (
"754 659 LINE",
"756 705 LINE",
"109 705 LINE",
"97 659 LINE"
);
}
);
userData = {
RMXScaler = {
height = 90;
verticalShift = 34;
width = 95;
};
};
width = 743.7;
}
);
leftKerningGroup = D.ss02;
rightKerningGroup = D.ss02;
script = latin;
category = Letter;
subCategory = Other;
userData = {
RMXScaler = {
source = D;
};
};
},
{
color = 6;
glyphname = I.ss02;
layers = (
{
anchors = (
{
name = bottom;
position = "{258, 34}";
},
{
name = ogonek;
position = "{258, 34}";
},
{
name = top;
position = "{339, 669}";
}
);
color = 6;
layerId = "B953D09C-6DD0-450A-A78C-8C2188DD4016";
paths = (
{
closed = 1;
nodes = (
"335 54 LINE",
"333 87 OFFCURVE",
"335 172 OFFCURVE",
"340 217 CURVE SMOOTH",
"374 486 LINE SMOOTH",
"381 539 OFFCURVE",
"397 605 OFFCURVE",
"414 660 CURVE",
"219 657 LINE",
"224 617 OFFCURVE",
"221 542 OFFCURVE",
"218 513 CURVE SMOOTH",
"176 190 LINE SMOOTH",
"172 159 OFFCURVE",
"152 89 OFFCURVE",
"142 54 CURVE"
);
},
{
closed = 1;
nodes = (
"446 0 LINE",
"459 60 LINE",
"18 60 LINE",
"15 0 LINE"
);
},
{
closed = 1;
nodes = (
"531 645 LINE",
"534 705 LINE",
"103 705 LINE",
"98 645 LINE"
);
}
);
userData = {
RMXScaler = {
height = 90;
verticalShift = 34;
width = 95;
};
};
width = 523;
},
{
anchors = (
{
name = bottom;
position = "{191, 34}";
},
{
name = ogonek;
position = "{191, 34}";
},
{
name = top;
position = "{288, 669}";
}
);
layerId = "3088057A-3552-44D5-8A67-1301E2609A93";
paths = (
{
closed = 1;
nodes = (
"249 36 LINE",
"248 57 OFFCURVE",
"254 138 OFFCURVE",
"261 188 CURVE SMOOTH",
"310 515 LINE SMOOTH",
"317 561 OFFCURVE",
"338 651 OFFCURVE",
"345 672 CURVE",
"229 671 LINE",
"230 650 OFFCURVE",
"224 563 OFFCURVE",
"221 542 CURVE SMOOTH",
"164 161 LINE SMOOTH",
"161 140 OFFCURVE",
"138 54 OFFCURVE",
"132 36 CURVE"
);
},
{
closed = 1;
nodes = (
"379 0 LINE",
"390 42 LINE",
"8 42 LINE",
"6 0 LINE"
);
},
{
closed = 1;
nodes = (
"484 659 LINE",
"487 705 LINE",
"114 705 LINE",
"104 659 LINE"
);
}
);
userData = {
RMXScaler = {
height = 90;
verticalShift = 34;
width = 95;
};
};
width = 462.5;
}
);
leftKerningGroup = I.ss02;
rightKerningGroup = I.ss02;
script = latin;
category = Letter;
subCategory = Other;
userData = {
RMXScaler = {
source = I;
};
};
},
{
color = 6;
glyphname = L.ss02;
layers = (
{
anchors = (
{
name = bottom;
position = "{289, 34}";
},
{
name = center;
position = "{228, 354}";
},
{
name = centerright;
position = "{488, 352}";
},
{
name = top;
position = "{368, 669}";
},
{
name = topright;
position = "{503, 479}";
}
);
color = 6;
layerId = "B953D09C-6DD0-450A-A78C-8C2188DD4016";
paths = (
{
closed = 1;
nodes = (
"393 34 LINE",
"411 34 OFFCURVE",
"499 30 OFFCURVE",
"499 30 CURVE",
"519 47 LINE",
"553 214 LINE",
"485 218 LINE",
"481 202 OFFCURVE",
"476 189 OFFCURVE",
"468 169 CURVE SMOOTH",
"461 151 OFFCURVE",
"443 117 OFFCURVE",
"400 70 CURVE",
"472 136 LINE",
"461 133 OFFCURVE",
"420 123 OFFCURVE",
"376 123 CURVE SMOOTH",
"256 123 LINE",
"294 54 LINE",
"292 87 OFFCURVE",
"291 168 OFFCURVE",
"298 217 CURVE SMOOTH",
"332 486 LINE SMOOTH",
"340 546 OFFCURVE",
"357 612 OFFCURVE",
"371 660 CURVE",
"177 657 LINE",
"183 614 OFFCURVE",
"179 543 OFFCURVE",
"176 513 CURVE SMOOTH",
"136 190 LINE SMOOTH",
"132 158 OFFCURVE",
"111 86 OFFCURVE",
"102 54 CURVE",
"99 30 LINE"
);
},
{
closed = 1;
nodes = (
"569 0 LINE",
"582 60 LINE",
"13 60 LINE",
"10 0 LINE"
);
},
{
closed = 1;
nodes = (
"644 645 LINE",
"646 705 LINE",
"107 705 LINE",
"102 645 LINE"
);
}
);
userData = {
RMXScaler = {
height = 90;
verticalShift = 34;
width = 95;
};
};
width = 647;
},
{
anchors = (
{
name = bottom;
position = "{233, 34}";
},
{
name = center;
position = "{182, 354}";
},
{
name = centerright;
position = "{442, 352}";
},
{
name = top;
position = "{316, 669}";
},
{
name = topright;
position = "{458, 479}";
}
);
layerId = "3088057A-3552-44D5-8A67-1301E2609A93";
paths = (
{
closed = 1;
nodes = (
"358 34 LINE",
"375 34 OFFCURVE",
"463 30 OFFCURVE",
"463 30 CURVE",
"478 28 LINE",
"515 187 LINE",
"463 191 LINE",
"460 179 OFFCURVE",
"447 147 OFFCURVE",
"442 132 CURVE SMOOTH",
"437 119 OFFCURVE",
"423 103 OFFCURVE",
"397 72 CURVE",
"434 101 LINE",
"419 98 OFFCURVE",
"374 90 OFFCURVE",
"336 90 CURVE SMOOTH",
"196 90 LINE",
"229 58 LINE",
"228 77 OFFCURVE",
"227 132 OFFCURVE",
"234 188 CURVE SMOOTH",
"277 515 LINE SMOOTH",
"284 567 OFFCURVE",
"301 635 OFFCURVE",
"307 661 CURVE",
"194 660 LINE",
"196 635 OFFCURVE",
"193 557 OFFCURVE",
"191 542 CURVE SMOOTH",
"142 161 LINE SMOOTH",
"139 140 OFFCURVE",
"121 81 OFFCURVE",
"114 58 CURVE",
"111 30 LINE"
);
},
{
closed = 1;
nodes = (
"554 0 LINE",
"564 42 LINE",
"15 42 LINE",
"14 0 LINE"
);
},
{
closed = 1;
nodes = (
"625 659 LINE",
"626 705 LINE",
"107 705 LINE",
"95 659 LINE"
);
}
);
userData = {
RMXScaler = {
height = 90;
verticalShift = 34;
width = 95;
};
};
width = 628.3;
}
);
leftKerningGroup = L.ss02;
rightKerningGroup = L.ss02;
script = latin;
category = Letter;
subCategory = Other;
userData = {
RMXScaler = {
source = L;
};
};
},
{
color = 6;
glyphname = M.ss02;
layers = (
{
anchors = (
{
name = bottom;
position = "{512, 34}";
}
);
color = 6;
layerId = "B953D09C-6DD0-450A-A78C-8C2188DD4016";
paths = (
{
closed = 1;
nodes = (
"234 48 LINE",
"236 93 OFFCURVE",
"240 163 OFFCURVE",
"250 217 CURVE SMOOTH",
"310 543 LINE",
"286 540 LINE",
"426 100 LINE",
"519 100 LINE",
"775 539 LINE",
"751 543 LINE",
"725 190 LINE SMOOTH",
"723 160 OFFCURVE",
"705 76 OFFCURVE",
"700 48 CURVE",
"871 48 LINE",
"868 64 OFFCURVE",
"864 162 OFFCURVE",
"866 215 CURVE SMOOTH",
"878 486 LINE SMOOTH",
"880 535 OFFCURVE",
"891 600 OFFCURVE",
"900 673 CURVE",
"729 669 LINE",
"707 651 LINE",
"707 651 OFFCURVE",
"664 552 OFFCURVE",
"653 532 CURVE SMOOTH",
"485 222 LINE",
"525 222 LINE",
"442 517 LINE SMOOTH",
"432 552 OFFCURVE",
"417 651 OFFCURVE",
"417 651 CURVE",
"399 669 LINE",
"208 673 LINE",
"204 600 OFFCURVE",
"201 529 OFFCURVE",
"198 512 CURVE SMOOTH",
"135 190 LINE SMOOTH",
"129 160 OFFCURVE",
"110 97 OFFCURVE",
"93 48 CURVE"
);
},
{
closed = 1;
nodes = (
"944 0 LINE",
"957 60 LINE",
"11 60 LINE",
"8 0 LINE"
);
},
{
closed = 1;
nodes = (
"1006 645 LINE",
"1008 705 LINE",
"115 705 LINE",
"110 645 LINE"
);
}
);
userData = {
RMXScaler = {
height = 90;
verticalShift = 34;
};
};
width = 1017;
},
{
anchors = (
{
name = bottom;
position = "{424, 34}";
}
);
layerId = "3088057A-3552-44D5-8A67-1301E2609A93";
paths = (
{
closed = 1;
nodes = (
"177 36 LINE",
"176 53 OFFCURVE",
"182 158 OFFCURVE",
"187 188 CURVE SMOOTH",
"265 586 LINE",
"251 584 LINE",
"416 100 LINE",
"449 100 LINE",
"741 584 LINE",
"727 586 LINE",
"702 161 LINE SMOOTH",
"700 130 OFFCURVE",
"678 52 OFFCURVE",
"674 36 CURVE",
"800 36 LINE",
"795 67 OFFCURVE",
"791 169 OFFCURVE",
"792 188 CURVE SMOOTH",
"808 515 LINE SMOOTH",
"809 536 OFFCURVE",
"815 571 OFFCURVE",
"832 673 CURVE",
"729 669 LINE",
"707 651 LINE",
"707 651 OFFCURVE",
"650 539 OFFCURVE",
"637 519 CURVE",
"448 200 LINE",
"473 200 LINE",
"369 510 LINE",
"364 534 OFFCURVE",
"336 650 OFFCURVE",
"336 650 CURVE",
"320 669 LINE",
"201 673 LINE",
"203 629 OFFCURVE",
"200 564 OFFCURVE",
"196 542 CURVE SMOOTH",
"121 161 LINE SMOOTH",
"117 141 OFFCURVE",
"84 54 OFFCURVE",
"77 36 CURVE"
);
},
{
closed = 1;
nodes = (
"851 0 LINE",
"861 42 LINE",
"15 42 LINE",
"15 0 LINE"
);
},
{
closed = 1;
nodes = (
"943 659 LINE",
"944 705 LINE",
"106 705 LINE",
"95 659 LINE"
);
}
);
userData = {
RMXScaler = {
height = 90;
verticalShift = 34;
};
};
width = 929;
}
);
leftKerningGroup = M.ss02;
rightKerningGroup = M.ss02;
script = latin;
category = Letter;
subCategory = Other;
userData = {
RMXScaler = {
source = M;
};
};
},
{
color = 6;
glyphname = V.ss02;
layers = (
{
anchors = (
{
name = bottom;
position = "{397, 34}";
},
{
name = top;
position = "{476, 669}";
}
);
color = 6;
layerId = "B953D09C-6DD0-450A-A78C-8C2188DD4016";
paths = (
{
closed = 1;
nodes = (
"460 56 LINE",
"701 505 LINE SMOOTH",
"720 540 OFFCURVE",
"783 633 OFFCURVE",
"795 648 CURVE",
"629 648 LINE",
"624 628 OFFCURVE",
"595 552 OFFCURVE",
"585 531 CURVE SMOOTH",
"415 200 LINE",
"454 200 LINE",
"382 509 LINE SMOOTH",
"378 527 OFFCURVE",
"362 619 OFFCURVE",
"365 649 CURVE",
"173 648 LINE",
"177 638 OFFCURVE",
"203 573 OFFCURVE",
"210 546 CURVE SMOOTH",
"344 56 LINE"
);
},
{
closed = 1;
nodes = (
"742 0 LINE",
"755 60 LINE",
"67 60 LINE",
"64 0 LINE"
);
},
{
closed = 1;
nodes = (
"880 646 LINE",
"882 706 LINE",
"94 706 LINE",
"89 646 LINE"
);
}
);
userData = {
RMXScaler = {
height = 90;
verticalShift = 34;
};
};
width = 856;
},
{
anchors = (
{
name = bottom;
position = "{390, 34}";
},
{
name = top;
position = "{473, 669}";
}
);
layerId = "3088057A-3552-44D5-8A67-1301E2609A93";
paths = (
{
closed = 1;
nodes = (
"431 37 LINE",
"696 550 LINE",
"726 604 OFFCURVE",
"758 647 OFFCURVE",
"771 666 CURVE",
"664 668 LINE",
"660 648 OFFCURVE",
"653 603 OFFCURVE",
"641 579 CURVE SMOOTH",
"414 145 LINE",
"438 145 LINE",
"316 541 LINE",
"301 582 OFFCURVE",
"298 642 OFFCURVE",
"298 667 CURVE",
"173 661 LINE",
"180 646 OFFCURVE",
"204 604 OFFCURVE",
"217 564 CURVE SMOOTH",
"375 37 LINE"
);
},
{
closed = 1;
nodes = (
"722 0 LINE",
"733 42 LINE",
"49 42 LINE",
"49 0 LINE"
);
},
{
closed = 1;
nodes = (
"851 659 LINE",
"852 705 LINE",
"102 705 LINE",
"90 659 LINE"
);
}
);
userData = {
RMXScaler = {
height = 90;
verticalShift = 34;
};
};
width = 827.4;
}
);
leftKerningGroup = V.ss02;
rightKerningGroup = V.ss02;
script = latin;
category = Letter;
subCategory = Other;
userData = {
RMXScaler = {
source = V;
};
};
},
{
color = 6;
glyphname = X.ss02;
layers = (
{
color = 6;
layerId = "B953D09C-6DD0-450A-A78C-8C2188DD4016";
paths = (
{
closed = 1;
nodes = (
"278 58 OFFCURVE",
"304 98 OFFCURVE",
"321 123 CURVE SMOOTH",
"448 299 LINE",
"374 299 LINE",
"456 132 LINE SMOOTH",
"471 101 OFFCURVE",
"487 60 OFFCURVE",
"496 39 CURVE",
"710 42 LINE",
"686 72 OFFCURVE",
"668 103 OFFCURVE",
"656 123 CURVE SMOOTH",
"492 431 LINE",
"481 322 LINE",
"665 575 LINE SMOOTH",
"675 589 OFFCURVE",
"703 622 OFFCURVE",
"737 655 CURVE",
"598 677 LINE",
"551 601 OFFCURVE",
"555 609 OFFCURVE",
"539 584 CURVE SMOOTH",
"428 417 LINE",
"498 417 LINE",
"436 564 LINE SMOOTH",
"422 598 OFFCURVE",
"410 631 OFFCURVE",
"402 655 CURVE",
"182 655 LINE",
"203 624 OFFCURVE",
"225 592 OFFCURVE",
"238 566 CURVE SMOOTH",
"382 284 LINE",
"396 393 LINE",
"214 152 LINE SMOOTH",
"195 127 OFFCURVE",
"135 70 OFFCURVE",
"116 51 CURVE",
"265 37 LINE"
);
},
{
closed = 1;
nodes = (
"740 0 LINE",
"752 60 LINE",
"19 60 LINE",
"15 0 LINE"
);
},
{
closed = 1;
nodes = (
"825 646 LINE",
"829 706 LINE",
"103 706 LINE",
"101 646 LINE"
);
}
);
userData = {
RMXScaler = {
height = 90;
verticalShift = 34;
width = 95;
};
};
width = 816;
},
{
layerId = "3088057A-3552-44D5-8A67-1301E2609A93";
paths = (
{
closed = 1;
nodes = (
"202 65 OFFCURVE",
"227 104 OFFCURVE",
"242 123 CURVE SMOOTH",
"396 328 LINE",
"361 328 LINE",
"454 132 LINE SMOOTH",
"469 100 OFFCURVE",
"482 64 OFFCURVE",
"491 42 CURVE",
"625 42 LINE",
"605 67 OFFCURVE",
"573 110 OFFCURVE",
"566 123 CURVE SMOOTH",
"429 397 LINE",
"422 335 LINE",
"578 550 LINE SMOOTH",
"588 564 OFFCURVE",
"662 650 OFFCURVE",
"675 664 CURVE",
"579 662 LINE",
"536 596 OFFCURVE",
"541 606 OFFCURVE",
"527 584 CURVE SMOOTH",
"392 390 LINE",
"432 391 LINE",
"352 564 LINE SMOOTH",
"337 597 OFFCURVE",
"322 653 OFFCURVE",
"317 665 CURVE",
"185 663 LINE",
"194 649 OFFCURVE",
"234 590 OFFCURVE",
"246 566 CURVE SMOOTH",
"363 321 LINE",
"369 382 LINE",
"191 152 LINE SMOOTH",
"171 126 OFFCURVE",
"98 56 OFFCURVE",
"84 42 CURVE",
"189 44 LINE"
);
},
{
closed = 1;
nodes = (
"687 0 LINE",
"697 42 LINE",
"15 42 LINE",
"13 0 LINE"
);
},
{
closed = 1;
nodes = (
"778 659 LINE",
"781 705 LINE",
"105 705 LINE",
"97 659 LINE"
);
}
);
userData = {
RMXScaler = {
height = 90;
verticalShift = 34;
width = 95;
};
};
width = 764.3;
}
);
leftKerningGroup = X.ss02;
rightKerningGroup = X.ss02;
script = latin;
category = Letter;
subCategory = Other;
userData = {
RMXScaler = {
source = X;
};
};
},
{
color = 6;
glyphname = A;
layers = (
{
anchors = (
{
name = bottom;
position = "{319, 0}";
},
{
name = ogonek;
position = "{585, 10}";
},
{
name = top;
position = "{420, 705}";
}
);
color = 6;
layerId = "B953D09C-6DD0-450A-A78C-8C2188DD4016";
paths = (
{
closed = 1;
nodes = (
"43 -3 OFFCURVE",
"105 0 OFFCURVE",
"127 0 CURVE SMOOTH",
"235 0 LINE",
"249 67 LINE",
"135 80 LINE",
"188 35 LINE",
"190 62 OFFCURVE",
"194 97 OFFCURVE",
"204 120 CURVE SMOOTH",
"418 601 LINE",
"369 587 LINE",
"431 139 LINE SMOOTH",
"435 113 OFFCURVE",
"429 61 OFFCURVE",
"427 44 CURVE",
"486 85 LINE",
"369 61 LINE",
"363 -5 LINE",
"412 -3 OFFCURVE",
"480 0 OFFCURVE",
"510 0 CURVE SMOOTH",
"636 0 LINE",
"650 67 LINE",
"539 79 LINE",
"606 45 LINE",
"599 59 OFFCURVE",
"585 103 OFFCURVE",
"580 130 CURVE SMOOTH",
"467 716 LINE",
"366 705 LINE",
"109 162 LINE SMOOTH",
"89 120 OFFCURVE",
"50 66 OFFCURVE",
"40 50 CURVE",
"109 81 LINE",
"5 60 LINE",
"1 -5 LINE"
);
},
{
closed = 1;
nodes = (
"447 192 LINE",
"437 269 LINE",
"247 266 LINE",
"215 192 LINE"
);
}
);
width = 700;
},
{
anchors = (
{
name = bottom;
position = "{314, 0}";
},
{
name = ogonek;
position = "{574, 10}";
},
{
name = top;
position = "{404, 705}";
}
);
layerId = "3088057A-3552-44D5-8A67-1301E2609A93";
paths = (
{
closed = 1;
nodes = (
"45 -3 OFFCURVE",
"108 0 OFFCURVE",
"133 0 CURVE SMOOTH",
"215 0 LINE",
"227 53 LINE",
"126 68 LINE",
"156 43 LINE",
"159 68 OFFCURVE",
"175 119 OFFCURVE",
"184 139 CURVE SMOOTH",
"385 576 LINE",
"375 576 LINE",
"454 170 LINE SMOOTH",
"461 132 OFFCURVE",
"464 62 OFFCURVE",
"466 33 CURVE",
"497 73 LINE",
"390 42 LINE",
"386 -5 LINE",
"433 -3 OFFCURVE",
"501 0 OFFCURVE",
"528 0 CURVE SMOOTH",
"623 0 LINE",
"635 53 LINE",
"542 69 LINE",
"584 41 LINE",
"579 54 OFFCURVE",
"558 118 OFFCURVE",
"554 138 CURVE SMOOTH",
"430 715 LINE",
"374 705 LINE",
"128 168 LINE SMOOTH",
"111 130 OFFCURVE",
"68 57 OFFCURVE",
"59 45 CURVE",
"101 69 LINE",
"4 42 LINE",
"1 -5 LINE"
);
},
{
closed = 1;
nodes = (
"451 236 LINE",
"448 288 LINE",
"235 284 LINE",
"214 236 LINE"
);
}
);
width = 689;
}
);
leftKerningGroup = UC_A;
rightKerningGroup = UC_A;
unicode = 0041;
subCategory = Uppercase;
},
{
color = 6;
glyphname = Nhookleft;
layers = (
{
anchors = (
{
name = bottom;
position = "{350, 0}";
},
{
name = top;
position = "{449, 705}";
}
);
color = 6;
layerId = "B953D09C-6DD0-450A-A78C-8C2188DD4016";
paths = (
{
closed = 1;
nodes = (
"72 -202 OFFCURVE",
"180 -122 OFFCURVE",
"195 -3 CURVE SMOOTH",
"213 139 OFFCURVE",
"236 294 OFFCURVE",
"268 512 CURVE",
"229 505 LINE",
"503 0 LINE",
"640 0 LINE",
"719 542 LINE SMOOTH",
"723 571 OFFCURVE",
"738 617 OFFCURVE",
"752 657 CURVE",
"677 617 LINE",
"804 629 LINE",
"811 710 LINE",
"769 708 OFFCURVE",
"687 705 OFFCURVE",
"655 705 CURVE SMOOTH",
"640 705 OFFCURVE",
"585 708 OFFCURVE",
"550 710 CURVE",
"534 635 LINE",
"657 611 LINE",
"595 672 LINE",
"595 644 OFFCURVE",
"597 581 OFFCURVE",
"587 512 CURVE SMOOTH",
"537 168 LINE",
"576 175 LINE",
"380 537 LINE",
"317 685 LINE",
"302 705 LINE",
"223 705 LINE SMOOTH",
"203 705 OFFCURVE",
"143 708 OFFCURVE",
"103 710 CURVE",
"87 635 LINE",
"210 611 LINE",
"148 666 LINE",
"148 644 OFFCURVE",
"151 580 OFFCURVE",
"140 512 CURVE SMOOTH",
"113 339 OFFCURVE",
"94 199 OFFCURVE",
"64 23 CURVE SMOOTH",
"50 -58 OFFCURVE",
"23 -109 OFFCURVE",
"-25 -109 CURVE",
"-42 -189 LINE"
);
}
);
width = 787;
},
{
anchors = (
{
name = bottom;
position = "{317, 0}";
},
{
name = top;
position = "{416, 705}";
}
);
layerId = "3088057A-3552-44D5-8A67-1301E2609A93";
paths = (
{
closed = 1;
nodes = (
"19 -193 OFFCURVE",
"109 -144 OFFCURVE",
"129 6 CURVE SMOOTH",
"140 87 OFFCURVE",
"180 342 OFFCURVE",
"216 600 CURVE",
"196 596 LINE",
"510 0 LINE",
"570 0 LINE",
"650 538 LINE SMOOTH",
"656 575 OFFCURVE",
"682 654 OFFCURVE",
"689 668 CURVE",
"647 643 LINE",
"758 653 LINE",
"763 710 LINE",
"731 708 OFFCURVE",
"673 705 OFFCURVE",
"642 705 CURVE SMOOTH",
"626 705 OFFCURVE",
"570 708 OFFCURVE",
"534 710 CURVE",
"521 658 LINE",
"628 641 LINE",
"595 675 LINE",
"596 654 OFFCURVE",
"596 589 OFFCURVE",
"594 574 CURVE SMOOTH",
"527 123 LINE",
"547 127 LINE",
"329 529 LINE",
"258 685 LINE",
"242 705 LINE",
"208 705 LINE SMOOTH",
"189 705 OFFCURVE",
"131 708 OFFCURVE",
"92 710 CURVE",
"79 658 LINE",
"187 641 LINE",
"154 680 LINE",
"154 664 OFFCURVE",
"154 589 OFFCURVE",
"152 574 CURVE SMOOTH",
"105 255 OFFCURVE",
"92 152 OFFCURVE",
"71 11 CURVE SMOOTH",
"57 -80 OFFCURVE",
"14 -144 OFFCURVE",
"-70 -151 CURVE",
"-76 -195 LINE"
);
}
);
width = 738.6;
}
);
leftKerningGroup = UC_J;
rightKerningGroup = UC_N;
unicode = 019D;
subCategory = Uppercase;
},
{
color = 6;
glyphname = Saltillo;
layers = (
{
color = 6;
layerId = "B953D09C-6DD0-450A-A78C-8C2188DD4016";
paths = (
{
closed = 1;
nodes = (
"237 688 LINE",
"221 705 LINE",
"115 705 LINE",
"115 705 OFFCURVE",
"102 508 OFFCURVE",
"100 493 CURVE",
"65 308 LINE",
"145 300 LINE"
);
}
);
width = 230;
},
{
layerId = "3088057A-3552-44D5-8A67-1301E2609A93";
paths = (
{
closed = 1;
nodes = (
"202 688 LINE",
"186 705 LINE",
"114 705 LINE",
"114 705 OFFCURVE",
"106 509 OFFCURVE",
"104 494 CURVE",
"67 318 LINE",
"113 314 LINE"
);
}
);
width = 197;
}
);
leftKerningGroup = saltillo;
rightKerningGroup = saltillo;
unicode = A78B;
subCategory = Uppercase;
},
{
color = 6;
glyphname = Germandbls;
layers = (
{
color = 6;
layerId = "B953D09C-6DD0-450A-A78C-8C2188DD4016";
paths = (
{
closed = 1;
nodes = (
"53 -3 OFFCURVE",
"122 0 OFFCURVE",
"153 0 CURVE SMOOTH",
"200 0 LINE",
"225 24 LINE",
"226 49 OFFCURVE",
"238 148 OFFCURVE",
"243 186 CURVE SMOOTH",
"282 459 LINE SMOOTH",
"307 631 OFFCURVE",
"422 674 OFFCURVE",
"629 605 CURVE",
"625 666 LINE",
"386 353 LINE",
"487 320 LINE",
"746 660 LINE",
"732 701 LINE",
"332 754 OFFCURVE",
"180 691 OFFCURVE",
"146 465 CURVE SMOOTH",
"100 156 LINE SMOOTH",
"95 122 OFFCURVE",
"78 62 OFFCURVE",
"70 29 CURVE",
"134 83 LINE",
"5 60 LINE",
"2 -5 LINE"
);
},
{
closed = 1;
nodes = (
"622 -15 OFFCURVE",
"719 71 OFFCURVE",
"724 216 CURVE SMOOTH",
"728 319 OFFCURVE",
"679 364 OFFCURVE",
"609 406 CURVE SMOOTH",
"494 475 LINE",
"386 353 LINE",
"490 291 LINE SMOOTH",
"533 265 OFFCURVE",
"571 236 OFFCURVE",
"571 179 CURVE SMOOTH",
"571 67 OFFCURVE",
"469 34 OFFCURVE",
"385 101 CURVE",
"413 58 LINE",
"409 70 OFFCURVE",
"404 126 OFFCURVE",
"403 142 CURVE",
"413 212 LINE",
"335 217 LINE",
"293 34 LINE",
"359 3 OFFCURVE",
"435 -15 OFFCURVE",
"472 -15 CURVE SMOOTH"
);
}
);
width = 773;
},
{
layerId = "3088057A-3552-44D5-8A67-1301E2609A93";
paths = (
{
closed = 1;
nodes = (
"49 -3 OFFCURVE",
"103 0 OFFCURVE",
"142 0 CURVE SMOOTH",
"166 0 LINE",
"185 16 LINE",
"188 39 OFFCURVE",
"195 139 OFFCURVE",
"199 165 CURVE SMOOTH",
"239 439 LINE SMOOTH",
"263 606 OFFCURVE",
"351 710 OFFCURVE",
"632 639 CURVE",
"635 670 LINE",
"339 385 LINE",
"420 384 LINE",
"714 668 LINE",
"707 698 LINE",
"407 755 OFFCURVE",
"192 714 OFFCURVE",
"156 465 CURVE SMOOTH",
"108 135 LINE SMOOTH",
"105 114 OFFCURVE",
"85 48 OFFCURVE",
"80 28 CURVE",
"122 67 LINE",
"4 44 LINE",
"2 -5 LINE"
);
},
{
closed = 1;
nodes = (
"558 -15 OFFCURVE",
"640 70 OFFCURVE",
"655 162 CURVE SMOOTH",
"672 274 OFFCURVE",
"621 339 OFFCURVE",
"536 391 CURVE SMOOTH",
"440 451 LINE",
"339 385 LINE",
"449 323 LINE SMOOTH",
"517 285 OFFCURVE",
"553 239 OFFCURVE",
"553 183 CURVE SMOOTH",
"553 58 OFFCURVE",
"436 -1 OFFCURVE",
"319 82 CURVE",
"351 37 LINE",
"351 47 OFFCURVE",
"347 103 OFFCURVE",
"347 120 CURVE",
"355 182 LINE",
"290 188 LINE",
"252 36 LINE",
"319 -1 OFFCURVE",
"389 -15 OFFCURVE",
"425 -15 CURVE SMOOTH"
);
}
);
width = 714.7;
}
);
leftKerningGroup = UC_Round;
rightKerningGroup = UC_G;
unicode = 1E9E;
subCategory = Uppercase;
},
{
color = 6;
glyphname = Schwa;
layers = (
{
color = 6;
layerId = "B953D09C-6DD0-450A-A78C-8C2188DD4016";
paths = (
{
closed = 1;
nodes = (
"182 71 OFFCURVE",
"153 139 OFFCURVE",
"200 209 CURVE SMOOTH",
"239 267 OFFCURVE",
"342 320 OFFCURVE",
"480 332 CURVE",
"480 412 LINE",
"193 376 OFFCURVE",
"28 275 OFFCURVE",
"28 120 CURVE SMOOTH",
"28 -96 OFFCURVE",
"420 -43 OFFCURVE",
"552 151 CURVE SMOOTH",
"607 232 OFFCURVE",
"654 333 OFFCURVE",
"654 452 CURVE SMOOTH",
"654 620 OFFCURVE",
"570 712 OFFCURVE",
"416 712 CURVE SMOOTH",
"293 712 OFFCURVE",
"173 639 OFFCURVE",
"88 523 CURVE",
"148 473 LINE",
"212 536 OFFCURVE",
"291 596 OFFCURVE",
"377 596 CURVE SMOOTH",
"441 596 OFFCURVE",
"473 545 OFFCURVE",
"473 443 CURVE SMOOTH",
"473 239 OFFCURVE",
"401 113 OFFCURVE",
"287 91 CURVE SMOOTH"
);
}
);
userData = {
RMXScaler = {
height = 140;
weight = 40;
width = 153;
};
};
width = 681;
},
{
layerId = "3088057A-3552-44D5-8A67-1301E2609A93";
paths = (
{
closed = 1;
nodes = (
"162 67 OFFCURVE",
"143 123 OFFCURVE",
"177 189 CURVE SMOOTH",
"218 269 OFFCURVE",
"342 323 OFFCURVE",
"490 343 CURVE",
"490 400 LINE",
"219 356 OFFCURVE",
"48 237 OFFCURVE",
"48 94 CURVE SMOOTH",
"48 -75 OFFCURVE",
"380 -31 OFFCURVE",
"494 128 CURVE SMOOTH",
"559 219 OFFCURVE",
"608 329 OFFCURVE",
"608 459 CURVE SMOOTH",
"608 617 OFFCURVE",
"530 703 OFFCURVE",
"396 703 CURVE SMOOTH",
"257 703 OFFCURVE",
"154 646 OFFCURVE",
"72 516 CURVE",
"113 487 LINE",
"193 588 OFFCURVE",
"286 637 OFFCURVE",
"370 637 CURVE SMOOTH",
"456 637 OFFCURVE",
"494 585 OFFCURVE",
"494 461 CURVE SMOOTH",
"494 225 OFFCURVE",
"380 50 OFFCURVE",
"244 60 CURVE SMOOTH"
);
}
);
userData = {
RMXScaler = {
height = 140;
weight = 30;
width = 153;
};
};
width = 638.1;
}
);
leftKerningGroup = UC_Schwa;
rightKerningGroup = UC_Round;
unicode = 018F;
subCategory = Uppercase;
userData = {
RMXScaler = {
source = schwa;
};
};
},
{
color = 6;
glyphname = U.horn;
layers = (
{
anchors = (
{
name = bottom;
position = "{326, 0}";
},
{
name = ogonek;
position = "{624, 10}";
},
{
name = top;
position = "{425, 705}";
},
{
name = topright;
position = "{589, 695}";
}
);
color = 6;
layerId = "B953D09C-6DD0-450A-A78C-8C2188DD4016";
paths = (
{
closed = 1;
nodes = (
"507 -15 OFFCURVE",
"621 97 OFFCURVE",
"646 268 CURVE SMOOTH",
"686 542 LINE SMOOTH",
"691 572 OFFCURVE",
"721 673 OFFCURVE",
"731 705 CURVE",
"621 695 LINE",
"601 695 OFFCURVE",
"545 695 OFFCURVE",
"509 695 CURVE",
"496 635 LINE",
"619 611 LINE",
"557 667 LINE",
"557 652 OFFCURVE",
"559 581 OFFCURVE",
"549 512 CURVE SMOOTH",
"512 260 LINE SMOOTH",
"498 160 OFFCURVE",
"455 99 OFFCURVE",
"355 99 CURVE SMOOTH",
"264 99 OFFCURVE",
"225 170 OFFCURVE",
"238 260 CURVE SMOOTH",
"280 542 LINE SMOOTH",
"285 572 OFFCURVE",
"305 635 OFFCURVE",
"312 661 CURVE",
"238 617 LINE",
"365 629 LINE",
"372 710 LINE",
"315 708 OFFCURVE",
"241 705 OFFCURVE",
"201 705 CURVE SMOOTH",
"181 705 OFFCURVE",
"119 708 OFFCURVE",
"78 710 CURVE",
"62 635 LINE",
"185 611 LINE",
"123 661 LINE",
"123 644 OFFCURVE",
"125 581 OFFCURVE",
"115 512 CURVE SMOOTH",
"80 268 LINE SMOOTH",
"55 97 OFFCURVE",
"134 -15 OFFCURVE",
"321 -15 CURVE SMOOTH"
);
}
);
width = 711;
},
{
anchors = (
{
name = bottom;
position = "{299, 0}";
},
{
name = ogonek;
position = "{580, 10}";
},
{
name = top;
position = "{398, 705}";
},
{
name = topright;
position = "{577, 701}";
}
);
layerId = "3088057A-3552-44D5-8A67-1301E2609A93";
paths = (
{
closed = 1;
nodes = (
"461 -15 OFFCURVE",
"556 95 OFFCURVE",
"581 266 CURVE SMOOTH",
"621 538 LINE SMOOTH",
"625 564 OFFCURVE",
"637 622 OFFCURVE",
"658 705 CURVE",
"607 701 LINE",
"589 701 OFFCURVE",
"533 701 OFFCURVE",
"497 701 CURVE",
"486 658 LINE",
"595 641 LINE",
"561 671 LINE",
"561 655 OFFCURVE",
"563 589 OFFCURVE",
"561 574 CURVE SMOOTH",
"515 267 LINE SMOOTH",
"496 138 OFFCURVE",
"425 44 OFFCURVE",
"308 44 CURVE SMOOTH",
"196 44 OFFCURVE",
"152 136 OFFCURVE",
"172 267 CURVE SMOOTH",
"212 538 LINE SMOOTH",
"217 575 OFFCURVE",
"236 656 OFFCURVE",
"241 676 CURVE",
"201 643 LINE",
"311 653 LINE",
"316 710 LINE",
"273 708 OFFCURVE",
"210 705 OFFCURVE",
"188 705 CURVE SMOOTH",
"170 705 OFFCURVE",
"111 708 OFFCURVE",
"74 710 CURVE",
"61 658 LINE",
"169 641 LINE",
"135 675 LINE",
"135 663 OFFCURVE",
"135 589 OFFCURVE",
"133 574 CURVE SMOOTH",
"87 266 LINE SMOOTH",
"62 95 OFFCURVE",
"134 -15 OFFCURVE",
"296 -15 CURVE SMOOTH"
);
}
);
width = 647.2;
}
);
leftKerningGroup = U.horn;
rightKerningGroup = U.horn;
script = latin;
category = Letter;
subCategory = Ligature;
},
{
color = 6;
glyphname = W.i;
layers = (
{
anchors = (
{
name = bottom;
position = "{459, 0}";
},
{
name = top;
position = "{558, 705}";
}
);
color = 6;
layerId = "B953D09C-6DD0-450A-A78C-8C2188DD4016";
paths = (
{
closed = 1;
nodes = (
"339 0 LINE",
"551 481 LINE",
"517 485 LINE",
"589 0 LINE",
"704 0 LINE",
"949 542 LINE SMOOTH",
"964 576 OFFCURVE",
"1006 638 OFFCURVE",
"1017 653 CURVE",
"940 614 LINE",
"1018 627 LINE",
"1025 708 LINE",
"976 706 OFFCURVE",
"922 705 OFFCURVE",
"893 705 CURVE SMOOTH",
"878 705 OFFCURVE",
"824 708 OFFCURVE",
"789 710 CURVE",
"773 635 LINE",
"912 610 LINE",
"863 658 LINE",
"856 635 OFFCURVE",
"822 539 OFFCURVE",
"811 512 CURVE SMOOTH",
"666 149 LINE",
"696 144 LINE",
"633 675 LINE",
"519 675 LINE",
"300 149 LINE",
"329 144 LINE",
"295 542 LINE SMOOTH",
"293 569 OFFCURVE",
"296 642 OFFCURVE",
"297 667 CURVE",
"235 617 LINE",
"361 629 LINE",
"368 710 LINE",
"311 708 OFFCURVE",
"234 705 OFFCURVE",
"197 705 CURVE SMOOTH",
"176 705 OFFCURVE",
"115 708 OFFCURVE",
"74 710 CURVE",
"58 635 LINE",
"181 611 LINE",
"114 645 LINE",
"118 629 OFFCURVE",
"132 546 OFFCURVE",
"138 512 CURVE SMOOTH",
"223 0 LINE"
);
}
);
width = 985;
},
{
anchors = (
{
name = bottom;
position = "{445, 0}";
},
{
name = top;
position = "{544, 705}";
}
);
layerId = "3088057A-3552-44D5-8A67-1301E2609A93";
paths = (
{
closed = 1;
nodes = (
"296 0 LINE",
"530 545 LINE",
"512 548 LINE",
"609 0 LINE",
"666 0 LINE",
"900 538 LINE SMOOTH",
"916 574 OFFCURVE",
"963 648 OFFCURVE",
"979 667 CURVE",
"929 642 LINE",
"989 650 LINE",
"994 707 LINE",
"957 705 OFFCURVE",
"920 705 OFFCURVE",
"903 705 CURVE SMOOTH",
"886 705 OFFCURVE",
"828 708 OFFCURVE",
"791 710 CURVE",
"777 657 LINE",
"903 641 LINE",
"875 665 LINE",
"871 649 OFFCURVE",
"856 594 OFFCURVE",
"846 574 CURVE SMOOTH",
"651 111 LINE",
"670 109 LINE",
"577 686 LINE",
"529 686 LINE",
"281 112 LINE",
"299 109 LINE",
"237 539 LINE SMOOTH",
"231 577 OFFCURVE",
"223 654 OFFCURVE",
"222 680 CURVE",
"191 643 LINE",
"316 653 LINE",
"320 710 LINE",
"275 708 OFFCURVE",
"209 705 OFFCURVE",
"184 705 CURVE SMOOTH",
"167 705 OFFCURVE",
"111 708 OFFCURVE",
"74 710 CURVE",
"61 658 LINE",
"144 642 LINE",
"100 677 LINE",
"107 658 OFFCURVE",
"134 591 OFFCURVE",
"137 574 CURVE SMOOTH",
"240 0 LINE"
);
}
);
width = 952;
}
);
leftKerningGroup = W.i;
rightKerningGroup = W.i;
script = latin;
category = Letter;
subCategory = Ligature;
},
{
color = 6;
glyphname = ordfeminine.case;
layers = (
{
anchors = (
{
name = bottom;
position = "{231, 450}";
},
{
name = ogonek;
position = "{339, 450}";
},
{
name = top;
position = "{277, 771}";
}
);
color = 6;
layerId = "B953D09C-6DD0-450A-A78C-8C2188DD4016";
paths = (
{
closed = 1;
nodes = (
"210 438 OFFCURVE",
"276 523 OFFCURVE",
"316 627 CURVE",
"308 637 LINE",
"307 584 OFFCURVE",
"277 504 OFFCURVE",
"258 450 CURVE",
"282 438 LINE",
"418 465 LINE",
"421 501 LINE",
"326 510 LINE",
"367 472 LINE",
"370 590 OFFCURVE",
"388 676 OFFCURVE",
"410 763 CURVE",
"383 782 LINE",
"303 762 LINE",
"302 733 LINE SMOOTH",
"298 624 OFFCURVE",
"230 528 OFFCURVE",
"197 528 CURVE SMOOTH",
"182 528 OFFCURVE",
"179 543 OFFCURVE",
"179 565 CURVE SMOOTH",
"179 641 OFFCURVE",
"205 708 OFFCURVE",
"228 708 CURVE SMOOTH",
"264 708 OFFCURVE",
"311 686 OFFCURVE",
"318 685 CURVE",
"333 768 LINE",
"320 768 OFFCURVE",
"264 782 OFFCURVE",
"239 782 CURVE SMOOTH",
"161 782 OFFCURVE",
"84 653 OFFCURVE",
"84 540 CURVE SMOOTH",
"84 490 OFFCURVE",
"100 438 OFFCURVE",
"137 438 CURVE SMOOTH"
);
}
);
userData = {
RMXScaler = {
height = 65;
verticalShift = 450;
weight = -45;
width = 67;
};
};
width = 421;
},
{
anchors = (
{
name = bottom;
position = "{211, 450}";
},
{
name = ogonek;
position = "{308, 450}";
},
{
name = top;
position = "{253, 749}";
}
);
layerId = "3088057A-3552-44D5-8A67-1301E2609A93";
paths = (
{
closed = 1;
nodes = (
"197 441 OFFCURVE",
"251 507 OFFCURVE",
"287 594 CURVE",
"281 605 LINE",
"276 547 OFFCURVE",
"261 493 OFFCURVE",
"248 450 CURVE",
"267 440 LINE",
"376 466 LINE",
"378 493 LINE",
"296 500 LINE",
"326 473 LINE",
"328 580 OFFCURVE",
"344 655 OFFCURVE",
"366 743 CURVE",
"347 758 LINE",
"285 743 LINE",
"284 714 LINE SMOOTH",
"280 613 OFFCURVE",
"211 503 OFFCURVE",
"178 503 CURVE SMOOTH",
"164 503 OFFCURVE",
"157 519 OFFCURVE",
"157 549 CURVE SMOOTH",
"157 619 OFFCURVE",
"189 706 OFFCURVE",
"215 706 CURVE SMOOTH",
"248 706 OFFCURVE",
"293 683 OFFCURVE",
"299 681 CURVE",
"309 746 LINE",
"296 747 OFFCURVE",
"246 758 OFFCURVE",
"224 758 CURVE SMOOTH",
"159 758 OFFCURVE",
"85 633 OFFCURVE",
"85 533 CURVE SMOOTH",
"85 482 OFFCURVE",
"102 441 OFFCURVE",
"140 441 CURVE SMOOTH"
);
}
);
userData = {
RMXScaler = {
height = 61;
verticalShift = 450;
weight = -24;
width = 62;
};
};
width = 381.4;
}
);
leftKerningGroup = ordfeminine.case;
rightKerningGroup = ordfeminine.case;
userData = {
RMXScaler = {
source = a;
};
};
},
{
color = 6;
glyphname = ordmasculine.case;
layers = (
{
color = 6;
layerId = "B953D09C-6DD0-450A-A78C-8C2188DD4016";
paths = (
{
closed = 1;
nodes = (
"300 438 OFFCURVE",
"387 536 OFFCURVE",
"387 660 CURVE SMOOTH",
"387 740 OFFCURVE",
"348 782 OFFCURVE",
"276 782 CURVE SMOOTH",
"170 782 OFFCURVE",
"82 684 OFFCURVE",
"82 560 CURVE SMOOTH",
"82 479 OFFCURVE",
"122 438 OFFCURVE",
"193 438 CURVE SMOOTH"
);
},
{
closed = 1;
nodes = (
"194 502 OFFCURVE",
"181 525 OFFCURVE",
"181 565 CURVE SMOOTH",
"181 664 OFFCURVE",
"207 718 OFFCURVE",
"255 718 CURVE SMOOTH",
"275 718 OFFCURVE",
"288 695 OFFCURVE",
"288 655 CURVE SMOOTH",
"288 556 OFFCURVE",
"262 502 OFFCURVE",
"215 502 CURVE SMOOTH"
);
}
);
userData = {
RMXScaler = {
adjustSpace = 9;
height = 65;
verticalShift = 450;
weight = -45;
width = 67;
};
};
width = 380;
},
{
layerId = "3088057A-3552-44D5-8A67-1301E2609A93";
paths = (
{
closed = 1;
nodes = (
"273 441 OFFCURVE",
"350 536 OFFCURVE",
"350 648 CURVE SMOOTH",
"350 719 OFFCURVE",
"315 758 OFFCURVE",
"254 758 CURVE SMOOTH",
"161 758 OFFCURVE",
"84 663 OFFCURVE",
"84 551 CURVE SMOOTH",
"84 479 OFFCURVE",
"119 441 OFFCURVE",
"180 441 CURVE SMOOTH"
);
},
{
closed = 1;
nodes = (
"172 488 OFFCURVE",
"159 511 OFFCURVE",
"159 552 CURVE SMOOTH",
"159 649 OFFCURVE",
"191 710 OFFCURVE",
"239 710 CURVE SMOOTH",
"262 710 OFFCURVE",
"274 687 OFFCURVE",
"274 647 CURVE SMOOTH",
"274 551 OFFCURVE",
"243 488 OFFCURVE",
"195 488 CURVE SMOOTH"
);
}
);
userData = {
RMXScaler = {
adjustSpace = 10;
height = 61;
verticalShift = 450;
weight = -24;
width = 62;
};
};
width = 348.1;
}
);
leftKerningGroup = ordmasculine.case;
rightKerningGroup = ordmasculine.case;
userData = {
RMXScaler = {
source = o;
};
};
},
{
color = 6;
glyphname = a;
layers = (
{
anchors = (
{
name = bottom;
position = "{248, 0}";
},
{
name = ogonek;
position = "{406, 0}";
},
{
name = top;
position = "{318, 494}";
}
);
color = 6;
layerId = "B953D09C-6DD0-450A-A78C-8C2188DD4016";
paths = (
{
closed = 1;
nodes = (
"218 -15 OFFCURVE",
"316 113 OFFCURVE",
"375 266 CURVE",
"363 282 LINE",
"361 198 OFFCURVE",
"320 86 OFFCURVE",
"290 3 CURVE",
"325 -15 LINE",
"526 27 LINE",
"530 80 LINE",
"389 93 LINE",
"450 38 LINE",
"454 215 OFFCURVE",
"482 351 OFFCURVE",
"516 485 CURVE",
"476 513 LINE",
"358 484 LINE",
"356 438 LINE SMOOTH",
"349 273 OFFCURVE",
"246 114 OFFCURVE",
"197 114 CURVE SMOOTH",
"174 114 OFFCURVE",
"170 140 OFFCURVE",
"170 175 CURVE SMOOTH",
"170 292 OFFCURVE",
"210 407 OFFCURVE",
"245 407 CURVE SMOOTH",
"299 407 OFFCURVE",
"370 372 OFFCURVE",
"380 370 CURVE",
"403 492 LINE",
"383 493 OFFCURVE",
"300 513 OFFCURVE",
"262 513 CURVE SMOOTH",
"146 513 OFFCURVE",
"30 312 OFFCURVE",
"30 140 CURVE SMOOTH",
"30 62 OFFCURVE",
"53 -15 OFFCURVE",
"110 -15 CURVE SMOOTH"
);
}
);
width = 568;
},
{
anchors = (
{
name = bottom;
position = "{214, 0}";
},
{
name = ogonek;
position = "{370, 0}";
},
{
name = top;
position = "{283, 494}";
}
);
layerId = "3088057A-3552-44D5-8A67-1301E2609A93";
paths = (
{
closed = 1;
nodes = (
"204 -10 OFFCURVE",
"281 80 OFFCURVE",
"333 196 CURVE",
"329 220 LINE",
"314 117 OFFCURVE",
"311 63 OFFCURVE",
"301 5 CURVE",
"325 -10 LINE",
"468 35 LINE",
"471 68 LINE",
"349 74 LINE",
"379 45 LINE",
"381 217 OFFCURVE",
"409 343 OFFCURVE",
"446 495 CURVE",
"424 508 LINE",
"354 492 LINE",
"352 441 LINE SMOOTH",
"346 286 OFFCURVE",
"216 43 OFFCURVE",
"157 43 CURVE SMOOTH",
"130 43 OFFCURVE",
"111 86 OFFCURVE",
"111 146 CURVE SMOOTH",
"111 267 OFFCURVE",
"183 461 OFFCURVE",
"234 461 CURVE SMOOTH",
"287 461 OFFCURVE",
"365 416 OFFCURVE",
"378 410 CURVE",
"379 494 LINE",
"359 495 OFFCURVE",
"282 508 OFFCURVE",
"248 508 CURVE SMOOTH",
"156 508 OFFCURVE",
"29 291 OFFCURVE",
"29 140 CURVE SMOOTH",
"29 39 OFFCURVE",
"65 -10 OFFCURVE",
"132 -10 CURVE SMOOTH"
);
}
);
width = 507.5;
}
);
leftKerningGroup = lc_Round;
rightKerningGroup = lc_ShortStem;
unicode = 0061;
},
{
color = 3;
glyphname = aogonek;
layers = (
{
color = 3;
components = (
{
name = ogonekcomb;
transform = "{1, 0, 0, 1, 181, 0}";
}
);
layerId = "B953D09C-6DD0-450A-A78C-8C2188DD4016";
paths = (
{
closed = 1;
nodes = (
"525 24 LINE",
"529 77 LINE",
"388 90 LINE",
"449 35 LINE",
"453 212 OFFCURVE",
"481 348 OFFCURVE",
"515 482 CURVE",
"475 510 LINE",
"357 481 LINE",
"355 435 LINE SMOOTH",
"348 270 OFFCURVE",
"246 111 OFFCURVE",
"196 111 CURVE SMOOTH",
"173 111 OFFCURVE",
"169 137 OFFCURVE",
"169 172 CURVE SMOOTH",
"169 289 OFFCURVE",
"209 404 OFFCURVE",
"244 404 CURVE SMOOTH",
"298 404 OFFCURVE",
"369 369 OFFCURVE",
"379 367 CURVE",
"402 489 LINE",
"382 490 OFFCURVE",
"299 510 OFFCURVE",
"261 510 CURVE SMOOTH",
"145 510 OFFCURVE",
"29 309 OFFCURVE",
"29 137 CURVE SMOOTH",
"29 59 OFFCURVE",
"52 -18 OFFCURVE",
"109 -18 CURVE SMOOTH",
"217 -18 OFFCURVE",
"315 110 OFFCURVE",
"374 263 CURVE",
"362 279 LINE",
"360 195 OFFCURVE",
"319 83 OFFCURVE",
"289 0 CURVE",
"324 -18 LINE"
);
}
);
width = 568;
},
{
components = (
{
alignment = -1;
name = ogonekcomb;
transform = "{1, 0, 0, 1, 188, 1}";
}
);
layerId = "3088057A-3552-44D5-8A67-1301E2609A93";
paths = (
{
closed = 1;
nodes = (
"468 30 LINE",
"471 63 LINE",
"348 69 LINE",
"379 44 LINE",
"382 215 OFFCURVE",
"410 338 OFFCURVE",
"446 490 CURVE",
"424 502 LINE",
"354 487 LINE",
"352 437 LINE SMOOTH",
"346 283 OFFCURVE",
"217 44 OFFCURVE",
"158 44 CURVE SMOOTH",
"130 44 OFFCURVE",
"111 86 OFFCURVE",
"111 146 CURVE SMOOTH",
"111 267 OFFCURVE",
"183 455 OFFCURVE",
"234 455 CURVE SMOOTH",
"286 455 OFFCURVE",
"365 411 OFFCURVE",
"378 404 CURVE",
"379 489 LINE",
"359 490 OFFCURVE",
"283 502 OFFCURVE",
"248 502 CURVE SMOOTH",
"156 502 OFFCURVE",
"29 290 OFFCURVE",
"29 139 CURVE SMOOTH",
"29 39 OFFCURVE",
"65 -9 OFFCURVE",
"132 -9 CURVE SMOOTH",
"205 -9 OFFCURVE",
"281 80 OFFCURVE",
"333 196 CURVE",
"328 214 LINE",
"313 113 OFFCURVE",
"310 60 OFFCURVE",
"300 0 CURVE",
"324 -15 LINE"
);
}
);
width = 509.7;
}
);
leftKerningGroup = lc_Round;
rightKerningGroup = lc_ShortStem;
unicode = 0105;
},
{
color = 6;
glyphname = ae;
layers = (
{
anchors = (
{
name = bottom;
position = "{308, 0}";
},
{
name = ogonek;
position = "{505, 0}";
},
{
name = top;
position = "{378, 494}";
}
);
color = 6;
layerId = "B953D09C-6DD0-450A-A78C-8C2188DD4016";
paths = (
{
closed = 1;
nodes = (
"221 -15 OFFCURVE",
"427 244 OFFCURVE",
"427 405 CURVE SMOOTH",
"427 495 OFFCURVE",
"389 513 OFFCURVE",
"315 513 CURVE SMOOTH",
"252 513 OFFCURVE",
"159 476 OFFCURVE",
"104 422 CURVE",
"145 376 LINE",
"207 422 OFFCURVE",
"314 449 OFFCURVE",
"314 382 CURVE SMOOTH",
"314 350 OFFCURVE",
"308 310 OFFCURVE",
"297 277 CURVE SMOOTH",
"268 190 OFFCURVE",
"222 108 OFFCURVE",
"175 108 CURVE SMOOTH",
"133 108 OFFCURVE",
"144 178 OFFCURVE",
"155 197 CURVE SMOOTH",
"168 219 OFFCURVE",
"222 246 OFFCURVE",
"331 256 CURVE",
"340 325 LINE",
"282 317 LINE SMOOTH",
"120 295 OFFCURVE",
"20 242 OFFCURVE",
"11 131 CURVE SMOOTH",
"6 72 OFFCURVE",
"20 -15 OFFCURVE",
"104 -15 CURVE SMOOTH"
);
},
{
closed = 1;
nodes = (
"497 -15 OFFCURVE",
"598 44 OFFCURVE",
"656 124 CURVE",
"610 164 LINE",
"574 127 OFFCURVE",
"512 82 OFFCURVE",
"470 82 CURVE SMOOTH",
"439 82 OFFCURVE",
"416 102 OFFCURVE",
"416 154 CURVE SMOOTH",
"416 270 OFFCURVE",
"466 423 OFFCURVE",
"514 423 CURVE SMOOTH",
"553 423 OFFCURVE",
"567 413 OFFCURVE",
"567 395 CURVE SMOOTH",
"567 339 OFFCURVE",
"495 263 OFFCURVE",
"379 253 CURVE",
"378 191 LINE",
"574 215 OFFCURVE",
"695 310 OFFCURVE",
"695 424 CURVE SMOOTH",
"695 483 OFFCURVE",
"639 513 OFFCURVE",
"534 513 CURVE SMOOTH",
"429 513 OFFCURVE",
"278 299 OFFCURVE",
"278 138 CURVE SMOOTH",
"278 28 OFFCURVE",
"339 -15 OFFCURVE",
"413 -15 CURVE SMOOTH"
);
}
);
width = 706;
},
{
anchors = (
{
name = bottom;
position = "{311, 0}";
},
{
name = ogonek;
position = "{491, 0}";
},
{
name = top;
position = "{381, 494}";
}
);
layerId = "3088057A-3552-44D5-8A67-1301E2609A93";
paths = (
{
closed = 1;
nodes = (
"256 -10 OFFCURVE",
"369 180 OFFCURVE",
"402 330 CURVE SMOOTH",
"426 441 OFFCURVE",
"373 509 OFFCURVE",
"289 509 CURVE SMOOTH",
"227 509 OFFCURVE",
"149 469 OFFCURVE",
"83 387 CURVE",
"111 364 LINE",
"208 459 OFFCURVE",
"306 469 OFFCURVE",
"317 386 CURVE SMOOTH",
"322 352 OFFCURVE",
"315 291 OFFCURVE",
"311 270 CURVE SMOOTH",
"291 149 OFFCURVE",
"197 46 OFFCURVE",
"143 46 CURVE SMOOTH",
"97 46 OFFCURVE",
"97 125 OFFCURVE",
"111 165 CURVE SMOOTH",
"120 190 OFFCURVE",
"210 226 OFFCURVE",
"323 241 CURVE",
"324 287 LINE",
"255 274 LINE SMOOTH",
"141 253 OFFCURVE",
"23 229 OFFCURVE",
"14 145 CURVE SMOOTH",
"8 89 OFFCURVE",
"18 -10 OFFCURVE",
"108 -10 CURVE SMOOTH"
);
},
{
closed = 1;
nodes = (
"490 -10 OFFCURVE",
"567 39 OFFCURVE",
"623 131 CURVE",
"592 152 LINE",
"542 82 OFFCURVE",
"485 47 OFFCURVE",
"436 47 CURVE SMOOTH",
"395 47 OFFCURVE",
"374 83 OFFCURVE",
"374 149 CURVE SMOOTH",
"374 269 OFFCURVE",
"448 453 OFFCURVE",
"499 453 CURVE SMOOTH",
"544 453 OFFCURVE",
"565 438 OFFCURVE",
"565 405 CURVE SMOOTH",
"565 332 OFFCURVE",
"482 273 OFFCURVE",
"361 255 CURVE",
"360 213 LINE",
"538 245 OFFCURVE",
"646 327 OFFCURVE",
"646 430 CURVE SMOOTH",
"646 481 OFFCURVE",
"594 508 OFFCURVE",
"501 508 CURVE SMOOTH",
"415 508 OFFCURVE",
"292 291 OFFCURVE",
"292 140 CURVE SMOOTH",
"292 42 OFFCURVE",
"331 -10 OFFCURVE",
"404 -10 CURVE SMOOTH"
);
}
);
width = 666.4;
}
);
leftKerningGroup = lc_Round;
rightKerningGroup = lc_e;
unicode = 00E6;
},
{
color = 6;
glyphname = b;
layers = (
{
anchors = (
{
name = bottom;
position = "{233, 0}";
},
{
name = top;
position = "{340, 756}";
}
);
color = 6;
layerId = "B953D09C-6DD0-450A-A78C-8C2188DD4016";
paths = (
{
closed = 1;
nodes = (
"213 13 LINE",
"129 6 LINE",
"140 7 OFFCURVE",
"233 -15 OFFCURVE",
"273 -15 CURVE SMOOTH",
"389 -15 OFFCURVE",
"505 186 OFFCURVE",
"505 358 CURVE SMOOTH",
"505 436 OFFCURVE",
"482 513 OFFCURVE",
"425 513 CURVE SMOOTH",
"333 513 OFFCURVE",
"243 412 OFFCURVE",
"179 247 CURVE",
"190 255 LINE",
"209 379 OFFCURVE",
"252 578 OFFCURVE",
"289 742 CURVE",
"255 770 LINE",
"57 737 LINE",
"60 684 LINE",
"190 667 LINE",
"129 692 LINE",
"124 611 OFFCURVE",
"87 232 OFFCURVE",
"21 3 CURVE",
"56 -15 LINE"
);
},
{
closed = 1;
nodes = (
"186 225 OFFCURVE",
"288 384 OFFCURVE",
"338 384 CURVE SMOOTH",
"361 384 OFFCURVE",
"364 358 OFFCURVE",
"364 323 CURVE SMOOTH",
"364 206 OFFCURVE",
"325 90 OFFCURVE",
"290 90 CURVE SMOOTH",
"242 90 OFFCURVE",
"170 122 OFFCURVE",
"130 140 CURVE",
"179 60 LINE"
);
}
);
width = 535;
},
{
anchors = (
{
name = bottom;
position = "{200, 0}";
},
{
name = top;
position = "{272, 468}";
}
);
layerId = "3088057A-3552-44D5-8A67-1301E2609A93";
paths = (
{
closed = 1;
nodes = (
"140 17 LINE",
"97 8 LINE",
"109 8 OFFCURVE",
"190 -10 OFFCURVE",
"224 -10 CURVE SMOOTH",
"314 -10 OFFCURVE",
"442 204 OFFCURVE",
"442 358 CURVE SMOOTH",
"442 459 OFFCURVE",
"406 506 OFFCURVE",
"341 506 CURVE SMOOTH",
"269 506 OFFCURVE",
"192 419 OFFCURVE",
"145 322 CURVE",
"156 329 LINE",
"175 460 OFFCURVE",
"197 582 OFFCURVE",
"225 752 CURVE",
"204 770 LINE",
"45 743 LINE",
"48 707 LINE",
"165 689 LINE",
"135 712 LINE",
"121 515 OFFCURVE",
"72 177 OFFCURVE",
"28 5 CURVE",
"52 -10 LINE"
);
},
{
closed = 1;
nodes = (
"126 211 OFFCURVE",
"252 457 OFFCURVE",
"315 457 CURVE SMOOTH",
"341 457 OFFCURVE",
"361 413 OFFCURVE",
"361 352 CURVE SMOOTH",
"361 228 OFFCURVE",
"289 38 OFFCURVE",
"237 38 CURVE SMOOTH",
"193 38 OFFCURVE",
"122 74 OFFCURVE",
"98 87 CURVE",
"120 56 LINE"
);
}
);
width = 471.2;
}
);
leftKerningGroup = lc_LongtStem;
rightKerningGroup = lc_Round;
unicode = 0062;
},
{
color = 6;
glyphname = c;
layers = (
{
anchors = (
{
name = bottom;
position = "{158, 0}";
},
{
name = top;
position = "{283, 494}";
}
);
color = 6;
layerId = "B953D09C-6DD0-450A-A78C-8C2188DD4016";
paths = (
{
closed = 1;
nodes = (
"244 -15 OFFCURVE",
"331 42 OFFCURVE",
"385 122 CURVE",
"338 162 LINE",
"289 113 OFFCURVE",
"248 86 OFFCURVE",
"215 86 CURVE SMOOTH",
"182 86 OFFCURVE",
"165 109 OFFCURVE",
"165 152 CURVE SMOOTH",
"165 270 OFFCURVE",
"211 415 OFFCURVE",
"250 415 CURVE SMOOTH",
"284 415 OFFCURVE",
"322 403 OFFCURVE",
"380 376 CURVE",
"326 462 LINE",
"326 305 LINE",
"381 302 LINE",
"416 465 LINE",
"391 504 LINE",
"361 508 OFFCURVE",
"294 513 OFFCURVE",
"256 513 CURVE SMOOTH",
"157 513 OFFCURVE",
"26 298 OFFCURVE",
"26 138 CURVE SMOOTH",
"26 41 OFFCURVE",
"76 -15 OFFCURVE",
"159 -15 CURVE SMOOTH"
);
}
);
width = 434;
},
{
anchors = (
{
name = bottom;
position = "{143, 0}";
},
{
name = top;
position = "{278, 494}";
}
);
layerId = "3088057A-3552-44D5-8A67-1301E2609A93";
paths = (
{
closed = 1;
nodes = (
"226 -10 OFFCURVE",
"307 39 OFFCURVE",
"363 134 CURVE",
"334 154 LINE",
"285 84 OFFCURVE",
"227 46 OFFCURVE",
"174 46 CURVE SMOOTH",
"135 46 OFFCURVE",
"112 83 OFFCURVE",
"112 150 CURVE SMOOTH",
"112 266 OFFCURVE",
"181 447 OFFCURVE",
"228 447 CURVE SMOOTH",
"247 447 OFFCURVE",
"268 442 OFFCURVE",
"357 410 CURVE",
"312 454 LINE",
"321 328 LINE",
"354 326 LINE",
"392 472 LINE",
"379 493 LINE",
"301 503 OFFCURVE",
"251 508 OFFCURVE",
"230 508 CURVE SMOOTH",
"147 508 OFFCURVE",
"30 293 OFFCURVE",
"30 141 CURVE SMOOTH",
"30 44 OFFCURVE",
"67 -10 OFFCURVE",
"141 -10 CURVE SMOOTH"
);
}
);
width = 409.8;
}
);
leftKerningGroup = lc_Round;
rightKerningGroup = lc_c;
unicode = 0063;
},
{
color = 6;
glyphname = d;
layers = (
{
anchors = (
{
name = bottom;
position = "{245, 0}";
},
{
name = center;
position = "{412, 585}";
},
{
name = top;
position = "{354, 756}";
},
{
name = topright;
position = "{606, 494}";
}
);
color = 6;
layerId = "B953D09C-6DD0-450A-A78C-8C2188DD4016";
paths = (
{
closed = 1;
nodes = (
"218 -15 OFFCURVE",
"316 113 OFFCURVE",
"375 266 CURVE",
"363 279 LINE",
"361 195 OFFCURVE",
"320 83 OFFCURVE",
"290 0 CURVE",
"325 -18 LINE",
"526 27 LINE",
"530 80 LINE",
"389 90 LINE",
"439 46 LINE",
"454 172 OFFCURVE",
"491 458 OFFCURVE",
"549 742 CURVE",
"515 770 LINE",
"306 737 LINE",
"309 684 LINE",
"451 668 LINE",
"391 713 LINE",
"390 676 OFFCURVE",
"378 555 OFFCURVE",
"366 479 CURVE",
"356 438 LINE",
"349 273 OFFCURVE",
"247 114 OFFCURVE",
"197 114 CURVE SMOOTH",
"174 114 OFFCURVE",
"170 140 OFFCURVE",
"170 175 CURVE SMOOTH",
"170 292 OFFCURVE",
"210 407 OFFCURVE",
"245 407 CURVE SMOOTH",
"299 407 OFFCURVE",
"370 372 OFFCURVE",
"380 370 CURVE",
"403 492 LINE",
"383 493 OFFCURVE",
"300 513 OFFCURVE",
"262 513 CURVE SMOOTH",
"146 513 OFFCURVE",
"30 312 OFFCURVE",
"30 140 CURVE SMOOTH",
"30 62 OFFCURVE",
"53 -15 OFFCURVE",
"110 -15 CURVE SMOOTH"
);
}
);
width = 567;
},
{
anchors = (
{
name = bottom;
position = "{246, 0}";
},
{
name = center;
position = "{380, 610}";
},
{
name = top;
position = "{286, 468}";
},
{
name = topright;
position = "{533, 500}";
}
);
layerId = "3088057A-3552-44D5-8A67-1301E2609A93";
paths = (
{
closed = 1;
nodes = (
"205 -10 OFFCURVE",
"281 80 OFFCURVE",
"333 196 CURVE",
"329 215 LINE",
"313 110 OFFCURVE",
"311 67 OFFCURVE",
"302 6 CURVE",
"326 -9 LINE",
"468 35 LINE",
"471 68 LINE",
"348 75 LINE",
"381 49 LINE",
"375 305 OFFCURVE",
"435 514 OFFCURVE",
"473 752 CURVE",
"452 770 LINE",
"294 743 LINE",
"296 707 LINE",
"411 689 LINE",
"381 710 LINE",
"377 628 OFFCURVE",
"366 551 OFFCURVE",
"357 477 CURVE",
"352 441 LINE",
"346 287 OFFCURVE",
"222 43 OFFCURVE",
"157 43 CURVE SMOOTH",
"130 43 OFFCURVE",
"111 86 OFFCURVE",
"111 146 CURVE SMOOTH",
"111 267 OFFCURVE",
"183 461 OFFCURVE",
"234 461 CURVE SMOOTH",
"287 461 OFFCURVE",
"365 416 OFFCURVE",
"378 410 CURVE",
"379 494 LINE",
"359 495 OFFCURVE",
"282 508 OFFCURVE",
"248 508 CURVE SMOOTH",
"157 508 OFFCURVE",
"27 294 OFFCURVE",
"29 140 CURVE SMOOTH",
"30 39 OFFCURVE",
"64 -10 OFFCURVE",
"132 -10 CURVE SMOOTH"
);
}
);
width = 507.6;
}
);
leftKerningGroup = lc_Round;
rightKerningGroup = lc_LongtStem;
unicode = 0064;
},
{
color = 6;
glyphname = eth;
layers = (
{
color = 6;
layerId = "B953D09C-6DD0-450A-A78C-8C2188DD4016";
paths = (
{
closed = 1;
nodes = (
"394 -15 OFFCURVE",
"489 219 OFFCURVE",
"489 389 CURVE SMOOTH",
"489 540 OFFCURVE",
"423 663 OFFCURVE",
"308 770 CURVE",
"236 739 LINE",
"293 662 OFFCURVE",
"353 584 OFFCURVE",
"353 397 CURVE SMOOTH",
"353 240 OFFCURVE",
"314 77 OFFCURVE",
"224 77 CURVE SMOOTH",
"183 77 OFFCURVE",
"174 125 OFFCURVE",
"174 182 CURVE SMOOTH",
"174 296 OFFCURVE",
"214 429 OFFCURVE",
"328 429 CURVE SMOOTH",
"348 429 OFFCURVE",
"395 422 OFFCURVE",
"429 391 CURVE",
"420 487 LINE",
"398 501 OFFCURVE",
"333 506 OFFCURVE",
"306 506 CURVE SMOOTH",
"162 506 OFFCURVE",
"29 348 OFFCURVE",
"29 171 CURVE SMOOTH",
"29 65 OFFCURVE",
"71 -15 OFFCURVE",
"196 -15 CURVE SMOOTH"
);
},
{
closed = 1;
nodes = (
"509 689 LINE",
"483 746 LINE",
"175 597 LINE",
"202 542 LINE"
);
}
);
width = 518;
},
{
layerId = "3088057A-3552-44D5-8A67-1301E2609A93";
paths = (
{
closed = 1;
nodes = (
"349 -10 OFFCURVE",
"437 221 OFFCURVE",
"437 392 CURVE SMOOTH",
"437 539 OFFCURVE",
"388 655 OFFCURVE",
"289 768 CURVE",
"242 748 LINE",
"295 672 OFFCURVE",
"356 591 OFFCURVE",
"356 400 CURVE SMOOTH",
"356 269 OFFCURVE",
"310 42 OFFCURVE",
"188 42 CURVE SMOOTH",
"131 42 OFFCURVE",
"125 117 OFFCURVE",
"125 174 CURVE SMOOTH",
"125 288 OFFCURVE",
"170 459 OFFCURVE",
"284 459 CURVE SMOOTH",
"299 459 OFFCURVE",
"347 454 OFFCURVE",
"385 421 CURVE",
"366 489 LINE",
"344 503 OFFCURVE",
"310 508 OFFCURVE",
"283 508 CURVE SMOOTH",
"135 508 OFFCURVE",
"33 322 OFFCURVE",
"33 168 CURVE SMOOTH",
"33 62 OFFCURVE",
"72 -10 OFFCURVE",
"181 -10 CURVE SMOOTH"
);
},
{
closed = 1;
nodes = (
"500 699 LINE",
"479 741 LINE",
"171 590 LINE",
"192 551 LINE"
);
}
);
width = 471.8;
}
);
leftKerningGroup = lc_Round;
rightKerningGroup = lc_eth;
unicode = 00F0;
},
{
color = 6;
glyphname = e;
layers = (
{
anchors = (
{
name = bottom;
position = "{153, 0}";
},
{
name = ogonek;
position = "{252, 0}";
},
{
name = top;
position = "{293, 494}";
}
);
color = 6;
layerId = "B953D09C-6DD0-450A-A78C-8C2188DD4016";
paths = (
{
closed = 1;
nodes = (
"242 -15 OFFCURVE",
"343 44 OFFCURVE",
"401 124 CURVE",
"355 164 LINE",
"319 127 OFFCURVE",
"257 82 OFFCURVE",
"215 82 CURVE SMOOTH",
"184 82 OFFCURVE",
"161 102 OFFCURVE",
"161 154 CURVE SMOOTH",
"161 270 OFFCURVE",
"210 423 OFFCURVE",
"258 423 CURVE SMOOTH",
"297 423 OFFCURVE",
"311 413 OFFCURVE",
"311 395 CURVE SMOOTH",
"311 339 OFFCURVE",
"242 270 OFFCURVE",
"126 260 CURVE",
"125 198 LINE",
"321 222 OFFCURVE",
"439 310 OFFCURVE",
"439 424 CURVE SMOOTH",
"439 483 OFFCURVE",
"383 513 OFFCURVE",
"278 513 CURVE SMOOTH",
"173 513 OFFCURVE",
"23 299 OFFCURVE",
"23 138 CURVE SMOOTH",
"23 28 OFFCURVE",
"84 -15 OFFCURVE",
"158 -15 CURVE SMOOTH"
);
}
);
width = 450;
},
{
anchors = (
{
name = bottom;
position = "{126, 0}";
},
{
name = ogonek;
position = "{228, 0}";
},
{
name = top;
position = "{240, 494}";
}
);
layerId = "3088057A-3552-44D5-8A67-1301E2609A93";
paths = (
{
closed = 1;
nodes = (
"226 -10 OFFCURVE",
"305 39 OFFCURVE",
"360 133 CURVE",
"330 153 LINE",
"279 82 OFFCURVE",
"221 47 OFFCURVE",
"173 47 CURVE SMOOTH",
"132 47 OFFCURVE",
"112 84 OFFCURVE",
"112 150 CURVE SMOOTH",
"112 270 OFFCURVE",
"185 453 OFFCURVE",
"235 453 CURVE SMOOTH",
"281 453 OFFCURVE",
"301 438 OFFCURVE",
"301 404 CURVE SMOOTH",
"301 330 OFFCURVE",
"218 270 OFFCURVE",
"97 252 CURVE",
"96 210 LINE",
"274 242 OFFCURVE",
"382 325 OFFCURVE",
"382 430 CURVE SMOOTH",
"382 481 OFFCURVE",
"330 508 OFFCURVE",
"237 508 CURVE SMOOTH",
"152 508 OFFCURVE",
"30 295 OFFCURVE",
"30 141 CURVE SMOOTH",
"30 43 OFFCURVE",
"69 -10 OFFCURVE",
"142 -10 CURVE SMOOTH"
);
}
);
width = 403.8;
}
);
leftKerningGroup = lc_Round;
rightKerningGroup = lc_e;
unicode = 0065;
},
{
color = 6;
glyphname = schwa;
layers = (
{
color = 6;
layerId = "B953D09C-6DD0-450A-A78C-8C2188DD4016";
paths = (
{
closed = 1;
nodes = (
"221 -15 OFFCURVE",
"328 33 OFFCURVE",
"379 113 CURVE SMOOTH",
"416 171 OFFCURVE",
"447 247 OFFCURVE",
"447 328 CURVE SMOOTH",
"447 449 OFFCURVE",
"390 513 OFFCURVE",
"283 513 CURVE SMOOTH",
"215 513 OFFCURVE",
"138 458 OFFCURVE",
"85 378 CURVE",
"131 338 LINE",
"162 375 OFFCURVE",
"201 420 OFFCURVE",
"251 420 CURVE SMOOTH",
"281 420 OFFCURVE",
"301 385 OFFCURVE",
"301 324 CURVE SMOOTH",
"301 181 OFFCURVE",
"267 93 OFFCURVE",
"202 74 CURVE SMOOTH",
"121 50 OFFCURVE",
"101 104 OFFCURVE",
"136 154 CURVE SMOOTH",
"163 193 OFFCURVE",
"225 229 OFFCURVE",
"307 236 CURVE",
"308 298 LINE",
"112 274 OFFCURVE",
"6 204 OFFCURVE",
"6 90 CURVE SMOOTH",
"6 18 OFFCURVE",
"63 -15 OFFCURVE",
"134 -15 CURVE SMOOTH"
);
}
);
width = 476;
},
{
layerId = "3088057A-3552-44D5-8A67-1301E2609A93";
paths = (
{
closed = 1;
nodes = (
"186 -10 OFFCURVE",
"277 30 OFFCURVE",
"321 94 CURVE SMOOTH",
"364 160 OFFCURVE",
"396 239 OFFCURVE",
"396 335 CURVE SMOOTH",
"396 445 OFFCURVE",
"346 508 OFFCURVE",
"254 508 CURVE SMOOTH",
"174 508 OFFCURVE",
"109 464 OFFCURVE",
"59 373 CURVE",
"90 349 LINE",
"133 418 OFFCURVE",
"185 454 OFFCURVE",
"232 454 CURVE SMOOTH",
"283 454 OFFCURVE",
"304 415 OFFCURVE",
"304 337 CURVE SMOOTH",
"304 168 OFFCURVE",
"241 46 OFFCURVE",
"155 48 CURVE SMOOTH",
"92 50 OFFCURVE",
"82 93 OFFCURVE",
"106 140 CURVE SMOOTH",
"134 193 OFFCURVE",
"207 233 OFFCURVE",
"304 248 CURVE",
"305 291 LINE",
"122 260 OFFCURVE",
"10 175 OFFCURVE",
"10 69 CURVE SMOOTH",
"10 15 OFFCURVE",
"55 -10 OFFCURVE",
"112 -10 CURVE SMOOTH"
);
}
);
width = 429.8;
}
);
leftKerningGroup = lc_s;
rightKerningGroup = lc_s;
unicode = 0259;
},
{
color = 6;
glyphname = f;
layers = (
{
anchors = (
{
name = bottom;
position = "{146, 0}";
},
{
name = top;
position = "{238, 756}";
}
);
color = 6;
layerId = "B953D09C-6DD0-450A-A78C-8C2188DD4016";
paths = (
{
closed = 1;
nodes = (
"23 -229 OFFCURVE",
"128 -168 OFFCURVE",
"179 -49 CURVE SMOOTH",
"217 39 OFFCURVE",
"221 222 OFFCURVE",
"268 476 CURVE",
"195 420 LINE",
"349 420 LINE",
"370 497 LINE",
"210 497 LINE",
"262 432 LINE",
"262 527 OFFCURVE",
"247 617 OFFCURVE",
"260 634 CURVE SMOOTH",
"275 653 OFFCURVE",
"346 664 OFFCURVE",
"414 661 CURVE",
"442 770 LINE",
"285 769 OFFCURVE",
"173 681 OFFCURVE",
"146 550 CURVE SMOOTH",
"145 544 OFFCURVE",
"139 521 OFFCURVE",
"124 511 CURVE SMOOTH",
"108 500 OFFCURVE",
"75 488 OFFCURVE",
"43 478 CURVE",
"37 420 LINE",
"188 420 LINE",
"129 452 LINE",
"108 298 OFFCURVE",
"75 -59 OFFCURVE",
"24 -102 CURVE SMOOTH",
"8 -116 OFFCURVE",
"-26 -125 OFFCURVE",
"-69 -126 CURVE",
"-103 -235 LINE"
);
}
);
width = 354;
},
{
anchors = (
{
name = bottom;
position = "{123, 0}";
},
{
name = top;
position = "{181, 468}";
}
);
layerId = "3088057A-3552-44D5-8A67-1301E2609A93";
paths = (
{
closed = 1;
nodes = (
"9 -222 OFFCURVE",
"107 -149 OFFCURVE",
"132 -35 CURVE SMOOTH",
"155 73 OFFCURVE",
"170 278 OFFCURVE",
"203 456 CURVE",
"168 426 LINE",
"307 426 LINE",
"319 477 LINE",
"176 477 LINE",
"204 454 LINE",
"222 629 OFFCURVE",
"245 680 OFFCURVE",
"261 704 CURVE SMOOTH",
"279 732 OFFCURVE",
"322 747 OFFCURVE",
"385 745 CURVE",
"400 802 LINE",
"295 794 OFFCURVE",
"172 732 OFFCURVE",
"146 574 CURVE SMOOTH",
"134 504 OFFCURVE",
"136 495 OFFCURVE",
"128 490 CURVE SMOOTH",
"112 479 OFFCURVE",
"52 465 OFFCURVE",
"41 464 CURVE",
"37 426 LINE",
"156 426 LINE",
"128 451 LINE",
"112 239 OFFCURVE",
"66 -82 OFFCURVE",
"30 -135 CURVE SMOOTH",
"18 -151 OFFCURVE",
"-49 -176 OFFCURVE",
"-97 -177 CURVE",
"-115 -234 LINE"
);
}
);
width = 305.6;
}
);
leftKerningGroup = lc_f;
rightKerningGroup = lc_f;
unicode = 0066;
},
{
color = 6;
glyphname = g;
layers = (
{
anchors = (
{
name = center;
position = "{318, -36}";
},
{
name = top;
position = "{336, 494}";
}
);
color = 6;
layerId = "B953D09C-6DD0-450A-A78C-8C2188DD4016";
paths = (
{
closed = 1;
nodes = (
"208 -283 OFFCURVE",
"408 -201 OFFCURVE",
"435 15 CURVE SMOOTH",
"457 191 OFFCURVE",
"483 351 OFFCURVE",
"517 485 CURVE",
"477 513 LINE",
"358 481 LINE",
"356 435 LINE SMOOTH",
"349 270 OFFCURVE",
"246 114 OFFCURVE",
"197 114 CURVE SMOOTH",
"174 114 OFFCURVE",
"170 140 OFFCURVE",
"170 175 CURVE SMOOTH",
"170 292 OFFCURVE",
"210 407 OFFCURVE",
"245 407 CURVE SMOOTH",
"299 407 OFFCURVE",
"370 372 OFFCURVE",
"380 370 CURVE",
"403 492 LINE",
"383 493 OFFCURVE",
"300 513 OFFCURVE",
"262 513 CURVE SMOOTH",
"146 513 OFFCURVE",
"30 312 OFFCURVE",
"30 140 CURVE SMOOTH",
"30 62 OFFCURVE",
"53 -15 OFFCURVE",
"110 -15 CURVE SMOOTH",
"218 -15 OFFCURVE",
"316 113 OFFCURVE",
"375 266 CURVE",
"363 279 LINE",
"358 195 OFFCURVE",
"329 76 OFFCURVE",
"304 -7 CURVE",
"304 -18 OFFCURVE",
"305 -88 OFFCURVE",
"288 -102 CURVE SMOOTH",
"241 -142 OFFCURVE",
"131 -136 OFFCURVE",
"27 -89 CURVE",
"-16 -208 LINE"
);
}
);
width = 543;
},
{
anchors = (
{
name = center;
position = "{284, -77}";
},
{
name = top;
position = "{305, 494}";
}
);
layerId = "3088057A-3552-44D5-8A67-1301E2609A93";
paths = (
{
closed = 1;
nodes = (
"193 -282 OFFCURVE",
"351 -171 OFFCURVE",
"371 7 CURVE SMOOTH",
"393 195 OFFCURVE",
"413 357 OFFCURVE",
"447 495 CURVE",
"426 508 LINE",
"356 492 LINE",
"354 442 LINE SMOOTH",
"348 288 OFFCURVE",
"220 43 OFFCURVE",
"159 43 CURVE SMOOTH",
"130 43 OFFCURVE",
"111 88 OFFCURVE",
"111 146 CURVE SMOOTH",
"111 268 OFFCURVE",
"180 461 OFFCURVE",
"235 461 CURVE SMOOTH",
"285 461 OFFCURVE",
"367 416 OFFCURVE",
"379 410 CURVE",
"381 494 LINE",
"361 495 OFFCURVE",
"281 508 OFFCURVE",
"248 508 CURVE SMOOTH",
"155 508 OFFCURVE",
"29 291 OFFCURVE",
"29 140 CURVE SMOOTH",
"29 40 OFFCURVE",
"65 -10 OFFCURVE",
"132 -10 CURVE SMOOTH",
"205 -10 OFFCURVE",
"281 78 OFFCURVE",
"334 196 CURVE",
"329 215 LINE",
"313 109 OFFCURVE",
"309 61 OFFCURVE",
"301 -8 CURVE",
"297 -75 OFFCURVE",
"282 -121 OFFCURVE",
"270 -132 CURVE SMOOTH",
"220 -178 OFFCURVE",
"91 -179 OFFCURVE",
"-7 -147 CURVE",
"-35 -217 LINE"
);
}
);
width = 479.2;
}
);
leftKerningGroup = lc_Round;
rightKerningGroup = lc_descender;
unicode = 0067;
},
{
color = 3;
glyphname = gstroke;
layers = (
{
anchors = (
{
name = center;
position = "{313, -36}";
},
{
name = top;
position = "{331, 494}";
}
);
color = 3;
components = (
{
name = barcomp;
transform = "{1, 0, 0, 1, -45, -628}";
}
);
layerId = "B953D09C-6DD0-450A-A78C-8C2188DD4016";
paths = (
{
closed = 1;
nodes = (
"203 -283 OFFCURVE",
"403 -201 OFFCURVE",
"430 15 CURVE SMOOTH",
"452 191 OFFCURVE",
"477 348 OFFCURVE",
"511 482 CURVE",
"471 510 LINE",
"353 481 LINE",
"351 435 LINE SMOOTH",
"344 270 OFFCURVE",
"254 165 OFFCURVE",
"204 165 CURVE SMOOTH",
"181 165 OFFCURVE",
"166 191 OFFCURVE",
"168 226 CURVE SMOOTH",
"173 313 OFFCURVE",
"208 404 OFFCURVE",
"243 404 CURVE SMOOTH",
"297 404 OFFCURVE",
"365 369 OFFCURVE",
"375 367 CURVE",
"398 489 LINE",
"378 490 OFFCURVE",
"295 510 OFFCURVE",
"257 510 CURVE SMOOTH",
"171 510 OFFCURVE",
"57 386 OFFCURVE",
"28 191 CURVE SMOOTH",
"15 103 OFFCURVE",
"60 36 OFFCURVE",
"117 36 CURVE SMOOTH",
"225 36 OFFCURVE",
"323 164 OFFCURVE",
"382 317 CURVE",
"358 317 LINE",
"357 207 OFFCURVE",
"324 76 OFFCURVE",
"299 -7 CURVE",
"299 -18 OFFCURVE",
"300 -88 OFFCURVE",
"283 -102 CURVE SMOOTH",
"236 -142 OFFCURVE",
"126 -136 OFFCURVE",
"22 -89 CURVE",
"-21 -208 LINE"
);
}
);
width = 543;
},
{
anchors = (
{
name = center;
position = "{284, -75}";
},
{
name = top;
position = "{306, 494}";
}
);
components = (
{
alignment = -1;
name = barcomp;
transform = "{1, 0, 0, 1, 17, -681}";
}
);
layerId = "3088057A-3552-44D5-8A67-1301E2609A93";
paths = (
{
closed = 1;
nodes = (
"193 -281 OFFCURVE",
"351 -170 OFFCURVE",
"372 7 CURVE SMOOTH",
"393 188 OFFCURVE",
"410 340 OFFCURVE",
"446 490 CURVE",
"426 502 LINE",
"355 487 LINE",
"353 437 LINE SMOOTH",
"347 284 OFFCURVE",
"219 39 OFFCURVE",
"158 39 CURVE SMOOTH",
"129 39 OFFCURVE",
"111 82 OFFCURVE",
"111 140 CURVE SMOOTH",
"110 264 OFFCURVE",
"183 455 OFFCURVE",
"235 455 CURVE SMOOTH",
"285 455 OFFCURVE",
"366 411 OFFCURVE",
"378 404 CURVE",
"380 489 LINE",
"360 490 OFFCURVE",
"283 502 OFFCURVE",
"249 502 CURVE SMOOTH",
"153 502 OFFCURVE",
"26 282 OFFCURVE",
"29 134 CURVE SMOOTH",
"30 35 OFFCURVE",
"64 -15 OFFCURVE",
"131 -15 CURVE SMOOTH",
"204 -15 OFFCURVE",
"280 73 OFFCURVE",
"333 191 CURVE",
"328 210 LINE",
"313 109 OFFCURVE",
"310 61 OFFCURVE",
"301 -8 CURVE",
"298 -71 OFFCURVE",
"282 -121 OFFCURVE",
"271 -132 CURVE SMOOTH",
"222 -178 OFFCURVE",
"93 -179 OFFCURVE",
"-7 -146 CURVE",
"-34 -217 LINE"
);
}
);
width = 478.1;
}
);
leftKerningGroup = lc_Round;
rightKerningGroup = lc_gstroke;
unicode = 01E5;
},
{
color = 6;
glyphname = h;
layers = (
{
anchors = (
{
name = bottom;
position = "{261, 0}";
},
{
name = center;
position = "{212, 585}";
},
{
name = top;
position = "{225, 756}";
}
);
color = 6;
layerId = "B953D09C-6DD0-450A-A78C-8C2188DD4016";
paths = (
{
closed = 1;
nodes = (
"173 3 LINE",
"174 10 OFFCURVE",
"175 16 OFFCURVE",
"176 23 CURVE",
"201 187 OFFCURVE",
"284 385 OFFCURVE",
"353 385 CURVE SMOOTH",
"372 385 OFFCURVE",
"374 360 OFFCURVE",
"374 341 CURVE SMOOTH",
"374 282 OFFCURVE",
"332 125 OFFCURVE",
"297 3 CURVE",
"331 -15 LINE",
"532 27 LINE",
"536 80 LINE",
"404 90 LINE",
"464 40 LINE",
"468 179 OFFCURVE",
"519 332 OFFCURVE",
"519 431 CURVE SMOOTH",
"519 478 OFFCURVE",
"491 513 OFFCURVE",
"439 513 CURVE SMOOTH",
"347 513 OFFCURVE",
"255 405 OFFCURVE",
"191 240 CURVE",
"192 240 LINE",
"211 364 OFFCURVE",
"252 578 OFFCURVE",
"289 742 CURVE",
"255 770 LINE",
"57 737 LINE",
"60 684 LINE",
"190 667 LINE",
"129 692 LINE",
"124 611 OFFCURVE",
"87 232 OFFCURVE",
"21 3 CURVE",
"58 -15 LINE"
);
}
);
width = 579;
},
{
anchors = (
{
name = bottom;
position = "{223, 0}";
},
{
name = center;
position = "{179, 610}";
},
{
name = top;
position = "{154, 718}";
}
);
layerId = "3088057A-3552-44D5-8A67-1301E2609A93";
paths = (
{
closed = 1;
nodes = (
"110 5 LINE",
"115 50 OFFCURVE",
"117 81 OFFCURVE",
"125 137 CURVE",
"178 338 OFFCURVE",
"286 441 OFFCURVE",
"329 441 CURVE SMOOTH",
"356 441 OFFCURVE",
"363 415 OFFCURVE",
"363 386 CURVE SMOOTH",
"363 290 OFFCURVE",
"329 131 OFFCURVE",
"301 5 CURVE",
"324 -10 LINE",
"490 35 LINE",
"492 68 LINE",
"363 75 LINE",
"394 46 LINE",
"398 180 OFFCURVE",
"449 329 OFFCURVE",
"449 424 CURVE SMOOTH",
"449 470 OFFCURVE",
"427 508 OFFCURVE",
"377 508 CURVE SMOOTH",
"267 508 OFFCURVE",
"179 378 OFFCURVE",
"142 306 CURVE",
"150 303 LINE",
"173 460 OFFCURVE",
"200 607 OFFCURVE",
"225 752 CURVE",
"204 770 LINE",
"45 743 LINE",
"48 707 LINE",
"165 689 LINE",
"135 712 LINE",
"121 515 OFFCURVE",
"72 177 OFFCURVE",
"28 5 CURVE",
"51 -10 LINE"
);
}
);
width = 529.5;
}
);
leftKerningGroup = lc_LongtStem;
rightKerningGroup = lc_Shoulder;
unicode = 0068;
},
{
color = 6;
glyphname = idotless;
layers = (
{
anchors = (
{
name = bottom;
position = "{162, 0}";
},
{
name = ogonek;
position = "{157, 0}";
},
{
name = top;
position = "{186, 494}";
}
);
color = 6;
layerId = "B953D09C-6DD0-450A-A78C-8C2188DD4016";
paths = (
{
closed = 1;
nodes = (
"276 27 LINE",
"280 80 LINE",
"139 91 LINE",
"198 44 LINE",
"211 191 OFFCURVE",
"245 376 OFFCURVE",
"273 485 CURVE",
"234 513 LINE",
"44 470 LINE",
"44 418 LINE",
"176 410 LINE",
"115 451 LINE",
"109 317 OFFCURVE",
"90 185 OFFCURVE",
"42 3 CURVE",
"76 -15 LINE"
);
}
);
width = 319;
},
{
anchors = (
{
name = bottom;
position = "{133, 0}";
},
{
name = ogonek;
position = "{124, 0}";
},
{
name = top;
position = "{160, 494}";
}
);
layerId = "3088057A-3552-44D5-8A67-1301E2609A93";
paths = (
{
closed = 1;
nodes = (
"238 35 LINE",
"242 68 LINE",
"118 75 LINE",
"146 47 LINE",
"171 226 OFFCURVE",
"196 385 OFFCURVE",
"225 488 CURVE",
"203 508 LINE",
"41 463 LINE",
"42 426 LINE",
"158 420 LINE",
"127 447 LINE",
"111 276 OFFCURVE",
"101 199 OFFCURVE",
"53 5 CURVE",
"77 -10 LINE"
);
}
);
width = 278.3;
}
);
leftKerningGroup = lc_ShortStem;
rightKerningGroup = lc_ShortStem;
unicode = 0131;
},
{
color = 3;
glyphname = iogonek;
layers = (
{
color = 3;
components = (
{
name = dotaccentcomb;
transform = "{1, 0, 0, 1, 67, 20}";
},
{
name = ogonekcomb;
transform = "{1, 0, 0, 1, -39, 0}";
}
);
layerId = "B953D09C-6DD0-450A-A78C-8C2188DD4016";
paths = (
{
closed = 1;
nodes = (
"267 510 LINE",
"77 467 LINE",
"77 415 LINE",
"209 407 LINE",
"148 448 LINE",
"142 314 OFFCURVE",
"123 182 OFFCURVE",
"75 0 CURVE",
"109 -18 LINE",
"309 24 LINE",
"313 77 LINE",
"172 88 LINE",
"231 41 LINE",
"244 188 OFFCURVE",
"278 373 OFFCURVE",
"306 482 CURVE"
);
}
);
width = 353;
},
{
components = (
{
alignment = -1;
name = dotaccentcomb;
transform = "{1, 0, 0, 1, 14, 31}";
},
{
alignment = -1;
name = ogonekcomb;
transform = "{1, 0, 0, 1, -37, 1}";
}
);
layerId = "3088057A-3552-44D5-8A67-1301E2609A93";
paths = (
{
closed = 1;
nodes = (
"215 503 LINE",
"53 460 LINE",
"54 423 LINE",
"171 417 LINE",
"139 444 LINE",
"123 276 OFFCURVE",
"115 194 OFFCURVE",
"66 0 CURVE",
"90 -15 LINE",
"251 30 LINE",
"254 64 LINE",
"130 70 LINE",
"160 42 LINE",
"184 218 OFFCURVE",
"209 385 OFFCURVE",
"237 484 CURVE"
);
}
);
width = 292.5;
}
);
leftKerningGroup = lc_ShortStem;
rightKerningGroup = lc_ShortStem;
unicode = 012F;
},
{
color = 6;
glyphname = jdotless;
layers = (
{
anchors = (
{
name = top;
position = "{186, 494}";
}
);
color = 6;
layerId = "B953D09C-6DD0-450A-A78C-8C2188DD4016";
paths = (
{
closed = 1;
nodes = (
"54 -177 OFFCURVE",
"184 -56 OFFCURVE",
"189 -15 CURVE SMOOTH",
"217 214 OFFCURVE",
"231 308 OFFCURVE",
"273 485 CURVE",
"234 513 LINE",
"44 470 LINE",
"44 418 LINE",
"176 410 LINE",
"115 455 LINE",
"111 313 OFFCURVE",
"80 143 OFFCURVE",
"49 14 CURVE SMOOTH",
"46 0 OFFCURVE",
"-4 -117 OFFCURVE",
"-51 -201 CURVE",
"-4 -235 LINE"
);
}
);
width = 299;
},
{
anchors = (
{
name = top;
position = "{162, 494}";
}
);
layerId = "3088057A-3552-44D5-8A67-1301E2609A93";
paths = (
{
closed = 1;
nodes = (
"33 -177 OFFCURVE",
"130 -56 OFFCURVE",
"137 -16 CURVE SMOOTH",
"176 214 OFFCURVE",
"195 383 OFFCURVE",
"226 489 CURVE",
"204 509 LINE",
"42 465 LINE",
"43 427 LINE",
"160 421 LINE",
"128 445 LINE",
"118 303 OFFCURVE",
"91 128 OFFCURVE",
"63 13 CURVE SMOOTH",
"53 -30 OFFCURVE",
"-3 -143 OFFCURVE",
"-42 -209 CURVE",
"-13 -235 LINE"
);
}
);
width = 255;
}
);
leftKerningGroup = lc_j;
rightKerningGroup = lc_descender;
unicode = 0237;
},
{
color = 6;
glyphname = k;
layers = (
{
anchors = (
{
name = bottom;
position = "{259, 0}";
},
{
name = top;
position = "{351, 746}";
}
);
color = 6;
layerId = "B953D09C-6DD0-450A-A78C-8C2188DD4016";
paths = (
{
closed = 1;
nodes = (
"176 3 LINE",
"178 23 OFFCURVE",
"179 39 OFFCURVE",
"182 57 CURVE",
"208 226 OFFCURVE",
"306 406 OFFCURVE",
"374 406 CURVE SMOOTH",
"390 406 OFFCURVE",
"400 395 OFFCURVE",
"400 378 CURVE SMOOTH",
"400 318 OFFCURVE",
"341 263 OFFCURVE",
"243 229 CURVE",
"243 180 LINE",
"358 -15 LINE",
"527 27 LINE",
"531 80 LINE",
"400 95 LINE",
"489 65 LINE",
"440 103 OFFCURVE",
"383 184 OFFCURVE",
"347 255 CURVE",
"313 195 LINE",
"466 253 OFFCURVE",
"539 326 OFFCURVE",
"539 429 CURVE SMOOTH",
"539 486 OFFCURVE",
"510 513 OFFCURVE",
"451 513 CURVE SMOOTH",
"337 513 OFFCURVE",
"234 373 OFFCURVE",
"175 197 CURVE",
"185 198 LINE",
"206 337 OFFCURVE",
"251 572 OFFCURVE",
"289 742 CURVE",
"255 770 LINE",
"57 737 LINE",
"60 684 LINE",
"190 667 LINE",
"130 713 LINE",
"119 503 OFFCURVE",
"66 157 OFFCURVE",
"22 3 CURVE",
"60 -15 LINE"
);
}
);
width = 578;
},
{
anchors = (
{
name = bottom;
position = "{216, 0}";
},
{
name = top;
position = "{295, 750}";
}
);
layerId = "3088057A-3552-44D5-8A67-1301E2609A93";
paths = (
{
closed = 1;
nodes = (
"110 5 LINE",
"110 5 OFFCURVE",
"122 98 OFFCURVE",
"128 140 CURVE",
"171 313 OFFCURVE",
"270 437 OFFCURVE",
"345 437 CURVE SMOOTH",
"360 437 OFFCURVE",
"371 426 OFFCURVE",
"371 406 CURVE SMOOTH",
"371 337 OFFCURVE",
"300 271 OFFCURVE",
"176 233 CURVE",
"176 197 LINE",
"306 -10 LINE",
"446 35 LINE",
"450 68 LINE",
"324 68 LINE",
"368 54 LINE",
"326 94 OFFCURVE",
"272 169 OFFCURVE",
"237 229 CURVE",
"221 209 LINE",
"354 244 OFFCURVE",
"440 335 OFFCURVE",
"440 428 CURVE SMOOTH",
"440 476 OFFCURVE",
"418 508 OFFCURVE",
"376 508 CURVE SMOOTH",
"293 508 OFFCURVE",
"204 436 OFFCURVE",
"144 306 CURVE",
"153 310 LINE",
"174 457 OFFCURVE",
"183 493 OFFCURVE",
"226 752 CURVE",
"206 770 LINE",
"46 743 LINE",
"47 707 LINE",
"165 689 LINE",
"136 712 LINE",
"117 483 OFFCURVE",
"67 160 OFFCURVE",
"28 5 CURVE",
"51 -10 LINE"
);
}
);
width = 490;
}
);
leftKerningGroup = lc_LongtStem;
rightKerningGroup = lc_k;
unicode = 006B;
},
{
color = 6;
glyphname = kgreenlandic;
layers = (
{
anchors = (
{
name = bottom;
position = "{264, 0}";
},
{
name = top;
position = "{324, 494}";
}
);
color = 6;
layerId = "B953D09C-6DD0-450A-A78C-8C2188DD4016";
paths = (
{
closed = 1;
nodes = (
"535 27 LINE",
"539 80 LINE",
"408 95 LINE",
"497 65 LINE",
"448 103 OFFCURVE",
"391 184 OFFCURVE",
"355 255 CURVE",
"321 195 LINE",
"474 253 OFFCURVE",
"547 326 OFFCURVE",
"547 429 CURVE SMOOTH",
"547 486 OFFCURVE",
"518 513 OFFCURVE",
"459 513 CURVE SMOOTH",
"345 513 OFFCURVE",
"242 373 OFFCURVE",
"183 197 CURVE",
"190 57 LINE",
"216 226 OFFCURVE",
"314 406 OFFCURVE",
"382 406 CURVE SMOOTH",
"398 406 OFFCURVE",
"408 395 OFFCURVE",
"408 378 CURVE SMOOTH",
"408 318 OFFCURVE",
"349 263 OFFCURVE",
"251 229 CURVE",
"251 180 LINE",
"366 -15 LINE"
);
},
{
closed = 1;
nodes = (
"186 3 LINE",
"206 243 LINE",
"230 363 OFFCURVE",
"253 416 OFFCURVE",
"276 485 CURVE",
"237 513 LINE",
"46 470 LINE",
"46 418 LINE",
"177 410 LINE",
"116 450 LINE",
"111 318 OFFCURVE",
"84 183 OFFCURVE",
"36 3 CURVE",
"70 -15 LINE"
);
}
);
width = 586;
},
{
anchors = (
{
name = bottom;
position = "{282, 0}";
},
{
name = top;
position = "{352, 494}";
}
);
associatedMasterId = "B953D09C-6DD0-450A-A78C-8C2188DD4016";
background = {
paths = (
{
closed = 1;
nodes = (
"391 422 LINE",
"247 265 LINE",
"311 110 LINE",
"326 68 LINE",
"329 60 LINE",
"348 0 LINE",
"443 0 LINE SMOOTH",
"499 0 OFFCURVE",
"552 -5 OFFCURVE",
"552 -5 CURVE",
"568 71 LINE",
"511 77 LINE",
"486 110 OFFCURVE",
"452 151 OFFCURVE",
"448 162 CURVE SMOOTH",
"392 280 LINE",
"469 366 LINE SMOOTH",
"484 383 OFFCURVE",
"524 405 OFFCURVE",
"557 423 CURVE",
"609 428 LINE",
"622 498 LINE",
"622 498 OFFCURVE",
"547 494 OFFCURVE",
"508 494 CURVE SMOOTH",
"440 494 OFFCURVE",
"355 499 OFFCURVE",
"355 499 CURVE",
"339 428 LINE"
);
},
{
closed = 1;
nodes = (
"278 71 LINE",
"216 77 LINE",
"216 77 OFFCURVE",
"218 143 OFFCURVE",
"225 193 CURVE SMOOTH",
"240 295 LINE SMOOTH",
"247 345 OFFCURVE",
"276 477 OFFCURVE",
"276 477 CURVE",
"258 496 LINE",
"173 494 LINE SMOOTH",
"132 494 OFFCURVE",
"60 503 OFFCURVE",
"60 503 CURVE",
"41 429 LINE",
"111 412 LINE",
"111 412 OFFCURVE",
"111 345 OFFCURVE",
"108 325 CURVE SMOOTH",
"85 163 LINE SMOOTH",
"82 143 OFFCURVE",
"63 77 OFFCURVE",
"63 77 CURVE",
"-3 65 LINE",
"-8 -5 LINE",
"-8 -5 OFFCURVE",
"44 0 OFFCURVE",
"90 0 CURVE SMOOTH",
"200 0 OFFCURVE",
"263 -5 OFFCURVE",
"263 -5 CURVE"
);
}
);
};
color = 6;
layerId = "6ACBCF70-C8C2-4DFE-9957-DD7377ABFF92";
name = "Nov 26 19, 10:08";
paths = (
{
closed = 1;
nodes = (
"177 0 LINE",
"179 20 OFFCURVE",
"181 39 OFFCURVE",
"184 57 CURVE",
"210 226 OFFCURVE",
"307 403 OFFCURVE",
"375 403 CURVE SMOOTH",
"391 403 OFFCURVE",
"401 392 OFFCURVE",
"401 375 CURVE SMOOTH",
"401 315 OFFCURVE",
"342 260 OFFCURVE",
"244 226 CURVE",
"244 177 LINE",
"358 -18 LINE",
"528 24 LINE",
"532 77 LINE",
"401 92 LINE",
"490 62 LINE",
"441 100 OFFCURVE",
"384 181 OFFCURVE",
"348 252 CURVE",
"314 192 LINE",
"467 250 OFFCURVE",
"540 323 OFFCURVE",
"540 426 CURVE SMOOTH",
"540 483 OFFCURVE",
"511 510 OFFCURVE",
"452 510 CURVE SMOOTH",
"333 510 OFFCURVE",
"243 372 OFFCURVE",
"193 240 CURVE",
"194 240 LINE",
"214 369 OFFCURVE",
"253 572 OFFCURVE",
"291 742 CURVE",
"257 770 LINE",
"59 737 LINE",
"62 684 LINE",
"192 667 LINE",
"132 713 LINE",
"121 503 OFFCURVE",
"67 154 OFFCURVE",
"23 0 CURVE",
"61 -18 LINE"
);
}
);
width = 638;
},
{
anchors = (
{
name = bottom;
position = "{230, 0}";
},
{
name = top;
position = "{290, 494}";
}
);
layerId = "3088057A-3552-44D5-8A67-1301E2609A93";
paths = (
{
closed = 1;
nodes = (
"476 35 LINE",
"480 68 LINE",
"354 68 LINE",
"398 54 LINE",
"356 94 OFFCURVE",
"302 169 OFFCURVE",
"267 229 CURVE",
"251 209 LINE",
"384 244 OFFCURVE",
"470 335 OFFCURVE",
"470 428 CURVE SMOOTH",
"470 476 OFFCURVE",
"448 508 OFFCURVE",
"406 508 CURVE SMOOTH",
"323 508 OFFCURVE",
"234 436 OFFCURVE",
"174 306 CURVE",
"158 140 LINE",
"201 313 OFFCURVE",
"300 437 OFFCURVE",
"375 437 CURVE SMOOTH",
"390 437 OFFCURVE",
"401 426 OFFCURVE",
"401 406 CURVE SMOOTH",
"401 337 OFFCURVE",
"330 271 OFFCURVE",
"206 233 CURVE",
"206 197 LINE",
"336 -10 LINE"
);
},
{
closed = 1;
nodes = (
"138 5 LINE",
"183 299 LINE",
"195 370 OFFCURVE",
"206 444 OFFCURVE",
"219 489 CURVE",
"200 508 LINE",
"39 463 LINE",
"39 428 LINE",
"156 422 LINE",
"127 448 LINE",
"109 270 OFFCURVE",
"107 216 OFFCURVE",
"55 5 CURVE",
"79 -10 LINE"
);
}
);
width = 520;
}
);
leftKerningGroup = lc_LongtStem;
rightKerningGroup = lc_k;
unicode = 0138;
},
{
color = 6;
glyphname = l;
layers = (
{
anchors = (
{
name = bottom;
position = "{151, 0}";
},
{
name = center;
position = "{154, 382}";
},
{
name = centerright;
position = "{368, 410}";
},
{
name = top;
position = "{185, 756}";
},
{
name = topright;
position = "{342, 494}";
}
);
color = 6;
layerId = "B953D09C-6DD0-450A-A78C-8C2188DD4016";
paths = (
{
closed = 1;
nodes = (
"256 27 LINE",
"260 80 LINE",
"122 93 LINE",
"183 65 LINE",
"193 182 OFFCURVE",
"233 439 OFFCURVE",
"288 742 CURVE",
"254 770 LINE",
"56 737 LINE",
"59 684 LINE",
"189 667 LINE",
"128 692 LINE",
"123 611 OFFCURVE",
"87 232 OFFCURVE",
"21 3 CURVE",
"56 -15 LINE"
);
}
);
width = 299;
},
{
anchors = (
{
name = bottom;
position = "{141, 0}";
},
{
name = center;
position = "{144, 386}";
},
{
name = centerright;
position = "{327, 414}";
},
{
name = top;
position = "{151, 756}";
},
{
name = topright;
position = "{289, 500}";
}
);
layerId = "3088057A-3552-44D5-8A67-1301E2609A93";
paths = (
{
closed = 1;
nodes = (
"207 35 LINE",
"209 68 LINE",
"87 74 LINE",
"115 49 LINE",
"147 321 OFFCURVE",
"189 541 OFFCURVE",
"226 752 CURVE",
"206 770 LINE",
"46 743 LINE",
"49 707 LINE",
"166 689 LINE",
"136 712 LINE",
"122 515 OFFCURVE",
"72 177 OFFCURVE",
"28 5 CURVE",
"52 -10 LINE"
);
}
);
width = 246.2;
}
);
leftKerningGroup = lc_LongtStem;
rightKerningGroup = lc_LongtStem;
unicode = 006C;
},
{
color = 6;
glyphname = m;
layers = (
{
anchors = (
{
name = bottom;
position = "{416, 0}";
},
{
name = top;
position = "{476, 494}";
}
);
color = 6;
layerId = "B953D09C-6DD0-450A-A78C-8C2188DD4016";
paths = (
{
closed = 1;
nodes = (
"187 3 LINE",
"189 19 OFFCURVE",
"192 35 OFFCURVE",
"194 51 CURVE",
"218 193 OFFCURVE",
"311 384 OFFCURVE",
"379 384 CURVE SMOOTH",
"399 384 OFFCURVE",
"401 359 OFFCURVE",
"401 340 CURVE SMOOTH",
"401 281 OFFCURVE",
"358 125 OFFCURVE",
"323 3 CURVE",
"358 -15 LINE",
"473 3 LINE",
"474 13 OFFCURVE",
"475 22 OFFCURVE",
"476 31 CURVE",
"496 176 OFFCURVE",
"595 384 OFFCURVE",
"665 384 CURVE SMOOTH",
"684 384 OFFCURVE",
"686 359 OFFCURVE",
"686 340 CURVE SMOOTH",
"686 281 OFFCURVE",
"644 125 OFFCURVE",
"609 3 CURVE",
"643 -15 LINE",
"844 27 LINE",
"848 80 LINE",
"716 90 LINE",
"776 40 LINE",
"780 179 OFFCURVE",
"831 331 OFFCURVE",
"831 430 CURVE SMOOTH",
"831 477 OFFCURVE",
"803 513 OFFCURVE",
"751 513 CURVE SMOOTH",
"623 513 OFFCURVE",
"527 333 OFFCURVE",
"477 233 CURVE",
"482 222 LINE",
"533 358 OFFCURVE",
"588 513 OFFCURVE",
"465 513 CURVE SMOOTH",
"330 513 OFFCURVE",
"238 337 OFFCURVE",
"190 221 CURVE",
"195 222 LINE",
"219 342 OFFCURVE",
"252 416 OFFCURVE",
"277 485 CURVE",
"238 513 LINE",
"47 470 LINE",
"47 418 LINE",
"178 410 LINE",
"116 450 LINE",
"110 318 OFFCURVE",
"85 183 OFFCURVE",
"36 3 CURVE",
"71 -15 LINE"
);
}
);
width = 891;
},
{
anchors = (
{
name = bottom;
position = "{381, 0}";
},
{
name = top;
position = "{441, 494}";
}
);
layerId = "3088057A-3552-44D5-8A67-1301E2609A93";
paths = (
{
closed = 1;
nodes = (
"138 5 LINE",
"142 42 OFFCURVE",
"147 79 OFFCURVE",
"153 116 CURVE",
"203 326 OFFCURVE",
"310 442 OFFCURVE",
"355 442 CURVE SMOOTH",
"384 442 OFFCURVE",
"391 416 OFFCURVE",
"391 387 CURVE SMOOTH",
"391 294 OFFCURVE",
"357 137 OFFCURVE",
"326 5 CURVE",
"350 -10 LINE",
"410 5 LINE",
"416 55 OFFCURVE",
"424 118 OFFCURVE",
"429 145 CURVE",
"486 351 OFFCURVE",
"585 442 OFFCURVE",
"623 442 CURVE SMOOTH",
"651 442 OFFCURVE",
"660 417 OFFCURVE",
"660 387 CURVE SMOOTH",
"660 292 OFFCURVE",
"624 135 OFFCURVE",
"594 5 CURVE",
"619 -10 LINE",
"785 35 LINE",
"788 68 LINE",
"661 75 LINE",
"690 52 LINE",
"694 187 OFFCURVE",
"743 330 OFFCURVE",
"743 426 CURVE SMOOTH",
"743 470 OFFCURVE",
"724 508 OFFCURVE",
"673 508 CURVE SMOOTH",
"560 508 OFFCURVE",
"482 378 OFFCURVE",
"440 299 CURVE",
"458 300 LINE",
"486 403 OFFCURVE",
"487 508 OFFCURVE",
"405 508 CURVE SMOOTH",
"306 508 OFFCURVE",
"220 400 OFFCURVE",
"180 312 CURVE",
"185 303 LINE",
"198 381 OFFCURVE",
"206 444 OFFCURVE",
"219 489 CURVE",
"200 508 LINE",
"39 463 LINE",
"39 428 LINE",
"156 422 LINE",
"127 448 LINE",
"111 277 OFFCURVE",
"104 203 OFFCURVE",
"55 5 CURVE",
"79 -10 LINE"
);
}
);
width = 823.9;
}
);
leftKerningGroup = lc_ShortStem;
rightKerningGroup = lc_Shoulder;
unicode = 006D;
},
{
color = 6;
glyphname = n;
layers = (
{
anchors = (
{
name = bottom;
position = "{279, 0}";
},
{
name = top;
position = "{339, 494}";
}
);
color = 6;
layerId = "B953D09C-6DD0-450A-A78C-8C2188DD4016";
paths = (
{
closed = 1;
nodes = (
"186 3 LINE",
"188 17 OFFCURVE",
"190 34 OFFCURVE",
"193 50 CURVE",
"217 192 OFFCURVE",
"313 384 OFFCURVE",
"381 384 CURVE SMOOTH",
"401 384 OFFCURVE",
"403 359 OFFCURVE",
"403 340 CURVE SMOOTH",
"403 281 OFFCURVE",
"361 125 OFFCURVE",
"325 3 CURVE",
"361 -15 LINE",
"562 27 LINE",
"566 80 LINE",
"433 93 LINE",
"493 42 LINE",
"496 179 OFFCURVE",
"548 331 OFFCURVE",
"548 430 CURVE SMOOTH",
"548 477 OFFCURVE",
"519 513 OFFCURVE",
"467 513 CURVE SMOOTH",
"337 513 OFFCURVE",
"245 357 OFFCURVE",
"191 222 CURVE",
"195 222 LINE",
"219 342 OFFCURVE",
"253 416 OFFCURVE",
"276 485 CURVE",
"237 513 LINE",
"46 470 LINE",
"46 418 LINE",
"177 410 LINE",
"116 450 LINE",
"111 318 OFFCURVE",
"84 183 OFFCURVE",
"36 3 CURVE",
"70 -15 LINE"
);
}
);
width = 608;
},
{
anchors = (
{
name = bottom;
position = "{238, 0}";
},
{
name = top;
position = "{310, 494}";
}
);
layerId = "3088057A-3552-44D5-8A67-1301E2609A93";
paths = (
{
closed = 1;
nodes = (
"138 5 LINE",
"142 43 OFFCURVE",
"146 75 OFFCURVE",
"153 115 CURVE",
"206 336 OFFCURVE",
"313 442 OFFCURVE",
"354 442 CURVE SMOOTH",
"382 442 OFFCURVE",
"389 415 OFFCURVE",
"389 387 CURVE SMOOTH",
"389 290 OFFCURVE",
"354 136 OFFCURVE",
"326 5 CURVE",
"349 -10 LINE",
"515 35 LINE",
"518 68 LINE",
"390 74 LINE",
"420 51 LINE",
"425 187 OFFCURVE",
"473 330 OFFCURVE",
"473 426 CURVE SMOOTH",
"473 470 OFFCURVE",
"454 508 OFFCURVE",
"403 508 CURVE SMOOTH",
"300 508 OFFCURVE",
"214 386 OFFCURVE",
"180 312 CURVE",
"185 303 LINE",
"197 375 OFFCURVE",
"205 442 OFFCURVE",
"219 489 CURVE",
"200 508 LINE",
"39 463 LINE",
"39 428 LINE",
"156 422 LINE",
"127 448 LINE",
"109 270 OFFCURVE",
"107 216 OFFCURVE",
"55 5 CURVE",
"79 -10 LINE"
);
}
);
width = 554.1;
}
);
leftKerningGroup = lc_ShortStem;
rightKerningGroup = lc_Shoulder;
unicode = 006E;
},
{
color = 3;
glyphname = napostrophe;
layers = (
{
anchors = (
{
name = bottom;
position = "{358, 0}";
},
{
name = top;
position = "{428, 494}";
}
);
color = 3;
components = (
{
name = apostrophemod;
transform = "{1, 0, 0, 1, -43, -160}";
}
);
layerId = "B953D09C-6DD0-450A-A78C-8C2188DD4016";
paths = (
{
closed = 1;
nodes = (
"275 0 LINE",
"277 14 OFFCURVE",
"279 31 OFFCURVE",
"282 47 CURVE",
"306 189 OFFCURVE",
"402 381 OFFCURVE",
"470 381 CURVE SMOOTH",
"490 381 OFFCURVE",
"492 356 OFFCURVE",
"492 337 CURVE SMOOTH",
"492 278 OFFCURVE",
"450 122 OFFCURVE",
"414 0 CURVE",
"450 -18 LINE",
"651 24 LINE",
"655 77 LINE",
"522 90 LINE",
"582 39 LINE",
"585 176 OFFCURVE",
"637 328 OFFCURVE",
"637 427 CURVE SMOOTH",
"637 474 OFFCURVE",
"608 510 OFFCURVE",
"556 510 CURVE SMOOTH",
"426 510 OFFCURVE",
"340 363 OFFCURVE",
"292 248 CURVE",
"297 229 LINE",
"321 349 OFFCURVE",
"342 413 OFFCURVE",
"365 482 CURVE",
"326 510 LINE",
"206 483 LINE",
"206 337 OFFCURVE",
"170 168 OFFCURVE",
"125 0 CURVE",
"159 -18 LINE"
);
}
);
width = 698;
},
{
anchors = (
{
name = bottom;
position = "{322, 0}";
},
{
name = top;
position = "{392, 494}";
}
);
components = (
{
alignment = -1;
name = apostrophemod;
transform = "{1, 0, 0, 1, -41, -160}";
}
);
layerId = "3088057A-3552-44D5-8A67-1301E2609A93";
paths = (
{
closed = 1;
nodes = (
"220 0 LINE",
"225 35 OFFCURVE",
"230 71 OFFCURVE",
"235 106 CURVE",
"285 317 OFFCURVE",
"390 432 OFFCURVE",
"434 432 CURVE SMOOTH",
"463 432 OFFCURVE",
"469 407 OFFCURVE",
"469 379 CURVE SMOOTH",
"469 288 OFFCURVE",
"434 130 OFFCURVE",
"404 0 CURVE",
"428 -15 LINE",
"596 30 LINE",
"599 64 LINE",
"471 70 LINE",
"504 45 LINE",
"508 179 OFFCURVE",
"558 327 OFFCURVE",
"558 422 CURVE SMOOTH",
"558 469 OFFCURVE",
"538 503 OFFCURVE",
"487 503 CURVE SMOOTH",
"384 503 OFFCURVE",
"299 387 OFFCURVE",
"258 298 CURVE",
"263 291 LINE",
"276 366 OFFCURVE",
"288 436 OFFCURVE",
"302 484 CURVE",
"281 503 LINE",
"209 484 LINE",
"194 317 OFFCURVE",
"183 196 OFFCURVE",
"132 0 CURVE",
"157 -15 LINE"
);
}
);
width = 637.5;
}
);
leftKerningGroup = lc_ShortStem;
rightKerningGroup = lc_Shoulder;
unicode = 0149;
},
{
color = 6;
glyphname = nhookleft;
layers = (
{
color = 6;
layerId = "B953D09C-6DD0-450A-A78C-8C2188DD4016";
paths = (
{
closed = 1;
nodes = (
"45 -199 OFFCURVE",
"139 -128 OFFCURVE",
"180 -17 CURVE SMOOTH",
"189 9 OFFCURVE",
"192 34 OFFCURVE",
"196 65 CURVE",
"221 205 OFFCURVE",
"323 384 OFFCURVE",
"384 384 CURVE SMOOTH",
"404 384 OFFCURVE",
"406 359 OFFCURVE",
"406 340 CURVE SMOOTH",
"406 281 OFFCURVE",
"364 125 OFFCURVE",
"328 3 CURVE",
"364 -15 LINE",
"565 27 LINE",
"569 80 LINE",
"436 93 LINE",
"496 42 LINE",
"499 179 OFFCURVE",
"551 331 OFFCURVE",
"551 430 CURVE SMOOTH",
"551 477 OFFCURVE",
"522 513 OFFCURVE",
"470 513 CURVE SMOOTH",
"347 513 OFFCURVE",
"264 382 OFFCURVE",
"214 271 CURVE",
"224 269 LINE",
"238 341 OFFCURVE",
"254 406 OFFCURVE",
"272 485 CURVE",
"233 513 LINE",
"43 470 LINE",
"43 418 LINE",
"175 410 LINE",
"114 455 LINE",
"111 361 OFFCURVE",
"96 258 OFFCURVE",
"78 162 CURVE SMOOTH",
"56 25 OFFCURVE",
"30 -109 OFFCURVE",
"-49 -109 CURVE",
"-69 -188 LINE"
);
}
);
width = 610;
},
{
layerId = "3088057A-3552-44D5-8A67-1301E2609A93";
paths = (
{
closed = 1;
nodes = (
"55 -194 OFFCURVE",
"123 -99 OFFCURVE",
"139 7 CURVE SMOOTH",
"147 53 OFFCURVE",
"151 78 OFFCURVE",
"158 117 CURVE",
"210 325 OFFCURVE",
"312 436 OFFCURVE",
"355 436 CURVE SMOOTH",
"384 436 OFFCURVE",
"391 411 OFFCURVE",
"391 384 CURVE SMOOTH",
"391 293 OFFCURVE",
"354 134 OFFCURVE",
"325 5 CURVE",
"349 -10 LINE",
"517 35 LINE",
"520 68 LINE",
"392 74 LINE",
"425 49 LINE",
"429 186 OFFCURVE",
"480 330 OFFCURVE",
"480 426 CURVE SMOOTH",
"480 473 OFFCURVE",
"459 508 OFFCURVE",
"408 508 CURVE SMOOTH",
"307 508 OFFCURVE",
"222 396 OFFCURVE",
"181 303 CURVE",
"187 294 LINE",
"197 374 OFFCURVE",
"209 437 OFFCURVE",
"224 488 CURVE",
"202 508 LINE",
"40 463 LINE",
"41 426 LINE",
"157 420 LINE",
"126 443 LINE",
"119 357 OFFCURVE",
"108 259 OFFCURVE",
"95 169 CURVE SMOOTH",
"64 -26 OFFCURVE",
"43 -144 OFFCURVE",
"-68 -144 CURVE",
"-73 -195 LINE"
);
}
);
width = 556.1;
}
);
leftKerningGroup = lc_j;
rightKerningGroup = lc_Shoulder;
unicode = 0272;
},
{
color = 6;
glyphname = eng;
layers = (
{
color = 6;
layerId = "B953D09C-6DD0-450A-A78C-8C2188DD4016";
paths = (
{
closed = 1;
nodes = (
"317 -174 OFFCURVE",
"460 -30 OFFCURVE",
"474 9 CURVE SMOOTH",
"481 29 OFFCURVE",
"497 110 OFFCURVE",
"512 195 CURVE SMOOTH",
"528 284 OFFCURVE",
"549 367 OFFCURVE",
"549 430 CURVE SMOOTH",
"549 477 OFFCURVE",
"520 513 OFFCURVE",
"468 513 CURVE SMOOTH",
"338 513 OFFCURVE",
"252 366 OFFCURVE",
"204 251 CURVE",
"209 232 LINE",
"233 352 OFFCURVE",
"254 416 OFFCURVE",
"277 485 CURVE",
"238 513 LINE",
"47 470 LINE",
"47 418 LINE",
"178 410 LINE",
"117 450 LINE",
"112 318 OFFCURVE",
"85 183 OFFCURVE",
"37 3 CURVE",
"71 -15 LINE",
"187 3 LINE",
"189 17 OFFCURVE",
"191 34 OFFCURVE",
"194 50 CURVE",
"218 192 OFFCURVE",
"314 384 OFFCURVE",
"382 384 CURVE SMOOTH",
"402 384 OFFCURVE",
"404 359 OFFCURVE",
"404 340 CURVE SMOOTH",
"404 284 OFFCURVE",
"374 155 OFFCURVE",
"331 18 CURVE SMOOTH",
"326 2 OFFCURVE",
"258 -113 OFFCURVE",
"211 -198 CURVE",
"258 -232 LINE"
);
}
);
width = 586;
},
{
layerId = "3088057A-3552-44D5-8A67-1301E2609A93";
paths = (
{
closed = 1;
nodes = (
"354 -94 OFFCURVE",
"396 -29 OFFCURVE",
"400 -3 CURVE SMOOTH",
"408 47 OFFCURVE",
"423 116 OFFCURVE",
"427 139 CURVE SMOOTH",
"447 240 OFFCURVE",
"474 359 OFFCURVE",
"474 426 CURVE SMOOTH",
"474 470 OFFCURVE",
"455 508 OFFCURVE",
"404 508 CURVE SMOOTH",
"304 508 OFFCURVE",
"217 390 OFFCURVE",
"179 307 CURVE",
"184 300 LINE",
"196 371 OFFCURVE",
"206 438 OFFCURVE",
"220 489 CURVE",
"201 508 LINE",
"40 463 LINE",
"40 428 LINE",
"157 422 LINE",
"128 448 LINE",
"110 270 OFFCURVE",
"108 216 OFFCURVE",
"56 5 CURVE",
"80 -10 LINE",
"139 5 LINE",
"143 43 OFFCURVE",
"147 75 OFFCURVE",
"154 115 CURVE",
"207 336 OFFCURVE",
"314 442 OFFCURVE",
"355 442 CURVE SMOOTH",
"383 442 OFFCURVE",
"390 415 OFFCURVE",
"390 387 CURVE SMOOTH",
"390 288 OFFCURVE",
"354 131 OFFCURVE",
"329 16 CURVE SMOOTH",
"317 -33 OFFCURVE",
"261 -134 OFFCURVE",
"215 -212 CURVE",
"243 -238 LINE"
);
}
);
width = 516.7;
}
);
leftKerningGroup = lc_Round;
rightKerningGroup = lc_descender;
unicode = 014B;
},
{
color = 6;
glyphname = o;
layers = (
{
anchors = (
{
name = bottom;
position = "{221, 0}";
},
{
name = center;
position = "{256, 247}";
},
{
name = ogonek;
position = "{290, 5}";
},
{
name = top;
position = "{291, 494}";
},
{
name = topright;
position = "{386, 440}";
}
);
color = 6;
layerId = "B953D09C-6DD0-450A-A78C-8C2188DD4016";
paths = (
{
closed = 1;
nodes = (
"353 -15 OFFCURVE",
"483 138 OFFCURVE",
"483 328 CURVE SMOOTH",
"483 449 OFFCURVE",
"426 513 OFFCURVE",
"319 513 CURVE SMOOTH",
"160 513 OFFCURVE",
"29 360 OFFCURVE",
"29 170 CURVE SMOOTH",
"29 49 OFFCURVE",
"87 -15 OFFCURVE",
"193 -15 CURVE SMOOTH"
);
},
{
closed = 1;
nodes = (
"195 78 OFFCURVE",
"175 113 OFFCURVE",
"175 174 CURVE SMOOTH",
"175 331 OFFCURVE",
"215 420 OFFCURVE",
"287 420 CURVE SMOOTH",
"317 420 OFFCURVE",
"337 385 OFFCURVE",
"337 324 CURVE SMOOTH",
"337 167 OFFCURVE",
"297 78 OFFCURVE",
"226 78 CURVE SMOOTH"
);
}
);
width = 512;
},
{
anchors = (
{
name = bottom;
position = "{198, 0}";
},
{
name = center;
position = "{233, 249}";
},
{
name = ogonek;
position = "{253, 2}";
},
{
name = top;
position = "{267, 494}";
},
{
name = topright;
position = "{377, 444}";
}
);
layerId = "3088057A-3552-44D5-8A67-1301E2609A93";
paths = (
{
closed = 1;
nodes = (
"311 -10 OFFCURVE",
"431 153 OFFCURVE",
"431 337 CURVE SMOOTH",
"431 445 OFFCURVE",
"381 508 OFFCURVE",
"290 508 CURVE SMOOTH",
"153 508 OFFCURVE",
"33 345 OFFCURVE",
"33 163 CURVE SMOOTH",
"33 57 OFFCURVE",
"84 -10 OFFCURVE",
"174 -10 CURVE SMOOTH"
);
},
{
closed = 1;
nodes = (
"143 41 OFFCURVE",
"121 82 OFFCURVE",
"121 158 CURVE SMOOTH",
"121 326 OFFCURVE",
"186 459 OFFCURVE",
"276 459 CURVE SMOOTH",
"323 459 OFFCURVE",
"344 417 OFFCURVE",
"344 341 CURVE SMOOTH",
"344 170 OFFCURVE",
"277 41 OFFCURVE",
"189 41 CURVE SMOOTH"
);
}
);
width = 463.6;
}
);
leftKerningGroup = lc_Round;
rightKerningGroup = lc_Round;
unicode = 006F;
},
{
color = 3;
glyphname = oslash;
layers = (
{
anchors = (
{
name = top;
position = "{304, 494}";
}
);
color = 3;
components = (
{
name = o;
transform = "{1, 0, 0, 1, 3, 0}";
}
);
layerId = "B953D09C-6DD0-450A-A78C-8C2188DD4016";
paths = (
{
closed = 1;
nodes = (
"448 602 LINE",
"15 -75 LINE",
"66 -103 LINE",
"500 574 LINE"
);
}
);
width = 517;
},
{
anchors = (
{
name = top;
position = "{269, 494}";
}
);
components = (
{
alignment = -1;
name = o;
transform = "{1, 0, 0, 1, 4, 0}";
}
);
layerId = "3088057A-3552-44D5-8A67-1301E2609A93";
paths = (
{
closed = 1;
nodes = (
"447 598 LINE",
"-11 -81 LINE",
"23 -99 LINE",
"481 580 LINE"
);
}
);
width = 473;
}
);
leftKerningGroup = lc_Round;
rightKerningGroup = lc_Round;
unicode = 00F8;
},
{
color = 6;
glyphname = oe;
layers = (
{
anchors = (
{
name = bottom;
position = "{347, 0}";
},
{
name = top;
position = "{409, 498}";
}
);
color = 6;
layerId = "B953D09C-6DD0-450A-A78C-8C2188DD4016";
paths = (
{
closed = 1;
nodes = (
"353 -15 OFFCURVE",
"483 138 OFFCURVE",
"483 328 CURVE SMOOTH",
"483 449 OFFCURVE",
"426 513 OFFCURVE",
"319 513 CURVE SMOOTH",
"160 513 OFFCURVE",
"29 360 OFFCURVE",
"29 170 CURVE SMOOTH",
"29 49 OFFCURVE",
"87 -15 OFFCURVE",
"193 -15 CURVE SMOOTH"
);
},
{
closed = 1;
nodes = (
"195 78 OFFCURVE",
"175 113 OFFCURVE",
"175 174 CURVE SMOOTH",
"175 331 OFFCURVE",
"215 420 OFFCURVE",
"287 420 CURVE SMOOTH",
"317 420 OFFCURVE",
"337 385 OFFCURVE",
"337 324 CURVE SMOOTH",
"337 167 OFFCURVE",
"297 78 OFFCURVE",
"226 78 CURVE SMOOTH"
);
},
{
closed = 1;
nodes = (
"547 -15 OFFCURVE",
"648 44 OFFCURVE",
"706 124 CURVE",
"660 164 LINE",
"624 127 OFFCURVE",
"562 82 OFFCURVE",
"520 82 CURVE SMOOTH",
"489 82 OFFCURVE",
"466 102 OFFCURVE",
"466 154 CURVE SMOOTH",
"466 270 OFFCURVE",
"516 423 OFFCURVE",
"564 423 CURVE SMOOTH",
"603 423 OFFCURVE",
"617 413 OFFCURVE",
"617 395 CURVE SMOOTH",
"617 339 OFFCURVE",
"545 263 OFFCURVE",
"429 253 CURVE",
"428 191 LINE",
"624 215 OFFCURVE",
"745 310 OFFCURVE",
"745 424 CURVE SMOOTH",
"745 483 OFFCURVE",
"689 513 OFFCURVE",
"584 513 CURVE SMOOTH",
"479 513 OFFCURVE",
"328 299 OFFCURVE",
"328 138 CURVE SMOOTH",
"328 28 OFFCURVE",
"389 -15 OFFCURVE",
"463 -15 CURVE SMOOTH"
);
}
);
width = 756;
},
{
anchors = (
{
name = bottom;
position = "{413, 0}";
},
{
name = top;
position = "{475, 498}";
}
);
layerId = "3088057A-3552-44D5-8A67-1301E2609A93";
paths = (
{
closed = 1;
nodes = (
"311 -10 OFFCURVE",
"431 153 OFFCURVE",
"431 337 CURVE SMOOTH",
"431 445 OFFCURVE",
"381 508 OFFCURVE",
"290 508 CURVE SMOOTH",
"153 508 OFFCURVE",
"33 345 OFFCURVE",
"33 163 CURVE SMOOTH",
"33 57 OFFCURVE",
"84 -10 OFFCURVE",
"174 -10 CURVE SMOOTH"
);
},
{
closed = 1;
nodes = (
"143 41 OFFCURVE",
"121 82 OFFCURVE",
"121 158 CURVE SMOOTH",
"121 326 OFFCURVE",
"186 459 OFFCURVE",
"276 459 CURVE SMOOTH",
"323 459 OFFCURVE",
"344 417 OFFCURVE",
"344 341 CURVE SMOOTH",
"344 170 OFFCURVE",
"277 41 OFFCURVE",
"189 41 CURVE SMOOTH"
);
},
{
closed = 1;
nodes = (
"523 -10 OFFCURVE",
"602 39 OFFCURVE",
"658 133 CURVE",
"627 153 LINE",
"577 82 OFFCURVE",
"518 47 OFFCURVE",
"471 47 CURVE SMOOTH",
"430 47 OFFCURVE",
"409 84 OFFCURVE",
"409 150 CURVE SMOOTH",
"409 270 OFFCURVE",
"482 453 OFFCURVE",
"532 453 CURVE SMOOTH",
"578 453 OFFCURVE",
"598 438 OFFCURVE",
"598 404 CURVE SMOOTH",
"598 330 OFFCURVE",
"515 271 OFFCURVE",
"395 253 CURVE",
"394 211 LINE",
"571 243 OFFCURVE",
"679 325 OFFCURVE",
"679 430 CURVE SMOOTH",
"679 481 OFFCURVE",
"627 508 OFFCURVE",
"535 508 CURVE SMOOTH",
"449 508 OFFCURVE",
"327 295 OFFCURVE",
"327 141 CURVE SMOOTH",
"327 43 OFFCURVE",
"366 -10 OFFCURVE",
"439 -10 CURVE SMOOTH"
);
}
);
width = 701;
}
);
leftKerningGroup = lc_Round;
rightKerningGroup = lc_e;
unicode = 0153;
},
{
color = 6;
glyphname = p;
layers = (
{
anchors = (
{
name = bottom;
position = "{241, 0}";
},
{
name = top;
position = "{311, 494}";
}
);
color = 6;
layerId = "B953D09C-6DD0-450A-A78C-8C2188DD4016";
paths = (
{
closed = 1;
nodes = (
"156 -256 LINE",
"168 -147 OFFCURVE",
"180 -54 OFFCURVE",
"193 36 CURVE",
"189 210 OFFCURVE",
"299 384 OFFCURVE",
"352 384 CURVE SMOOTH",
"374 384 OFFCURVE",
"378 358 OFFCURVE",
"378 323 CURVE SMOOTH",
"378 206 OFFCURVE",
"338 91 OFFCURVE",
"304 91 CURVE SMOOTH",
"264 91 OFFCURVE",
"213 111 OFFCURVE",
"188 122 CURVE",
"173 2 LINE",
"206 -4 OFFCURVE",
"259 -15 OFFCURVE",
"286 -15 CURVE SMOOTH",
"402 -15 OFFCURVE",
"519 186 OFFCURVE",
"519 358 CURVE SMOOTH",
"519 436 OFFCURVE",
"495 513 OFFCURVE",
"439 513 CURVE SMOOTH",
"318 513 OFFCURVE",
"246 366 OFFCURVE",
"185 245 CURVE",
"193 247 LINE",
"212 338 OFFCURVE",
"249 428 OFFCURVE",
"271 485 CURVE",
"231 513 LINE",
"40 470 LINE",
"40 418 LINE",
"173 410 LINE",
"112 440 LINE",
"105 301 OFFCURVE",
"65 -38 OFFCURVE",
"6 -256 CURVE",
"40 -274 LINE"
);
}
);
width = 548;
},
{
anchors = (
{
name = bottom;
position = "{218, 0}";
},
{
name = top;
position = "{288, 494}";
}
);
layerId = "3088057A-3552-44D5-8A67-1301E2609A93";
paths = (
{
closed = 1;
nodes = (
"98 -263 LINE",
"111 -145 OFFCURVE",
"124 -51 OFFCURVE",
"138 55 CURVE",
"163 227 OFFCURVE",
"274 456 OFFCURVE",
"339 456 CURVE SMOOTH",
"367 456 OFFCURVE",
"388 410 OFFCURVE",
"388 352 CURVE SMOOTH",
"388 230 OFFCURVE",
"315 38 OFFCURVE",
"262 38 CURVE SMOOTH",
"218 38 OFFCURVE",
"137 78 OFFCURVE",
"129 81 CURVE",
"121 4 LINE",
"143 0 OFFCURVE",
"215 -10 OFFCURVE",
"249 -10 CURVE SMOOTH",
"339 -10 OFFCURVE",
"468 206 OFFCURVE",
"468 358 CURVE SMOOTH",
"468 458 OFFCURVE",
"432 508 OFFCURVE",
"365 508 CURVE SMOOTH",
"307 508 OFFCURVE",
"234 449 OFFCURVE",
"182 345 CURVE",
"192 345 LINE",
"204 418 OFFCURVE",
"208 437 OFFCURVE",
"220 489 CURVE",
"200 508 LINE",
"40 463 LINE",
"40 428 LINE",
"157 422 LINE",
"126 439 LINE",
"113 270 OFFCURVE",
"58 -67 OFFCURVE",
"16 -263 CURVE",
"40 -277 LINE"
);
}
);
width = 497.4;
}
);
leftKerningGroup = lc_LongtStem;
rightKerningGroup = lc_Round;
unicode = 0070;
},
{
color = 6;
glyphname = thorn;
layers = (
{
anchors = (
{
name = bottom;
position = "{237, 0}";
},
{
name = top;
position = "{297, 494}";
}
);
color = 6;
layerId = "B953D09C-6DD0-450A-A78C-8C2188DD4016";
paths = (
{
closed = 1;
nodes = (
"149 -259 LINE",
"167 0 OFFCURVE",
"170 190 OFFCURVE",
"289 741 CURVE",
"255 769 LINE",
"57 736 LINE",
"60 683 LINE",
"190 666 LINE",
"129 691 LINE",
"122 552 OFFCURVE",
"58 -41 OFFCURVE",
"-1 -259 CURVE",
"33 -277 LINE"
);
},
{
closed = 1;
nodes = (
"390 -15 OFFCURVE",
"507 187 OFFCURVE",
"507 358 CURVE SMOOTH",
"507 437 OFFCURVE",
"483 513 OFFCURVE",
"426 513 CURVE SMOOTH",
"281 513 OFFCURVE",
"153 282 OFFCURVE",
"117 61 CURVE",
"183 80 LINE",
"195 237 OFFCURVE",
"292 386 OFFCURVE",
"341 386 CURVE SMOOTH",
"364 386 OFFCURVE",
"368 360 OFFCURVE",
"368 324 CURVE SMOOTH",
"368 207 OFFCURVE",
"327 89 OFFCURVE",
"292 89 CURVE SMOOTH",
"237 89 OFFCURVE",
"163 127 OFFCURVE",
"163 127 CURVE",
"132 6 LINE",
"148 6 OFFCURVE",
"236 -15 OFFCURVE",
"275 -15 CURVE SMOOTH"
);
}
);
width = 537;
},
{
anchors = (
{
name = bottom;
position = "{204, 0}";
},
{
name = top;
position = "{264, 494}";
}
);
layerId = "3088057A-3552-44D5-8A67-1301E2609A93";
paths = (
{
closed = 1;
nodes = (
"73 -262 LINE",
"111 46 OFFCURVE",
"192 551 OFFCURVE",
"225 752 CURVE",
"204 770 LINE",
"45 744 LINE",
"48 708 LINE",
"165 690 LINE",
"141 712 LINE",
"114 433 OFFCURVE",
"68 59 OFFCURVE",
"-9 -262 CURVE",
"15 -277 LINE"
);
},
{
closed = 1;
nodes = (
"312 -8 OFFCURVE",
"441 208 OFFCURVE",
"441 358 CURVE SMOOTH",
"441 461 OFFCURVE",
"403 508 OFFCURVE",
"336 508 CURVE SMOOTH",
"223 508 OFFCURVE",
"99 281 OFFCURVE",
"65 61 CURVE",
"119 80 LINE",
"136 235 OFFCURVE",
"254 461 OFFCURVE",
"316 461 CURVE SMOOTH",
"343 461 OFFCURVE",
"364 416 OFFCURVE",
"364 355 CURVE SMOOTH",
"364 230 OFFCURVE",
"289 35 OFFCURVE",
"236 35 CURVE SMOOTH",
"192 35 OFFCURVE",
"114 74 OFFCURVE",
"114 74 CURVE",
"89 5 LINE",
"104 5 OFFCURVE",
"185 -8 OFFCURVE",
"222 -8 CURVE SMOOTH"
);
}
);
width = 469.9;
}
);
leftKerningGroup = lc_LongStem;
leftMetricsKey = "=b";
rightKerningGroup = lc_Round;
unicode = 00FE;
},
{
color = 6;
glyphname = q;
layers = (
{
anchors = (
{
name = bottom;
position = "{227, 0}";
},
{
name = top;
position = "{287, 494}";
}
);
color = 6;
layerId = "B953D09C-6DD0-450A-A78C-8C2188DD4016";
paths = (
{
closed = 1;
nodes = (
"394 -253 LINE",
"410 -94 OFFCURVE",
"458 313 OFFCURVE",
"506 485 CURVE",
"466 513 LINE",
"358 484 LINE",
"356 438 LINE SMOOTH",
"349 273 OFFCURVE",
"246 114 OFFCURVE",
"197 114 CURVE SMOOTH",
"174 114 OFFCURVE",
"170 140 OFFCURVE",
"170 175 CURVE SMOOTH",
"170 292 OFFCURVE",
"210 407 OFFCURVE",
"245 407 CURVE SMOOTH",
"299 407 OFFCURVE",
"370 372 OFFCURVE",
"380 370 CURVE",
"396 492 LINE",
"376 493 OFFCURVE",
"301 513 OFFCURVE",
"263 513 CURVE SMOOTH",
"147 513 OFFCURVE",
"30 312 OFFCURVE",
"30 140 CURVE SMOOTH",
"30 62 OFFCURVE",
"53 -15 OFFCURVE",
"110 -15 CURVE SMOOTH",
"218 -15 OFFCURVE",
"316 113 OFFCURVE",
"375 266 CURVE",
"363 282 LINE",
"356 198 OFFCURVE",
"323 79 OFFCURVE",
"298 -4 CURVE",
"280 -96 OFFCURVE",
"259 -186 OFFCURVE",
"240 -259 CURVE",
"275 -277 LINE"
);
}
);
width = 532;
},
{
anchors = (
{
name = bottom;
position = "{207, 0}";
},
{
name = top;
position = "{267, 494}";
}
);
layerId = "3088057A-3552-44D5-8A67-1301E2609A93";
paths = (
{
closed = 1;
nodes = (
"337 -257 LINE",
"345 -64 OFFCURVE",
"399 315 OFFCURVE",
"448 495 CURVE",
"426 508 LINE",
"354 492 LINE",
"352 441 LINE SMOOTH",
"346 286 OFFCURVE",
"217 43 OFFCURVE",
"157 43 CURVE SMOOTH",
"130 43 OFFCURVE",
"111 86 OFFCURVE",
"111 146 CURVE SMOOTH",
"111 267 OFFCURVE",
"183 461 OFFCURVE",
"234 461 CURVE SMOOTH",
"287 461 OFFCURVE",
"365 416 OFFCURVE",
"378 410 CURVE",
"380 494 LINE",
"360 495 OFFCURVE",
"282 508 OFFCURVE",
"248 508 CURVE SMOOTH",
"157 508 OFFCURVE",
"27 294 OFFCURVE",
"29 140 CURVE SMOOTH",
"30 39 OFFCURVE",
"64 -10 OFFCURVE",
"132 -10 CURVE SMOOTH",
"205 -10 OFFCURVE",
"281 80 OFFCURVE",
"333 196 CURVE",
"328 215 LINE",
"312 106 OFFCURVE",
"303 64 OFFCURVE",
"291 -6 CURVE",
"277 -91 OFFCURVE",
"262 -176 OFFCURVE",
"248 -262 CURVE",
"271 -277 LINE"
);
}
);
width = 473.7;
}
);
leftKerningGroup = lc_Round;
rightKerningGroup = lc_LongtStem;
unicode = 0071;
},
{
color = 6;
glyphname = r;
layers = (
{
anchors = (
{
name = bottom;
position = "{161, 0}";
},
{
name = top;
position = "{241, 494}";
}
);
color = 6;
layerId = "B953D09C-6DD0-450A-A78C-8C2188DD4016";
paths = (
{
closed = 1;
nodes = (
"186 3 LINE",
"188 55 OFFCURVE",
"192 110 OFFCURVE",
"203 159 CURVE",
"217 213 OFFCURVE",
"271 340 OFFCURVE",
"326 340 CURVE SMOOTH",
"341 340 OFFCURVE",
"373 325 OFFCURVE",
"387 318 CURVE",
"428 497 LINE",
"421 504 OFFCURVE",
"409 512 OFFCURVE",
"398 512 CURVE SMOOTH",
"338 512 OFFCURVE",
"244 368 OFFCURVE",
"167 187 CURVE",
"187 206 LINE",
"202 300 OFFCURVE",
"233 382 OFFCURVE",
"276 485 CURVE",
"237 513 LINE",
"46 470 LINE",
"46 418 LINE",
"177 410 LINE",
"116 447 LINE",
"110 326 OFFCURVE",
"89 201 OFFCURVE",
"36 3 CURVE",
"70 -15 LINE"
);
}
);
width = 423;
},
{
anchors = (
{
name = bottom;
position = "{108, 0}";
},
{
name = top;
position = "{289, 494}";
}
);
associatedMasterId = "B953D09C-6DD0-450A-A78C-8C2188DD4016";
background = {
anchors = (
{
name = bottom;
position = "{108, 0}";
},
{
name = top;
position = "{289, 494}";
}
);
paths = (
{
closed = 1;
nodes = (
"347 510 OFFCURVE",
"257 410 OFFCURVE",
"200 282 CURVE",
"214 348 OFFCURVE",
"231 396 OFFCURVE",
"267 482 CURVE",
"228 510 LINE",
"37 467 LINE",
"37 415 LINE",
"105 411 LINE",
"97 300 OFFCURVE",
"75 180 OFFCURVE",
"27 0 CURVE",
"61 -18 LINE",
"177 0 LINE",
"193 116 LINE",
"227 233 OFFCURVE",
"302 349 OFFCURVE",
"354 373 CURVE",
"355 280 LINE",
"410 277 LINE",
"453 466 LINE",
"428 505 LINE",
"417 508 OFFCURVE",
"410 510 OFFCURVE",
"403 510 CURVE SMOOTH"
);
},
{
closed = 1;
nodes = (
"328 504 OFFCURVE",
"254 434 OFFCURVE",
"201 324 CURVE",
"210 379 OFFCURVE",
"222 433 OFFCURVE",
"237 484 CURVE",
"214 504 LINE",
"49 461 LINE",
"49 422 LINE",
"132 418 LINE",
"116 252 OFFCURVE",
"102 168 OFFCURVE",
"60 0 CURVE",
"86 -15 LINE",
"154 0 LINE",
"168 104 LINE",
"186 236 OFFCURVE",
"267 387 OFFCURVE",
"343 430 CURVE",
"340 270 LINE",
"377 267 LINE",
"431 476 LINE",
"414 500 LINE",
"413 501 OFFCURVE",
"401 504 OFFCURVE",
"391 504 CURVE SMOOTH"
);
}
);
};
color = 6;
layerId = "48DDDB51-FB75-49FC-9835-0F451F2EDB82";
name = "Bold Extended Italic Jul 3 15, 13:45";
paths = (
{
closed = 1;
nodes = (
"347 510 OFFCURVE",
"257 410 OFFCURVE",
"200 282 CURVE",
"214 348 OFFCURVE",
"231 396 OFFCURVE",
"267 482 CURVE",
"228 510 LINE",
"37 467 LINE",
"37 415 LINE",
"105 411 LINE",
"97 300 OFFCURVE",
"75 180 OFFCURVE",
"27 0 CURVE",
"61 -18 LINE",
"177 0 LINE",
"193 116 LINE",
"227 233 OFFCURVE",
"302 349 OFFCURVE",
"354 373 CURVE",
"330 240 LINE",
"385 237 LINE",
"453 466 LINE",
"428 505 LINE",
"417 508 OFFCURVE",
"410 510 OFFCURVE",
"403 510 CURVE SMOOTH"
);
}
);
width = 425;
},
{
anchors = (
{
name = bottom;
position = "{108, 0}";
},
{
name = top;
position = "{289, 494}";
}
);
associatedMasterId = "B953D09C-6DD0-450A-A78C-8C2188DD4016";
background = {
paths = (
{
closed = 1;
nodes = (
"445 77 LINE",
"367 84 LINE",
"374 238 OFFCURVE",
"400 361 OFFCURVE",
"431 482 CURVE",
"391 510 LINE",
"310 490 LINE",
"281 494 OFFCURVE",
"211 510 OFFCURVE",
"177 510 CURVE SMOOTH",
"61 510 OFFCURVE",
"-55 309 OFFCURVE",
"-55 137 CURVE SMOOTH",
"-55 59 OFFCURVE",
"-32 -18 OFFCURVE",
"25 -18 CURVE SMOOTH",
"122 -18 OFFCURVE",
"210 84 OFFCURVE",
"270 215 CURVE",
"258 137 OFFCURVE",
"205 0 OFFCURVE",
"205 0 CURVE",
"240 -18 LINE",
"441 24 LINE"
);
}
);
};
color = 6;
layerId = "26827896-1E6F-4D70-B04D-585B2F78ADDA";
name = "Bold Extended Italic Jul 3 15, 14:07";
paths = (
{
closed = 1;
nodes = (
"392 509 OFFCURVE",
"381 509 CURVE SMOOTH",
"322 509 OFFCURVE",
"264 423 OFFCURVE",
"199 287 CURVE",
"213 353 OFFCURVE",
"231 396 OFFCURVE",
"267 482 CURVE",
"228 510 LINE",
"37 467 LINE",
"37 415 LINE",
"105 411 LINE",
"97 300 OFFCURVE",
"75 180 OFFCURVE",
"27 0 CURVE",
"61 -18 LINE",
"177 0 LINE",
"181 52 OFFCURVE",
"186 104 OFFCURVE",
"194 156 CURVE",
"226 272 OFFCURVE",
"290 342 OFFCURVE",
"338 342 CURVE SMOOTH",
"362 342 OFFCURVE",
"373 335 OFFCURVE",
"391 325 CURVE",
"430 455 LINE",
"416 498 LINE",
"404 505 OFFCURVE"
);
}
);
width = 405;
},
{
anchors = (
{
name = bottom;
position = "{108, 0}";
},
{
name = top;
position = "{289, 494}";
}
);
associatedMasterId = "B953D09C-6DD0-450A-A78C-8C2188DD4016";
background = {
paths = (
{
closed = 1;
nodes = (
"451 77 LINE",
"373 84 LINE",
"380 238 OFFCURVE",
"406 361 OFFCURVE",
"437 482 CURVE",
"397 510 LINE",
"316 490 LINE",
"287 494 OFFCURVE",
"217 510 OFFCURVE",
"183 510 CURVE SMOOTH",
"67 510 OFFCURVE",
"-49 309 OFFCURVE",
"-49 137 CURVE SMOOTH",
"-49 59 OFFCURVE",
"-26 -18 OFFCURVE",
"31 -18 CURVE SMOOTH",
"128 -18 OFFCURVE",
"216 84 OFFCURVE",
"276 215 CURVE",
"264 137 OFFCURVE",
"211 0 OFFCURVE",
"211 0 CURVE",
"246 -18 LINE",
"447 24 LINE"
);
}
);
};
color = 6;
layerId = "310CB22E-00DA-40FA-9B04-945B7E4ECD49";
name = "Bold Extended Italic Jul 3 15, 14:08";
paths = (
{
closed = 1;
nodes = (
"386 509 OFFCURVE",
"381 509 CURVE SMOOTH",
"322 509 OFFCURVE",
"264 423 OFFCURVE",
"199 287 CURVE",
"213 353 OFFCURVE",
"231 396 OFFCURVE",
"267 482 CURVE",
"228 510 LINE",
"37 467 LINE",
"37 415 LINE",
"105 411 LINE",
"97 300 OFFCURVE",
"75 180 OFFCURVE",
"27 0 CURVE",
"61 -18 LINE",
"177 0 LINE",
"181 52 OFFCURVE",
"186 104 OFFCURVE",
"194 156 CURVE",
"226 272 OFFCURVE",
"290 342 OFFCURVE",
"338 342 CURVE SMOOTH",
"362 342 OFFCURVE",
"373 335 OFFCURVE",
"391 325 CURVE",
"437 482 LINE",
"401 507 LINE",
"395 508 OFFCURVE"
);
}
);
width = 405;
},
{
anchors = (
{
name = bottom;
position = "{108, 0}";
},
{
name = top;
position = "{279, 494}";
}
);
associatedMasterId = "B953D09C-6DD0-450A-A78C-8C2188DD4016";
background = {
paths = (
{
closed = 1;
nodes = (
"400 505 OFFCURVE",
"389 509 OFFCURVE",
"378 509 CURVE SMOOTH",
"325 509 OFFCURVE",
"267 429 OFFCURVE",
"199 287 CURVE",
"213 353 OFFCURVE",
"231 396 OFFCURVE",
"267 482 CURVE",
"228 510 LINE",
"37 467 LINE",
"37 415 LINE",
"105 411 LINE",
"97 300 OFFCURVE",
"75 180 OFFCURVE",
"27 0 CURVE",
"61 -18 LINE",
"177 0 LINE",
"181 52 OFFCURVE",
"181 107 OFFCURVE",
"194 156 CURVE SMOOTH",
"208 210 OFFCURVE",
"271 337 OFFCURVE",
"326 337 CURVE SMOOTH",
"342 337 OFFCURVE",
"368 330 OFFCURVE",
"383 325 CURVE",
"422 455 LINE",
"411 498 LINE"
);
}
);
};
color = 6;
layerId = "47C738EB-1E92-4E1C-8CCE-1AC5388126F2";
name = "Bold Extended Italic Jul 3 15, 14:22";
paths = (
{
closed = 1;
nodes = (
"400 505 OFFCURVE",
"389 509 OFFCURVE",
"378 509 CURVE SMOOTH",
"325 509 OFFCURVE",
"267 429 OFFCURVE",
"199 287 CURVE",
"213 353 OFFCURVE",
"231 396 OFFCURVE",
"267 482 CURVE",
"228 510 LINE",
"37 467 LINE",
"37 415 LINE",
"105 411 LINE",
"97 300 OFFCURVE",
"75 180 OFFCURVE",
"27 0 CURVE",
"61 -18 LINE",
"177 0 LINE",
"181 52 OFFCURVE",
"181 107 OFFCURVE",
"194 156 CURVE SMOOTH",
"208 210 OFFCURVE",
"271 337 OFFCURVE",
"326 337 CURVE SMOOTH",
"343 337 OFFCURVE",
"367 330 OFFCURVE",
"383 325 CURVE",
"422 455 LINE",
"411 498 LINE"
);
}
);
width = 397;
},
{
anchors = (
{
name = bottom;
position = "{149, 0}";
},
{
name = top;
position = "{217, 494}";
}
);
layerId = "3088057A-3552-44D5-8A67-1301E2609A93";
paths = (
{
closed = 1;
nodes = (
"137 5 LINE",
"143 37 OFFCURVE",
"146 66 OFFCURVE",
"151 100 CURVE",
"194 310 OFFCURVE",
"267 388 OFFCURVE",
"318 388 CURVE SMOOTH",
"327 388 OFFCURVE",
"342 386 OFFCURVE",
"355 382 CURVE",
"390 496 LINE",
"383 500 OFFCURVE",
"372 508 OFFCURVE",
"355 508 CURVE SMOOTH",
"294 508 OFFCURVE",
"234 422 OFFCURVE",
"178 308 CURVE",
"188 314 LINE",
"195 367 OFFCURVE",
"209 433 OFFCURVE",
"219 489 CURVE",
"200 508 LINE",
"39 463 LINE",
"39 428 LINE",
"156 422 LINE",
"128 453 LINE",
"110 250 OFFCURVE",
"93 167 OFFCURVE",
"54 5 CURVE",
"78 -10 LINE"
);
}
);
width = 379;
}
);
leftKerningGroup = lc_ShortStem;
rightKerningGroup = lc_r;
unicode = 0072;
},
